<svg xmlns="http://www.w3.org/2000/svg" width="78.984" height="70.453" viewBox="0 0 78.984 70.453"><g transform="translate(-18.221 -43.621)"><path d="M94.329,43.621H20.518a2.3,2.3,0,0,0-2.3,2.3V86.531h78.4V45.918A2.3,2.3,0,0,0,94.329,43.621Z" fill="#005b85"/><path d="M22,352.119a2.3,2.3,0,0,0,2.3,2.3H98.111a2.3,2.3,0,0,0,2.3-2.3V343.7H22Z" transform="translate(-3.203 -254.124)" fill="#005b85"/><path d="M213.27,448.291h-2.3V443.7H192.6v4.594h-2.3a2.3,2.3,0,1,0,0,4.594h22.97a2.3,2.3,0,1,0,0-4.594Z" transform="translate(-143.783 -338.811)" fill="#005b85"/><g transform="translate(35.067 48.854)"><path d="M128.226,77.8V103.48h32.182l5.668-5.68v-20Z" transform="translate(-128.226 -77.796)" fill="#14647f"/><path d="M337.452,203.6l-4.092-4.092a.18.18,0,0,1,0-.254L336,196.609l-13.518-4.055,4.055,13.518,2.577-2.576a.414.414,0,0,1,.584,0l3.927,3.928Z" transform="translate(-292.738 -174.981)" fill="#fff"/><rect width="37.85" height="6.759" transform="translate(0 0)" fill="#fff"/></g><rect width="8.262" height="3.67" transform="translate(38.867 65.076)" fill="#0e99c9"/><rect width="37.85" height="2.388" transform="translate(35.067 48.854)" fill="#0e99c9"/></g></svg>