<svg xmlns="http://www.w3.org/2000/svg" width="70.055" height="64.337" viewBox="0 0 70.055 64.337"><g transform="translate(0 -20.894)"><path d="M166.949,211.106c-3.706,0-5.8,3.32-6.172,6.4a24.412,24.412,0,0,1-1.609,5.909h7.781a6.157,6.157,0,1,0,0-12.314Z" transform="translate(-137.39 -164.186)" fill="#005b85"/><path d="M68,20.894H2.052A2.052,2.052,0,0,0,0,22.946V59.234H17.3a22.779,22.779,0,0,0,2.008-6.4,12.257,12.257,0,0,1,3.16-6.959,9.7,9.7,0,0,1,7.087-3.055,10.309,10.309,0,0,1,1.45.1L43.022,30.907a6.157,6.157,0,1,1,8.707,8.707L39.717,51.627a10.322,10.322,0,0,1,.1,1.45,10.209,10.209,0,0,1-2.058,6.157H70.055V22.946A2.052,2.052,0,0,0,68,20.894Z" fill="#005b85"/><path d="M260.27,125.108l10.71-10.71a2.052,2.052,0,1,0-2.9-2.9l-10.71,10.71a10.342,10.342,0,0,1,2.9,2.9Z" transform="translate(-222.153 -77.686)" fill="#005b85"/><path d="M0,338.631a2.052,2.052,0,0,0,2.052,2.052H68a2.053,2.053,0,0,0,2.052-2.052v-7.525H0Z" transform="translate(0 -267.767)" fill="#005b85"/><path d="M188.576,435.211h-2.052v-4.1H170.1v4.1h-2.052a2.052,2.052,0,1,0,0,4.1h20.524a2.052,2.052,0,1,0,0-4.1Z" transform="translate(-143.287 -354.085)" fill="#005b85"/></g></svg>