<svg xmlns="http://www.w3.org/2000/svg" width="77.884" height="68.453" viewBox="0 0 77.884 68.453"><g transform="translate(0 -31)"><path d="M151,397.849A6.846,6.846,0,1,0,157.846,391,6.853,6.853,0,0,0,151,397.849Z" transform="translate(-128.03 -305.241)" fill="#005b85"/><g transform="translate(0 31)"><path d="M25.251,76.636H66.476a2.274,2.274,0,0,0,2.193-1.655L77.8,43.035A2.279,2.279,0,0,0,75.6,40.127H19.984l-1.631-7.34A2.282,2.282,0,0,0,16.124,31H2.282a2.282,2.282,0,0,0,0,4.563H14.293l8.24,37.078a6.841,6.841,0,0,0,2.718,13.121H66.476a2.282,2.282,0,0,0,0-4.563H25.251a2.282,2.282,0,1,1,0-4.563Z" transform="translate(0 -31)" fill="#005b85"/><path d="M362,397.849A6.845,6.845,0,1,0,368.849,391,6.853,6.853,0,0,0,362,397.849Z" transform="translate(-306.937 -336.241)" fill="#005b85"/></g></g></svg>