<svg xmlns="http://www.w3.org/2000/svg" width="64.337" height="64.337" viewBox="0 0 64.337 64.337"><g transform="translate(0 0.001)"><g transform="translate(0 38.173)"><path d="M147.249,301.89a23.882,23.882,0,0,0,4.627-2.524,12.131,12.131,0,0,0-10.158-8.63,20.25,20.25,0,0,0-2.136,5.556A11.79,11.79,0,0,1,147.249,301.89Z" transform="translate(-121.255 -290.736)" fill="#005b85"/><path d="M15.887,369.249A9.125,9.125,0,1,0,6.7,360.08v0c0,2.079-2.745,9.169-6.7,9.169H15.887Z" transform="translate(0 -343.087)" fill="#005b85"/></g><path d="M208.8.232h0L208.77.209h0c-2.026-1.849-19.28,8.782-32.4,23.089a90.547,90.547,0,0,0-9.75,12.44A14.779,14.779,0,0,1,177.6,45.182,92.383,92.383,0,0,0,188.755,34.6C201.807,20.231,210.822,2.081,208.8.232Z" transform="translate(-144.744 0)" fill="#005b85"/></g></svg>