<svg xmlns="http://www.w3.org/2000/svg" xmlns:xlink="http://www.w3.org/1999/xlink" width="1949.806" height="1396" viewBox="0 0 1949.806 1396"><defs><linearGradient id="a" x1="0.287" y1="-0.052" x2="0.782" y2="1.23" gradientUnits="objectBoundingBox"><stop offset="0" stop-color="#fff"/><stop offset="1" stop-color="#f0f7fc"/></linearGradient><clipPath id="c"><rect width="1920" height="1396" transform="translate(0 0)" fill="url(#a)"/></clipPath><linearGradient id="d" x1="5.181" y1="6.76" x2="0.097" y2="-0.039" gradientUnits="objectBoundingBox"><stop offset="0" stop-color="#52bbe8"/><stop offset="0.196" stop-color="#68c3ea"/><stop offset="0.604" stop-color="#a2d8f1"/><stop offset="1" stop-color="#e1eff8"/></linearGradient><linearGradient id="e" x1="4.887" y1="6.366" x2="-0.197" y2="-0.432" xlink:href="#d"/><linearGradient id="f" x1="4.593" y1="5.973" x2="-0.491" y2="-0.826" xlink:href="#d"/><linearGradient id="g" x1="4.299" y1="5.579" x2="-0.786" y2="-1.219" xlink:href="#d"/><linearGradient id="h" x1="6.302" y1="5.233" x2="-1.869" y2="-1.566" xlink:href="#d"/><linearGradient id="i" x1="6.112" y1="8.004" x2="1.028" y2="1.206" xlink:href="#d"/><linearGradient id="j" x1="4.641" y1="6.037" x2="-0.443" y2="-0.761" xlink:href="#d"/><linearGradient id="k" x1="4.347" y1="5.643" x2="-0.738" y2="-1.155" xlink:href="#d"/><linearGradient id="l" x1="4.052" y1="5.25" x2="-1.032" y2="-1.548" xlink:href="#d"/><linearGradient id="m" x1="3.758" y1="4.857" x2="-1.326" y2="-1.942" xlink:href="#d"/><linearGradient id="n" x1="25.5" y1="7.11" x2="-15.374" y2="-3.778" xlink:href="#d"/><linearGradient id="o" x1="3.806" y1="4.921" x2="-1.278" y2="-1.878" xlink:href="#d"/><linearGradient id="p" x1="3.512" y1="4.527" x2="-1.572" y2="-2.271" xlink:href="#d"/><linearGradient id="q" x1="5.037" y1="4.181" x2="-3.134" y2="-2.618" xlink:href="#d"/><linearGradient id="r" x1="3.266" y1="4.198" x2="-1.819" y2="-2.6" xlink:href="#d"/><linearGradient id="s" x1="2.971" y1="3.804" x2="-2.113" y2="-2.994" xlink:href="#d"/><linearGradient id="t" x1="19.174" y1="5.425" x2="-21.7" y2="-5.464" xlink:href="#d"/><linearGradient id="u" x1="4.785" y1="6.229" x2="-0.3" y2="-0.569" xlink:href="#d"/><linearGradient id="v" x1="2.725" y1="3.475" x2="-2.359" y2="-3.323" xlink:href="#d"/><linearGradient id="w" x1="3.773" y1="3.128" x2="-4.398" y2="-3.67" xlink:href="#d"/><linearGradient id="x" x1="4.538" y1="5.9" x2="-0.546" y2="-0.899" xlink:href="#d"/><linearGradient id="y" x1="4.244" y1="5.506" x2="-0.84" y2="-1.292" xlink:href="#d"/><linearGradient id="z" x1="3.95" y1="5.113" x2="-1.134" y2="-1.685" xlink:href="#d"/><linearGradient id="aa" x1="3.656" y1="4.719" x2="-1.429" y2="-2.079" xlink:href="#d"/><linearGradient id="ab" x1="12.848" y1="3.74" x2="-28.026" y2="-7.149" xlink:href="#d"/><linearGradient id="ac" x1="3.998" y1="5.177" x2="-1.087" y2="-1.621" xlink:href="#d"/><linearGradient id="ad" x1="3.704" y1="4.784" x2="-1.381" y2="-2.015" xlink:href="#d"/><linearGradient id="ae" x1="3.409" y1="4.39" x2="-1.675" y2="-2.408" xlink:href="#d"/><linearGradient id="af" x1="3.809" y1="9.047" x2="-1.275" y2="-3.726" xlink:href="#d"/><linearGradient id="ag" x1="3.515" y1="8.308" x2="-1.57" y2="-4.465" xlink:href="#d"/><linearGradient id="ah" x1="3.22" y1="7.569" x2="-1.864" y2="-5.204" xlink:href="#d"/><linearGradient id="ai" x1="2.926" y1="6.83" x2="-2.158" y2="-5.943" xlink:href="#d"/><linearGradient id="aj" x1="1.749" y1="3.873" x2="-3.335" y2="-8.9" xlink:href="#d"/><linearGradient id="ak" x1="1.455" y1="3.134" x2="-3.629" y2="-9.639" xlink:href="#d"/><linearGradient id="al" x1="4.209" y1="8.838" x2="0.358" y2="-0.043" xlink:href="#d"/><linearGradient id="am" x1="3.919" y1="8.168" x2="0.067" y2="-0.713" xlink:href="#d"/><linearGradient id="an" x1="4.658" y1="7.703" x2="-0.592" y2="-1.178" xlink:href="#d"/><linearGradient id="ao" x1="3.72" y1="4.806" x2="-0.131" y2="-0.344" xlink:href="#d"/><linearGradient id="ap" x1="3.43" y1="4.418" x2="-0.421" y2="-0.732" xlink:href="#d"/><linearGradient id="aq" x1="11.999" y1="5.434" x2="-3.912" y2="-1.506" xlink:href="#d"/><linearGradient id="ar" x1="3.187" y1="4.093" x2="-0.665" y2="-1.057" xlink:href="#d"/><linearGradient id="as" x1="3.868" y1="3.737" x2="-1.382" y2="-1.413" xlink:href="#d"/><linearGradient id="at" x1="16.876" y1="7.82" x2="1.275" y2="0.925" xlink:href="#d"/><linearGradient id="au" x1="4.396" y1="5.709" x2="0.545" y2="0.56" xlink:href="#d"/><linearGradient id="av" x1="4.105" y1="5.321" x2="0.254" y2="0.171" xlink:href="#d"/><linearGradient id="aw" x1="8.79" y1="4.034" x2="-7.122" y2="-2.906" xlink:href="#d"/><linearGradient id="ax" x1="5.348" y1="5.352" x2="0.132" y2="0.202" xlink:href="#d"/><linearGradient id="ay" x1="3.862" y1="4.996" x2="0.011" y2="-0.154" xlink:href="#d"/><linearGradient id="az" x1="3.572" y1="4.607" x2="-0.279" y2="-0.542" xlink:href="#d"/><linearGradient id="ba" x1="13.73" y1="6.43" x2="-1.872" y2="-0.466" xlink:href="#d"/><linearGradient id="bb" x1="3.619" y1="4.671" x2="-0.232" y2="-0.479" xlink:href="#d"/><linearGradient id="bc" x1="3.329" y1="4.282" x2="-0.523" y2="-0.867" xlink:href="#d"/><linearGradient id="bd" x1="1.876" y1="2.34" x2="-1.975" y2="-2.809" xlink:href="#d"/><linearGradient id="be" x1="13.689" y1="35.854" x2="-5.171" y2="-14.583" xlink:href="#d"/><linearGradient id="bf" x1="4.396" y1="4.423" x2="-0.82" y2="-0.909" xlink:href="#d"/><linearGradient id="bg" x1="3.085" y1="4.097" x2="-0.766" y2="-1.235" xlink:href="#d"/><linearGradient id="bh" x1="2.795" y1="3.695" x2="-1.056" y2="-1.637" xlink:href="#d"/><linearGradient id="bi" x1="1.633" y1="2.086" x2="-2.218" y2="-3.245" xlink:href="#d"/><linearGradient id="bj" x1="1.75" y1="1.718" x2="-3.5" y2="-3.613" xlink:href="#d"/><linearGradient id="bk" x1="3.429" y1="8.333" x2="-15.888" y2="-43.325" xlink:href="#d"/><linearGradient id="bl" x1="13.689" y1="35.854" x2="-5.171" y2="-14.583" xlink:href="#d"/><linearGradient id="bm" x1="3.217" y1="15.533" x2="-0.993" y2="-6.988" xlink:href="#d"/><linearGradient id="bn" x1="2.9" y1="13.834" x2="-1.311" y2="-8.686" xlink:href="#d"/><linearGradient id="bo" x1="2.582" y1="12.136" x2="-1.628" y2="-10.385" xlink:href="#d"/><linearGradient id="bp" x1="2.264" y1="10.437" x2="-1.946" y2="-12.083" xlink:href="#d"/><linearGradient id="bq" x1="1.947" y1="8.739" x2="-2.264" y2="-13.782" xlink:href="#d"/><linearGradient id="br" x1="1.629" y1="7.04" x2="-2.581" y2="-15.48" xlink:href="#d"/><linearGradient id="bs" x1="1.312" y1="5.342" x2="-2.899" y2="-17.179" xlink:href="#d"/><linearGradient id="bt" x1="3.429" y1="8.333" x2="-15.887" y2="-43.325" xlink:href="#d"/><linearGradient id="bu" x1="78.642" y1="121.188" x2="7.646" y2="11.537" xlink:href="#d"/><linearGradient id="bv" x1="432.873" y1="669.29" x2="13.184" y2="20.12" xlink:href="#d"/><linearGradient id="bw" x1="36.625" y1="56.276" x2="-0.407" y2="-0.901" xlink:href="#d"/><linearGradient id="bx" x1="55.155" y1="84.887" x2="-4.002" y2="-6.45" xlink:href="#d"/><linearGradient id="by" x1="57.651" y1="88.741" x2="-8.102" y2="-12.782" xlink:href="#d"/><linearGradient id="bz" x1="124.61" y1="192.127" x2="-3.029" y2="-4.949" xlink:href="#d"/><linearGradient id="ca" x1="59.739" y1="91.965" x2="-4.818" y2="-7.711" xlink:href="#d"/><linearGradient id="cb" x1="32.338" y1="49.657" x2="-4.425" y2="-7.104" xlink:href="#d"/><linearGradient id="cc" x1="80.265" y1="123.655" x2="-6.959" y2="-11.017" xlink:href="#d"/><linearGradient id="cd" x1="41.192" y1="63.316" x2="-6.138" y2="-9.747" xlink:href="#d"/><linearGradient id="ce" x1="32.541" y1="49.972" x2="-7.106" y2="-11.243" xlink:href="#d"/><linearGradient id="cf" x1="65.505" y1="100.865" x2="-10.381" y2="-16.3" xlink:href="#d"/><linearGradient id="cg" x1="53.378" y1="82.144" x2="-12.565" y2="-19.672" xlink:href="#d"/><linearGradient id="ch" x1="69.918" y1="107.68" x2="-22.603" y2="-35.171" xlink:href="#d"/><linearGradient id="ci" x1="78.871" y1="121.504" x2="-19.248" y2="-29.99" xlink:href="#d"/><linearGradient id="cj" x1="46.857" y1="72.055" x2="-15.45" y2="-24.12" xlink:href="#d"/><linearGradient id="ck" x1="38.487" y1="59.151" x2="-16.374" y2="-25.554" xlink:href="#d"/><linearGradient id="cl" x1="48.892" y1="75.217" x2="-16.426" y2="-25.634" xlink:href="#d"/><linearGradient id="cm" x1="58.911" y1="90.686" x2="3.398" y2="4.975" xlink:href="#d"/><linearGradient id="cn" x1="98.132" y1="151.243" x2="9.932" y2="15.064" xlink:href="#d"/><linearGradient id="co" x1="135.183" y1="208.45" x2="18.93" y2="28.956" xlink:href="#d"/><linearGradient id="cp" x1="44.373" y1="68.24" x2="6.401" y2="9.611" xlink:href="#d"/><linearGradient id="cq" x1="47.891" y1="73.672" x2="2.717" y2="3.923" xlink:href="#d"/><linearGradient id="cr" x1="40.532" y1="62.296" x2="-8.432" y2="-13.287" xlink:href="#d"/><linearGradient id="cs" x1="78.188" y1="120.452" x2="-17.569" y2="-27.399" xlink:href="#d"/><linearGradient id="ct" x1="39.711" y1="61.028" x2="-11.902" y2="-18.644" xlink:href="#d"/><linearGradient id="cu" x1="58.143" y1="89.501" x2="-23.622" y2="-36.744" xlink:href="#d"/><linearGradient id="cv" x1="26.825" y1="41.147" x2="-8.115" y2="-12.802" xlink:href="#d"/><linearGradient id="cw" x1="33.271" y1="51.098" x2="-13.843" y2="-21.646" xlink:href="#d"/><linearGradient id="cx" x1="28.354" y1="43.507" x2="-18.917" y2="-29.48" xlink:href="#d"/><linearGradient id="cy" x1="26.323" y1="40.371" x2="-13.777" y2="-21.543" xlink:href="#d"/><linearGradient id="cz" x1="28.614" y1="43.907" x2="-15.473" y2="-24.162" xlink:href="#d"/><linearGradient id="da" x1="47.401" y1="72.914" x2="-14.079" y2="-22.011" xlink:href="#d"/><linearGradient id="db" x1="54.013" y1="83.123" x2="-22.233" y2="-34.6" xlink:href="#d"/><linearGradient id="dc" x1="46.543" y1="71.591" x2="-24.608" y2="-38.267" xlink:href="#d"/><linearGradient id="dd" x1="35.194" y1="54.067" x2="-36.647" y2="-56.855" xlink:href="#d"/><linearGradient id="de" x1="30.165" y1="46.314" x2="-25.01" y2="-38.896" xlink:href="#d"/><linearGradient id="df" x1="34.319" y1="52.717" x2="-23.383" y2="-36.375" xlink:href="#d"/><linearGradient id="dg" x1="44.011" y1="67.667" x2="-4.472" y2="-7.175" xlink:href="#d"/><linearGradient id="dh" x1="526.265" y1="812.269" x2="-25.905" y2="-40.269" xlink:href="#d"/><linearGradient id="di" x1="61.534" y1="94.736" x2="0.729" y2="0.854" xlink:href="#d"/><linearGradient id="dj" x1="71.076" y1="109.47" x2="0.544" y2="0.568" xlink:href="#d"/><linearGradient id="dk" x1="65.938" y1="101.571" x2="-12.003" y2="-18.812" xlink:href="#d"/><linearGradient id="dl" x1="31.712" y1="48.701" x2="-16.057" y2="-25.069" xlink:href="#d"/><linearGradient id="dm" x1="28.037" y1="43.026" x2="-17.96" y2="-28.009" xlink:href="#d"/><linearGradient id="dn" x1="37.981" y1="58.372" x2="-38.146" y2="-59.17" xlink:href="#d"/><linearGradient id="do" x1="32.483" y1="49.881" x2="-25.978" y2="-40.382" xlink:href="#d"/><linearGradient id="dp" x1="33.128" y1="50.878" x2="-21.661" y2="-33.716" xlink:href="#d"/><linearGradient id="dq" x1="19.37" y1="29.635" x2="-19.202" y2="-29.92" xlink:href="#d"/><linearGradient id="dr" x1="30.168" y1="46.307" x2="-38.116" y2="-59.123" xlink:href="#d"/><linearGradient id="ds" x1="21.583" y1="33.051" x2="-17.402" y2="-27.14" xlink:href="#d"/><linearGradient id="dt" x1="37.571" y1="57.738" x2="-48.374" y2="-74.961" xlink:href="#d"/><linearGradient id="du" x1="36.311" y1="55.792" x2="-3.732" y2="-6.035" xlink:href="#d"/><linearGradient id="dv" x1="37.642" y1="57.847" x2="-9.493" y2="-14.929" xlink:href="#d"/><linearGradient id="dw" x1="72.952" y1="112.365" x2="-26.281" y2="-40.85" xlink:href="#d"/><linearGradient id="dx" x1="35.138" y1="53.969" x2="-16.148" y2="-25.198" xlink:href="#d"/><linearGradient id="dy" x1="36.195" y1="55.613" x2="-16.903" y2="-26.37" xlink:href="#d"/><linearGradient id="dz" x1="28.513" y1="43.743" x2="-16.851" y2="-26.284" xlink:href="#d"/><linearGradient id="ea" x1="58.949" y1="90.745" x2="-19.751" y2="-30.767" xlink:href="#d"/><linearGradient id="eb" x1="79.102" y1="121.861" x2="-19.469" y2="-30.332" xlink:href="#d"/><linearGradient id="ec" x1="177.023" y1="273.052" x2="-30.895" y2="-47.974" xlink:href="#d"/><linearGradient id="ed" x1="42.979" y1="66.088" x2="-7.241" y2="-11.452" xlink:href="#d"/><linearGradient id="ee" x1="45.564" y1="70.079" x2="-15.371" y2="-24.005" xlink:href="#d"/><linearGradient id="ef" x1="70.775" y1="109.004" x2="-18.053" y2="-28.146" xlink:href="#d"/><linearGradient id="eg" x1="80.043" y1="123.372" x2="-28.435" y2="-44.197" xlink:href="#d"/><linearGradient id="eh" x1="40.927" y1="62.901" x2="-23.556" y2="-36.631" xlink:href="#d"/><linearGradient id="ei" x1="31.015" y1="47.605" x2="-13.75" y2="-21.497" xlink:href="#d"/><linearGradient id="ej" x1="23.978" y1="36.749" x2="-17.507" y2="-27.303" xlink:href="#d"/><linearGradient id="ek" x1="28.453" y1="43.66" x2="-54.35" y2="-84.189" xlink:href="#d"/><linearGradient id="el" x1="31.763" y1="48.754" x2="-39.166" y2="-60.725" xlink:href="#d"/><linearGradient id="em" x1="14.519" y1="22.145" x2="-21.797" y2="-33.926" xlink:href="#d"/><linearGradient id="en" x1="26.069" y1="39.978" x2="-40.709" y2="-63.127" xlink:href="#d"/><linearGradient id="eo" x1="15.132" y1="23.092" x2="-29.456" y2="-45.752" xlink:href="#d"/><linearGradient id="ep" x1="9.745" y1="14.775" x2="-23.683" y2="-36.838" xlink:href="#d"/><linearGradient id="eq" x1="46.637" y1="71.736" x2="-20.735" y2="-32.286" xlink:href="#d"/><linearGradient id="er" x1="26.569" y1="40.75" x2="-14.599" y2="-22.814" xlink:href="#d"/><linearGradient id="es" x1="25.086" y1="38.461" x2="-14.327" y2="-22.393" xlink:href="#d"/><linearGradient id="et" x1="61.479" y1="94.652" x2="-45.677" y2="-70.797" xlink:href="#d"/><linearGradient id="eu" x1="25.227" y1="38.67" x2="-28.208" y2="-43.814" xlink:href="#d"/><linearGradient id="ev" x1="18.585" y1="28.423" x2="-16.363" y2="-25.536" xlink:href="#d"/><linearGradient id="ew" x1="18.097" y1="27.67" x2="-43.432" y2="-67.332" xlink:href="#d"/><linearGradient id="ex" x1="13.709" y1="20.894" x2="-33.513" y2="-52.016" xlink:href="#d"/><linearGradient id="ey" x1="11.286" y1="17.157" x2="-35.996" y2="-55.86" xlink:href="#d"/><linearGradient id="ez" x1="185.716" y1="286.48" x2="-81.075" y2="-125.452" xlink:href="#d"/><linearGradient id="fa" x1="57.125" y1="87.93" x2="-24.81" y2="-38.579" xlink:href="#d"/><linearGradient id="fb" x1="20.919" y1="32.027" x2="-11.168" y2="-17.515" xlink:href="#d"/><linearGradient id="fc" x1="31.246" y1="47.971" x2="-21.902" y2="-34.088" xlink:href="#d"/><linearGradient id="fd" x1="27.357" y1="41.967" x2="-19.322" y2="-30.105" xlink:href="#d"/><linearGradient id="fe" x1="21.749" y1="33.313" x2="-19.065" y2="-29.714" xlink:href="#d"/><linearGradient id="ff" x1="17.686" y1="27.034" x2="-41.752" y2="-64.735" xlink:href="#d"/><linearGradient id="fg" x1="12.925" y1="19.684" x2="-40.801" y2="-63.269" xlink:href="#d"/><linearGradient id="fh" x1="76.138" y1="16.008" x2="5.549" y2="1.535" xlink:href="#d"/><linearGradient id="fi" x1="4.623" y1="8.381" x2="-0.461" y2="-1.562" xlink:href="#d"/><linearGradient id="fj" x1="4.329" y1="7.806" x2="-0.755" y2="-2.137" xlink:href="#d"/><linearGradient id="fk" x1="4.035" y1="7.23" x2="-1.049" y2="-2.713" xlink:href="#d"/><linearGradient id="fl" x1="4.341" y1="6.821" x2="-1.897" y2="-3.122" xlink:href="#d"/><linearGradient id="fm" x1="3.806" y1="4.921" x2="-1.278" y2="-1.878" xlink:href="#d"/><linearGradient id="fn" x1="3.512" y1="4.527" x2="-1.572" y2="-2.271" xlink:href="#d"/><linearGradient id="fo" x1="9.514" y1="5.082" x2="-6.509" y2="-3.236" xlink:href="#d"/><linearGradient id="fp" x1="3.266" y1="4.198" x2="-1.819" y2="-2.6" xlink:href="#d"/><linearGradient id="fq" x1="3.595" y1="3.827" x2="-2.642" y2="-2.971" xlink:href="#d"/><linearGradient id="fr" x1="7.808" y1="6.176" x2="-1.114" y2="-0.622" xlink:href="#d"/><linearGradient id="ft" x1="7.034" y1="3.795" x2="-8.988" y2="-4.523" xlink:href="#d"/><linearGradient id="fu" x1="54.531" y1="9.629" x2="-16.057" y2="-2.256" xlink:href="#d"/><linearGradient id="fv" x1="4.244" y1="5.506" x2="-0.84" y2="-1.292" xlink:href="#d"/><linearGradient id="fw" x1="3.95" y1="5.113" x2="-1.134" y2="-1.685" xlink:href="#d"/><linearGradient id="fy" x1="6.427" y1="5.124" x2="-2.495" y2="-1.675" xlink:href="#d"/><linearGradient id="fz" x1="3.704" y1="4.784" x2="-1.381" y2="-2.015" xlink:href="#d"/><linearGradient id="ga" x1="3.409" y1="4.39" x2="-1.675" y2="-2.408" xlink:href="#d"/><linearGradient id="gb" x1="43.607" y1="7.789" x2="-26.982" y2="-4.096" xlink:href="#d"/><linearGradient id="gc" x1="3.457" y1="4.454" x2="-1.627" y2="-2.344" xlink:href="#d"/><linearGradient id="gd" x1="3.163" y1="4.061" x2="-1.921" y2="-2.738" xlink:href="#d"/><linearGradient id="ge" x1="2.869" y1="3.667" x2="-2.216" y2="-3.131" xlink:href="#d"/><linearGradient id="gf" x1="1.692" y1="2.094" x2="-3.392" y2="-4.705" xlink:href="#d"/><linearGradient id="gg" x1="1.664" y1="1.723" x2="-4.573" y2="-5.075" xlink:href="#d"/><linearGradient id="gh" x1="5.474" y1="9.938" x2="-3.448" y2="-7.232" xlink:href="#d"/><linearGradient id="gi" x1="3.01" y1="9.292" x2="-2.074" y2="-7.878" xlink:href="#d"/><linearGradient id="gj" x1="2.716" y1="8.298" x2="-2.369" y2="-8.872" xlink:href="#d"/><linearGradient id="gk" x1="2.421" y1="7.305" x2="-2.663" y2="-9.866" xlink:href="#d"/><linearGradient id="gl" x1="1.245" y1="3.33" x2="-3.84" y2="-13.84" xlink:href="#d"/><linearGradient id="gm" x1="2.369" y1="3.103" x2="-13.654" y2="-19.216" xlink:href="#d"/><linearGradient id="gn" x1="3.159" y1="5.835" x2="-0.693" y2="-2.175" xlink:href="#d"/><linearGradient id="go" x1="5.031" y1="5.528" x2="-2.633" y2="-2.483" xlink:href="#d"/><linearGradient id="gp" x1="66.793" y1="9.533" x2="-1.307" y2="0.28" xlink:href="#d"/><linearGradient id="gr" x1="181.849" y1="5.754" x2="-165.587" y2="-4.322" xlink:href="#d"/><linearGradient id="gs" x1="6.405" y1="4.94" x2="-0.623" y2="-0.21" xlink:href="#d"/><linearGradient id="gu" x1="53.057" y1="7.666" x2="-15.042" y2="-1.586" xlink:href="#d"/><linearGradient id="gv" x1="3.329" y1="4.282" x2="-0.523" y2="-0.867" xlink:href="#d"/><linearGradient id="gw" x1="1.886" y1="2.341" x2="-1.988" y2="-2.809" xlink:href="#d"/><linearGradient id="gx" x1="4.987" y1="3.901" x2="-2.04" y2="-1.248" xlink:href="#d"/><linearGradient id="gy" x1="2.795" y1="3.569" x2="-1.056" y2="-1.581" xlink:href="#d"/><linearGradient id="gz" x1="1.633" y1="2.015" x2="-2.218" y2="-3.134" xlink:href="#d"/><linearGradient id="ha" x1="2.453" y1="1.688" x2="-5.21" y2="-3.461" xlink:href="#d"/><linearGradient id="hb" x1="39.973" y1="6.834" x2="-28.126" y2="-4.138" xlink:href="#d"/><linearGradient id="hc" x1="2.567" y1="4.681" x2="-1.284" y2="-2.771" xlink:href="#d"/><linearGradient id="hd" x1="2.277" y1="4.119" x2="-1.574" y2="-3.333" xlink:href="#d"/><linearGradient id="he" x1="1.986" y1="3.557" x2="-1.865" y2="-3.895" xlink:href="#d"/><linearGradient id="hf" x1="1.696" y1="2.995" x2="-2.155" y2="-4.457" xlink:href="#d"/><linearGradient id="hg" x1="1.405" y1="2.433" x2="-2.446" y2="-5.019" xlink:href="#d"/><linearGradient id="hh" x1="1.12" y1="1.872" x2="-2.754" y2="-5.58" xlink:href="#d"/><linearGradient id="hi" x1="43.094" y1="1.914" x2="-304.342" y2="-9.617" xlink:href="#d"/><linearGradient id="hj" x1="47.887" y1="73.665" x2="2.717" y2="3.922" xlink:href="#d"/><linearGradient id="hk" x1="40.529" y1="62.305" x2="-8.431" y2="-13.289" xlink:href="#d"/><linearGradient id="hl" x1="39.712" y1="61.043" x2="-11.902" y2="-18.649" xlink:href="#d"/><linearGradient id="hm" x1="58.143" y1="89.501" x2="-23.622" y2="-36.744" xlink:href="#d"/><linearGradient id="hn" x1="28.356" y1="43.509" x2="-18.918" y2="-29.481" xlink:href="#d"/><linearGradient id="ho" x1="26.321" y1="40.367" x2="-13.775" y2="-21.541" xlink:href="#d"/><linearGradient id="hp" x1="47.395" y1="72.906" x2="-14.078" y2="-22.008" xlink:href="#d"/><linearGradient id="hq" x1="54.013" y1="83.123" x2="-22.233" y2="-34.6" xlink:href="#d"/><linearGradient id="hr" x1="46.55" y1="71.601" x2="-24.612" y2="-38.273" xlink:href="#d"/><linearGradient id="hs" x1="30.168" y1="46.308" x2="-25.013" y2="-38.891" xlink:href="#d"/><linearGradient id="ht" x1="65.965" y1="101.55" x2="-12.009" y2="-18.808" xlink:href="#d"/><linearGradient id="hu" x1="31.715" y1="48.696" x2="-16.058" y2="-25.066" xlink:href="#d"/><linearGradient id="hv" x1="28.04" y1="43.029" x2="-17.962" y2="-28.01" xlink:href="#d"/><linearGradient id="hw" x1="37.982" y1="58.371" x2="-38.146" y2="-59.17" xlink:href="#d"/><linearGradient id="hx" x1="32.484" y1="49.873" x2="-25.98" y2="-40.376" xlink:href="#d"/><linearGradient id="hy" x1="33.128" y1="50.877" x2="-21.66" y2="-33.716" xlink:href="#d"/><linearGradient id="hz" x1="19.37" y1="29.635" x2="-19.202" y2="-29.92" xlink:href="#d"/><linearGradient id="ia" x1="30.17" y1="46.299" x2="-38.119" y2="-59.113" xlink:href="#d"/><linearGradient id="ib" x1="21.581" y1="33.049" x2="-17.4" y2="-27.138" xlink:href="#d"/><linearGradient id="ic" x1="36.313" y1="55.788" x2="-3.733" y2="-6.034" xlink:href="#d"/><linearGradient id="id" x1="37.637" y1="57.849" x2="-9.492" y2="-14.93" xlink:href="#d"/><linearGradient id="ie" x1="72.968" y1="112.35" x2="-26.287" y2="-40.844" xlink:href="#d"/><linearGradient id="if" x1="35.134" y1="53.975" x2="-16.146" y2="-25.201" xlink:href="#d"/><linearGradient id="ig" x1="36.195" y1="55.613" x2="-16.903" y2="-26.37" xlink:href="#d"/><linearGradient id="ih" x1="28.511" y1="43.749" x2="-16.85" y2="-26.288" xlink:href="#d"/><linearGradient id="ii" x1="45.561" y1="70.09" x2="-15.37" y2="-24.008" xlink:href="#d"/><linearGradient id="ij" x1="70.791" y1="109.028" x2="-18.057" y2="-28.153" xlink:href="#d"/><linearGradient id="ik" x1="80.054" y1="123.331" x2="-28.439" y2="-44.182" xlink:href="#d"/><linearGradient id="il" x1="40.923" y1="62.927" x2="-23.553" y2="-36.647" xlink:href="#d"/><linearGradient id="im" x1="31.013" y1="47.611" x2="-13.749" y2="-21.5" xlink:href="#d"/><linearGradient id="in" x1="23.977" y1="36.748" x2="-17.507" y2="-27.302" xlink:href="#d"/><linearGradient id="io" x1="28.451" y1="43.656" x2="-54.345" y2="-84.18" xlink:href="#d"/><linearGradient id="ip" x1="31.758" y1="48.762" x2="-39.16" y2="-60.734" xlink:href="#d"/><linearGradient id="iq" x1="14.52" y1="22.147" x2="-21.798" y2="-33.929" xlink:href="#d"/><linearGradient id="ir" x1="26.067" y1="39.986" x2="-40.707" y2="-63.14" xlink:href="#d"/><linearGradient id="is" x1="46.635" y1="71.732" x2="-20.734" y2="-32.285" xlink:href="#d"/><linearGradient id="it" x1="26.566" y1="40.746" x2="-14.598" y2="-22.811" xlink:href="#d"/><linearGradient id="iu" x1="25.086" y1="38.461" x2="-14.327" y2="-22.393" xlink:href="#d"/><linearGradient id="iv" x1="61.458" y1="94.656" x2="-45.661" y2="-70.8" xlink:href="#d"/><linearGradient id="iw" x1="25.222" y1="38.671" x2="-28.202" y2="-43.815" xlink:href="#d"/><linearGradient id="ix" x1="18.586" y1="28.425" x2="-16.364" y2="-25.538" xlink:href="#d"/><linearGradient id="iy" x1="18.097" y1="27.669" x2="-43.431" y2="-67.329" xlink:href="#d"/><linearGradient id="iz" x1="13.709" y1="20.895" x2="-33.515" y2="-52.02" xlink:href="#d"/><linearGradient id="ja" x1="11.288" y1="17.154" x2="-36.002" y2="-55.849" xlink:href="#d"/><linearGradient id="jb" x1="22.171" y1="32.028" x2="-11.931" y2="-17.517" xlink:href="#d"/><linearGradient id="jc" x1="39.901" y1="61.335" x2="-34.434" y2="-53.438" xlink:href="#d"/><linearGradient id="jd" x1="20.325" y1="31.115" x2="-17.301" y2="-26.988" xlink:href="#d"/><linearGradient id="je" x1="31.241" y1="47.964" x2="-21.898" y2="-34.083" xlink:href="#d"/><linearGradient id="jf" x1="27.36" y1="41.965" x2="-19.324" y2="-30.103" xlink:href="#d"/><linearGradient id="jg" x1="21.748" y1="33.307" x2="-19.065" y2="-29.708" xlink:href="#d"/><linearGradient id="jh" x1="22.013" y1="33.715" x2="-29.912" y2="-46.455" xlink:href="#d"/><linearGradient id="ji" x1="20.718" y1="31.717" x2="-28.455" y2="-44.206" xlink:href="#d"/><linearGradient id="jj" x1="17.687" y1="27.036" x2="-41.755" y2="-64.741" xlink:href="#d"/><linearGradient id="jk" x1="12.926" y1="19.685" x2="-40.802" y2="-63.27" xlink:href="#d"/><linearGradient id="jl" x1="58.439" y1="89.99" x2="-40.639" y2="-63.042" xlink:href="#d"/><linearGradient id="jm" x1="19.097" y1="29.214" x2="-20.289" y2="-31.598" xlink:href="#d"/><linearGradient id="jn" x1="41.768" y1="64.218" x2="-46.217" y2="-71.631" xlink:href="#d"/><linearGradient id="jo" x1="24.22" y1="37.123" x2="-42.327" y2="-65.626" xlink:href="#d"/><linearGradient id="jp" x1="13.111" y1="19.971" x2="-39.977" y2="-61.996" xlink:href="#d"/><linearGradient id="jq" x1="17.904" y1="27.372" x2="-77.293" y2="-119.611" xlink:href="#d"/><linearGradient id="jr" x1="9.682" y1="14.677" x2="-41.419" y2="-64.223" xlink:href="#d"/><linearGradient id="js" x1="5.893" y1="8.827" x2="-37.271" y2="-57.819" xlink:href="#d"/></defs><g transform="translate(0 316)"><g transform="translate(-304.87 -171.855)" opacity="0.267"><g transform="translate(304.871 -144.145)"><rect width="1920" height="1396" transform="translate(0 0)" fill="url(#a)"/><g transform="translate(0 0)" clip-path="url(#c)"><g transform="translate(-97.574 -168.146)" style="mix-blend-mode:multiply;isolation:isolate"><g transform="translate(134.425 200.05)"><g transform="translate(970.046)"><path d="M620.859,112.54l-.233-.136L512.608,50.042v-125l.238-.131,108.014-62.368.238.136L729.111-74.96v125l-.233.136ZM513.544,49.5l107.315,61.96L728.175,49.5V-74.417L620.859-136.373,513.544-74.417Z" transform="translate(-512.608 137.459)" fill="url(#d)"/></g><g transform="translate(1185.613)"><path d="M665.322,112.54l-.233-.136L557.071,50.042v-125l.238-.131,108.014-62.368.238.136L773.574-74.96v125l-.232.136ZM558.007,49.5l107.316,61.96L772.638,49.5V-74.417L665.322-136.373,558.007-74.417Z" transform="translate(-557.071 137.459)" fill="url(#e)"/></g><g transform="translate(1401.18)"><path d="M709.785,112.54l-.232-.136L601.534,50.042v-125l.232-.131,108.019-62.368.233.136L818.037-74.96v125l-.233.136ZM602.469,49.5l107.316,61.96L817.1,49.5V-74.417L709.785-136.373,602.469-74.417Z" transform="translate(-601.534 137.459)" fill="url(#f)"/></g><g transform="translate(1616.747)"><path d="M754.248,112.54l-.233-.136L646,50.042v-125l.233-.131,108.019-62.368.232.136L862.495-74.96v125l-.233.136ZM646.933,49.5l107.316,61.96L861.559,49.5V-74.417L754.248-136.373,646.933-74.417Z" transform="translate(-645.997 137.459)" fill="url(#g)"/></g><g transform="translate(1832.311 0.002)"><path d="M825.173,96.178l-26.463,15.277L691.4,49.5V-74.419l107.315-61.957L825.173-121.1v-1.082l-26.228-15.142-.235-.136L690.693-75.1l-.234.135v125L798.476,112.4l.234.135L825.173,97.26Z" transform="translate(-690.459 137.459)" fill="url(#h)"/></g><g transform="translate(0.001 186.686)"><path d="M420.777,151.046l-.233-.136L312.526,88.548v-125l.233-.131L420.777-98.953l.233.136L529.029-36.454v125l-.233.136ZM313.462,88l107.316,61.96L528.093,88V-35.911L420.777-97.867,313.462-35.911Z" transform="translate(-312.526 98.953)" fill="url(#i)"/></g><g transform="translate(1077.832 186.686)"><path d="M643.091,151.046l-.233-.136L534.84,88.548v-125l.233-.131L643.091-98.953l.232.136L751.342-36.454v125l-.232.136ZM535.776,88l107.316,61.96L750.407,88V-35.911L643.091-97.867,535.776-35.911Z" transform="translate(-534.84 98.953)" fill="url(#j)"/></g><g transform="translate(1293.399 186.686)"><path d="M687.554,151.046l-.238-.136L579.3,88.548v-125l.233-.131L687.554-98.953l.233.136L795.806-36.454v125l-.238.136ZM580.238,88l107.316,61.96L794.87,88V-35.911L687.554-97.867,580.238-35.911Z" transform="translate(-579.303 98.953)" fill="url(#k)"/></g><g transform="translate(1508.966 186.686)"><path d="M732.017,151.046l-.238-.136L623.766,88.548v-125l.233-.131L732.017-98.953l.233.136L840.269-36.454v125l-.238.136ZM624.7,88l107.316,61.96L839.333,88V-35.911L732.017-97.867,624.7-35.911Z" transform="translate(-623.766 98.953)" fill="url(#l)"/></g><g transform="translate(1724.533 186.686)"><path d="M776.476,151.046l-.233-.136L668.229,88.548v-125l.232-.131L776.476-98.953l.232.136L884.727-36.454v125l-.232.136ZM669.165,88l107.311,61.96L883.791,88V-35.911L776.476-97.867,669.165-35.911Z" transform="translate(-668.229 98.953)" fill="url(#m)"/></g><g transform="translate(1940.094 233.638)"><path d="M739.621,65.745,713.627,50.737V-73.179l25.994-15.008v-1.082l-26.7,15.413-.234.135v125l26.931,15.548Z" transform="translate(-712.691 89.269)" fill="url(#n)"/></g><g transform="translate(1401.18 373.372)"><path d="M709.785,189.552l-.232-.136L601.534,127.054v-125l.232-.136L709.785-60.447l.233.136L818.037,2.052v125l-.233.136ZM602.469,126.511l107.316,61.956L817.1,126.511V2.595L709.785-59.361,602.469,2.595Z" transform="translate(-601.534 60.447)" fill="url(#o)"/></g><g transform="translate(1616.747 373.372)"><path d="M754.248,189.552l-.233-.136L646,127.054v-125l.233-.136L754.248-60.447l.232.136L862.495,2.052v125l-.233.136ZM646.933,126.511l107.316,61.956,107.311-61.956V2.595L754.248-59.361,646.933,2.595Z" transform="translate(-645.997 60.447)" fill="url(#p)"/></g><g transform="translate(1832.311 373.374)"><path d="M825.173,173.19l-26.463,15.277L691.4,126.51V2.593L798.711-59.364l26.463,15.277v-1.082L798.945-60.311l-.235-.135L690.693,1.917l-.234.135v125l108.017,62.363.234.136,26.463-15.278Z" transform="translate(-690.459 60.447)" fill="url(#q)"/></g><g transform="translate(1508.966 560.059)"><path d="M732.017,228.058l-.238-.136L623.766,165.56v-125l.233-.136L732.017-21.941l.233.136L840.269,40.558v125l-.238.136ZM624.7,165.017l107.316,61.956,107.316-61.956V41.1L732.017-20.855,624.7,41.1Z" transform="translate(-623.766 21.941)" fill="url(#r)"/></g><g transform="translate(1724.533 560.059)"><path d="M776.476,228.058l-.233-.136L668.229,165.56v-125l.232-.136L776.476-21.941l.232.136L884.727,40.558v125l-.232.136ZM669.165,165.017l107.311,61.956,107.315-61.956V41.1L776.476-20.855,669.165,41.1Z" transform="translate(-668.229 21.941)" fill="url(#s)"/></g><g transform="translate(1940.094 607.01)"><path d="M739.621,142.757l-25.994-15.008V3.833l25.994-15.008v-1.082l-26.7,15.413-.234.135v125l26.931,15.548Z" transform="translate(-712.691 12.257)" fill="url(#t)"/></g><g transform="translate(107.782 746.745)"><path d="M443.008,266.564l-.233-.136L334.757,204.066v-125l.238-.136L443.008,16.565l.238.136L551.26,79.064v125l-.237.136ZM335.693,203.523l107.316,61.956,107.316-61.956V79.607L443.008,17.646,335.693,79.607Z" transform="translate(-334.757 -16.565)" fill="url(#u)"/></g><g transform="translate(1616.747 746.745)"><path d="M754.248,266.564l-.233-.136L646,204.066v-125l.233-.136L754.248,16.565l.232.136L862.495,79.064v125l-.233.136ZM646.933,203.523l107.316,61.956,107.311-61.956V79.607L754.248,17.646,646.933,79.607Z" transform="translate(-645.997 -16.565)" fill="url(#v)"/></g><g transform="translate(1832.311 746.746)"><path d="M825.173,250.2l-26.463,15.278L691.4,203.521V79.6L798.711,17.647l26.463,15.278V31.843L798.945,16.7l-.235-.135L690.693,78.929l-.234.135v125l108.017,62.363.234.135,26.463-15.278Z" transform="translate(-690.459 -16.565)" fill="url(#w)"/></g><g transform="translate(0.001 933.431)"><path d="M420.777,305.07l-.233-.136L312.526,242.572v-125l.233-.136L420.777,55.071l.233.136L529.029,117.57v125l-.233.131ZM313.462,242.029l107.316,61.956,107.316-61.956V118.113L420.777,56.152l-107.316,61.96Z" transform="translate(-312.526 -55.071)" fill="url(#x)"/></g><g transform="translate(215.568 933.431)"><path d="M465.235,305.07l-.233-.136L356.989,242.572v-125l.233-.136L465.235,55.071l.233.136L573.487,117.57v125l-.233.131ZM357.925,242.029l107.311,61.956,107.316-61.956V118.113L465.235,56.152l-107.311,61.96Z" transform="translate(-356.989 -55.071)" fill="url(#y)"/></g><g transform="translate(431.13 933.431)"><path d="M509.7,305.07l-.233-.136L401.451,242.572v-125l.233-.136L509.7,55.071l.233.136L617.954,117.57v125l-.233.131ZM402.387,242.029,509.7,303.984l107.316-61.956V118.113L509.7,56.152l-107.316,61.96Z" transform="translate(-401.451 -55.071)" fill="url(#z)"/></g><g transform="translate(646.697 933.431)"><path d="M554.165,305.07l-.233-.136L445.914,242.572v-125l.233-.136L554.165,55.071l.233.136L662.417,117.57v125l-.233.131ZM446.85,242.029l107.316,61.956,107.316-61.956V118.113L554.165,56.152,446.85,118.113Z" transform="translate(-445.914 -55.071)" fill="url(#aa)"/></g><g transform="translate(1940.094 980.382)"><path d="M739.621,219.769l-25.994-15.007V80.844l25.994-15.007V64.755l-26.7,15.413-.234.135v125l26.931,15.548Z" transform="translate(-712.691 -64.755)" fill="url(#ab)"/></g><g transform="translate(107.782 1120.117)"><path d="M443.008,343.571l-.233-.136L334.757,281.073v-125l.238-.136L443.008,93.577l.238.136L551.26,156.076v125l-.237.136ZM335.693,280.535,443.008,342.49l107.316-61.956V156.619L443.008,94.658l-107.316,61.96Z" transform="translate(-334.757 -93.577)" fill="url(#ac)"/></g><g transform="translate(323.349 1120.117)"><path d="M487.471,343.571l-.238-.136L379.22,281.073v-125l.233-.136L487.471,93.577l.233.136,108.019,62.363v125l-.238.136ZM380.156,280.535,487.471,342.49l107.311-61.956V156.619L487.471,94.658l-107.316,61.96Z" transform="translate(-379.22 -93.577)" fill="url(#ad)"/></g><g transform="translate(538.911 1120.117)"><path d="M531.933,343.571l-.233-.136L423.682,281.073v-125l.237-.136L531.933,93.577l.237.136,108.014,62.363v125l-.233.136ZM424.623,280.535,531.933,342.49l107.316-61.956V156.619L531.933,94.658l-107.311,61.96Z" transform="translate(-423.682 -93.577)" fill="url(#ae)"/></g><g transform="translate(0 1306.803)"><path d="M313.462,265.146V195.123l107.316-61.958,107.315,61.958v70.023h.936V194.582L421.01,132.218l-.232-.135L312.76,194.446l-.234.135v70.564Z" transform="translate(-312.526 -132.083)" fill="url(#af)"/></g><g transform="translate(215.567 1306.803)"><path d="M357.925,265.146V195.123l107.311-61.958,107.316,61.958v70.023h.935V194.582L465.471,132.218l-.235-.135L357.222,194.446l-.234.135v70.564Z" transform="translate(-356.989 -132.083)" fill="url(#ag)"/></g><g transform="translate(431.13 1306.803)"><path d="M402.386,265.146V195.123L509.7,133.165l107.316,61.958v70.023h.935V194.582L509.936,132.218l-.234-.135L401.685,194.446l-.234.135v70.564Z" transform="translate(-401.451 -132.083)" fill="url(#ah)"/></g><g transform="translate(646.698 1306.803)"><path d="M446.849,265.146V195.123l107.316-61.958,107.316,61.958v70.023h.935V194.582L554.4,132.218l-.234-.135L446.148,194.446l-.234.135v70.564Z" transform="translate(-445.914 -132.083)" fill="url(#ai)"/></g><g transform="translate(1508.964 1306.803)"><path d="M624.7,265.146V195.123l107.316-61.958,107.315,61.958v70.023h.936V194.582L732.251,132.218l-.233-.135L624,194.446l-.234.135v70.564Z" transform="translate(-623.766 -132.083)" fill="url(#aj)"/></g><g transform="translate(1724.531 1306.803)"><path d="M669.165,265.146V195.123l107.311-61.958,107.316,61.958v70.023h.936V194.582L776.711,132.218l-.235-.135L668.462,194.446l-.234.135v70.564Z" transform="translate(-668.229 -132.083)" fill="url(#ak)"/></g></g><g transform="translate(1329.917)"><path d="M840.051-178.721v106.04L702.02,7.01,563.989-72.682v-106.04h-4.88V-69.865L702.02,12.642l142.91-82.508V-178.721Z" transform="translate(-559.109 178.721)" fill="url(#al)"/></g><g transform="translate(1610.859)"><path d="M898-178.721v106.04L759.968,7.01,621.936-72.682v-106.04h-4.88V-69.865L759.968,12.642l142.91-82.508V-178.721Z" transform="translate(-617.056 178.721)" fill="url(#am)"/></g><g transform="translate(1891.801)"><path d="M679.883-72.682v-106.04H675V-69.865L817.91,12.642,884.651-25.89v-5.633L817.91,7.01Z" transform="translate(-675.003 178.721)" fill="url(#an)"/></g><g transform="translate(1470.386 104.632)"><path d="M730.994,172.894,588.082,90.387V-74.633L730.994-157.14,873.905-74.633V90.387ZM592.964,87.57l138.029,79.7,138.034-79.7V-71.816l-138.034-79.69L592.964-71.816Z" transform="translate(-588.082 157.14)" fill="url(#ao)"/></g><g transform="translate(1751.332 104.632)"><path d="M788.941,172.894,646.03,90.387V-74.633L788.941-157.14,931.848-74.633V90.387ZM650.907,87.57l138.034,79.7,138.024-79.7V-71.816l-138.024-79.69L650.907-71.816Z" transform="translate(-646.03 157.14)" fill="url(#ap)"/></g><g transform="translate(2032.269 147.199)"><path d="M773.156,90.908l-64.3-37.124V-105.6l64.3-37.124v-5.633l-69.18,39.941V56.6l69.18,39.941Z" transform="translate(-703.976 148.36)" fill="url(#aq)"/></g><g transform="translate(1610.859 347.936)"><path d="M759.967,223.078,617.056,140.571V-24.449l142.911-82.507L902.879-24.449V140.571ZM621.938,137.754l138.029,79.69L898,137.754V-21.632l-138.029-79.69L621.938-21.632Z" transform="translate(-617.056 106.956)" fill="url(#ar)"/></g><g transform="translate(1891.801 347.934)"><path d="M884.651,178.914,817.91,217.446,679.883,137.754V-21.632L817.91-101.324l66.741,38.533v-5.633L817.91-106.956,675-24.448V140.57L817.91,223.079l66.741-38.532Z" transform="translate(-675.003 106.956)" fill="url(#as)"/></g><g transform="translate(0 633.008)"><path d="M284.8-48.157v5.633L350.475-4.6V154.782L284.8,192.7v5.633L355.355,157.6V-7.42Z" transform="translate(-284.799 48.157)" fill="url(#at)"/></g><g transform="translate(65.678 591.235)"><path d="M441.257,273.266,298.346,190.759V25.739L441.257-56.773,584.169,25.739V190.759ZM303.223,187.942l138.034,79.69,138.029-79.69V28.556l-138.029-79.7-138.034,79.7Z" transform="translate(-298.346 56.773)" fill="url(#au)"/></g><g transform="translate(346.618 591.235)"><path d="M499.2,273.266,356.293,190.759V25.739L499.2-56.773,642.116,25.739V190.759ZM361.175,187.942,499.2,267.632l138.029-79.69V28.556L499.2-51.139l-138.029,79.7Z" transform="translate(-356.293 56.773)" fill="url(#av)"/></g><g transform="translate(2032.269 633.804)"><path d="M773.156,191.275l-64.3-37.124V-5.236l64.3-37.124v-5.633L703.976-8.052V156.967l69.18,39.941Z" transform="translate(-703.976 47.993)" fill="url(#aw)"/></g><g transform="translate(0 834.539)"><path d="M352.916-6.589,284.8,32.739v5.633L352.916-.957,490.947,78.735V238.122L352.916,317.814,284.8,278.486v5.633l68.117,39.328,142.911-82.508V75.919Z" transform="translate(-284.799 6.589)" fill="url(#ax)"/></g><g transform="translate(206.145 834.539)"><path d="M470.23,323.445,327.319,240.938V75.918L470.23-6.589,613.142,75.918V240.938ZM332.2,238.121l138.029,79.7,138.034-79.7V78.735L470.23-.955,332.2,78.735Z" transform="translate(-327.319 6.589)" fill="url(#ay)"/></g><g transform="translate(487.091 834.539)"><path d="M528.178,323.445,385.267,240.938V75.918L528.178-6.589,671.09,75.918V240.938ZM390.144,238.121l138.034,79.7,138.029-79.7V78.735L528.178-.955,390.144,78.735Z" transform="translate(-385.267 6.589)" fill="url(#az)"/></g><g transform="translate(0 1119.614)"><path d="M284.8,52.211v5.633l65.676,37.919V255.15L284.8,293.069V298.7l70.556-40.736V92.947Z" transform="translate(-284.799 -52.211)" fill="url(#ba)"/></g><g transform="translate(65.678 1077.842)"><path d="M441.257,373.629,298.346,291.122V126.1L441.257,43.595,584.169,126.1V291.122ZM303.223,288.3,441.257,368,579.287,288.3V128.919L441.257,49.229l-138.034,79.69Z" transform="translate(-298.346 -43.595)" fill="url(#bb)"/></g><g transform="translate(346.618 1077.842)"><path d="M499.2,373.629,356.293,291.122V126.1L499.2,43.595,642.116,126.1V291.122ZM361.175,288.3,499.2,368,637.234,288.3V128.919L499.2,49.229l-138.029,79.69Z" transform="translate(-356.293 -43.595)" fill="url(#bc)"/></g><g transform="translate(1751.332 1077.842)"><path d="M788.941,373.629,646.03,291.122V126.1L788.941,43.595,931.848,126.1V291.122ZM650.907,288.3,788.941,368,926.966,288.3V128.919L788.941,49.229l-138.034,79.69Z" transform="translate(-646.03 -43.595)" fill="url(#bd)"/></g><g transform="translate(0 1321.144)"><path d="M284.8,158.211l48.608,28.064h9.755l-58.363-33.7Z" transform="translate(-284.799 132.497)" fill="url(#be)"/><path d="M352.916,93.779,284.8,133.107v5.633l68.117-39.328L490.947,179.1V338.489L362.67,412.55h9.755l123.4-71.244V176.287Z" transform="translate(-284.799 -93.779)" fill="url(#bf)"/></g><g transform="translate(206.148 1321.144)"><path d="M460.477,412.55,332.2,338.489V179.1L470.231,99.411,608.262,179.1V338.489L479.985,412.55h9.755l123.4-71.244V176.287L470.231,93.779,327.319,176.287V341.306l123.4,71.244Z" transform="translate(-327.319 -93.779)" fill="url(#bg)"/></g><g transform="translate(487.09 1321.144)"><path d="M518.425,412.55,390.146,338.489V179.1L528.179,99.411,666.209,179.1V338.489L537.932,412.55h9.755l123.4-71.244V176.287L528.179,93.779,385.267,176.287V341.306l123.4,71.244Z" transform="translate(-385.267 -93.779)" fill="url(#bh)"/></g><g transform="translate(1610.859 1321.144)"><path d="M750.214,412.55,621.936,338.489V179.1L759.968,99.411,898,179.1V338.489L769.722,412.55h9.755l123.4-71.244V176.287L759.968,93.779,617.056,176.287V341.306l123.4,71.244Z" transform="translate(-617.056 -93.779)" fill="url(#bi)"/></g><g transform="translate(1891.801 1321.144)"><path d="M817.91,99.411l66.741,38.532v-5.633L817.91,93.779,675,176.287V341.306L798.4,412.55h9.755L679.883,338.489V179.1Z" transform="translate(-675.003 -93.779)" fill="url(#bj)"/><path d="M763.478,152.742l-56.987,32.9h9.755l47.232-27.268Z" transform="translate(-553.83 133.128)" fill="url(#bk)"/></g><g transform="translate(0 1606.219)"><path d="M284.8,152.578v5.633l48.606,28.064h9.758Z" transform="translate(-284.799 -152.578)" fill="url(#bl)"/></g><g transform="translate(77.869 1564.447)"><path d="M310.617,219.431,431.58,149.595l120.96,69.836H562.3L431.58,143.962,300.86,219.431Z" transform="translate(-300.86 -143.962)" fill="url(#bm)"/></g><g transform="translate(358.811 1564.447)"><path d="M368.565,219.431l120.962-69.836,120.961,69.836h9.757L489.527,143.962l-130.72,75.469Z" transform="translate(-358.808 -143.962)" fill="url(#bn)"/></g><g transform="translate(639.753 1564.447)"><path d="M426.513,219.431l120.962-69.836,120.961,69.836h9.758L547.475,143.962l-130.72,75.469Z" transform="translate(-416.755 -143.962)" fill="url(#bo)"/></g><g transform="translate(920.695 1564.447)"><path d="M484.46,219.431l120.962-69.836,120.961,69.836h9.758L605.422,143.962,474.7,219.431Z" transform="translate(-474.702 -143.962)" fill="url(#bp)"/></g><g transform="translate(1201.638 1564.447)"><path d="M542.407,219.431l120.962-69.836L784.33,219.431h9.758L663.369,143.962,532.65,219.431Z" transform="translate(-532.65 -143.962)" fill="url(#bq)"/></g><g transform="translate(1482.58 1564.447)"><path d="M600.355,219.431l120.962-69.836,120.961,69.836h9.758L721.317,143.962,590.6,219.431Z" transform="translate(-590.597 -143.962)" fill="url(#br)"/></g><g transform="translate(1763.522 1564.447)"><path d="M658.3,219.431l120.962-69.836,120.958,69.836h9.756L779.264,143.962,648.544,219.431Z" transform="translate(-648.544 -143.962)" fill="url(#bs)"/></g><g transform="translate(2044.461 1607.015)"><path d="M763.479,152.742l-56.988,32.9h9.756l47.232-27.269Z" transform="translate(-706.491 -152.742)" fill="url(#bt)"/></g><g transform="translate(125.84 192.167)"><path d="M363.238-72.1a7.753,7.753,0,0,0,7.752-7.752,7.749,7.749,0,0,0-7.752-7.747,7.749,7.749,0,0,0-7.752,7.747A7.753,7.753,0,0,0,363.238-72.1Z" transform="translate(-138.62 337.196)" fill="url(#bu)"/><path d="M491.512-135a1.311,1.311,0,0,0,1.314-1.309,1.311,1.311,0,0,0-1.314-1.309,1.31,1.31,0,0,0-1.309,1.309A1.31,1.31,0,0,0,491.512-135Z" transform="translate(379.803 144.734)" fill="url(#bv)"/><path d="M524.5-127.577a14.863,14.863,0,0,0-14.865,14.86A14.867,14.867,0,0,0,524.5-97.852a14.862,14.862,0,0,0,14.86-14.865A14.858,14.858,0,0,0,524.5-127.577Z" transform="translate(454.597 183.371)" fill="url(#bw)"/><path d="M520.09-82.152a9.3,9.3,0,0,0,9.3-9.3,9.3,9.3,0,0,0-9.3-9.3,9.3,9.3,0,0,0-9.3,9.3A9.3,9.3,0,0,0,520.09-82.152Z" transform="translate(459.011 286.569)" fill="url(#bx)"/><path d="M541.578-70.991a8.372,8.372,0,0,0,8.373-8.373,8.371,8.371,0,0,0-8.373-8.368,8.369,8.369,0,0,0-8.368,8.368A8.37,8.37,0,0,0,541.578-70.991Z" transform="translate(545.304 336.704)" fill="url(#by)"/><circle cx="4.312" cy="4.312" r="4.312" transform="translate(1082.572 4.114)" fill="url(#bz)"/><path d="M563.937-109.219a8.524,8.524,0,0,0,8.523-8.528,8.523,8.523,0,0,0-8.523-8.523,8.524,8.524,0,0,0-8.528,8.523A8.525,8.525,0,0,0,563.937-109.219Z" transform="translate(630.731 188.4)" fill="url(#ca)"/><path d="M569.051-101.929A14.971,14.971,0,0,0,554.08-86.958a14.971,14.971,0,0,0,14.971,14.971,14.974,14.974,0,0,0,14.971-14.971A14.974,14.974,0,0,0,569.051-101.929Z" transform="translate(625.616 282.07)" fill="url(#cb)"/><path d="M584.405-126.028a6.313,6.313,0,0,0,6.312-6.312,6.309,6.309,0,0,0-6.312-6.308,6.3,6.3,0,0,0-6.308,6.308A6.309,6.309,0,0,0,584.405-126.028Z" transform="translate(718.044 140.767)" fill="url(#cc)"/><path d="M610.863-103.649a11.629,11.629,0,0,0,11.626-11.631,11.632,11.632,0,0,0-11.626-11.631,11.634,11.634,0,0,0-11.631,11.631A11.631,11.631,0,0,0,610.863-103.649Z" transform="translate(799.372 185.933)" fill="url(#cd)"/><circle cx="13.882" cy="13.882" r="13.882" transform="translate(1396.351 181.231)" fill="url(#ce)"/><path d="M629.619-124.337a7.254,7.254,0,0,0,7.253-7.253,7.254,7.254,0,0,0-7.253-7.253,7.254,7.254,0,0,0-7.253,7.253A7.254,7.254,0,0,0,629.619-124.337Z" transform="translate(888.397 140.016)" fill="url(#cf)"/><path d="M652.716-109.541a8.349,8.349,0,0,0,8.349-8.349,8.348,8.348,0,0,0-8.349-8.344,8.347,8.347,0,0,0-8.344,8.344A8.348,8.348,0,0,0,652.716-109.541Z" transform="translate(973.082 188.543)" fill="url(#cg)"/><circle cx="5.949" cy="5.949" r="5.949" transform="translate(1619.85 189.164)" fill="url(#ch)"/><path d="M672.777-127.285a5.609,5.609,0,0,0,5.609-5.609,5.609,5.609,0,0,0-5.609-5.609,5.609,5.609,0,0,0-5.609,5.609A5.609,5.609,0,0,0,672.777-127.285Z" transform="translate(1060.806 141.321)" fill="url(#ci)"/><path d="M697.568-108.662A8.833,8.833,0,0,0,706.4-117.5a8.832,8.832,0,0,0-8.833-8.833,8.835,8.835,0,0,0-8.834,8.833A8.836,8.836,0,0,0,697.568-108.662Z" transform="translate(1143.797 188.154)" fill="url(#cj)"/><circle cx="10.032" cy="10.032" r="10.032" transform="translate(1831.333 185.08)" fill="url(#ck)"/><path d="M719.476-122.232a8.425,8.425,0,0,0,8.426-8.426,8.425,8.425,0,0,0-8.426-8.426,8.425,8.425,0,0,0-8.426,8.426A8.425,8.425,0,0,0,719.476-122.232Z" transform="translate(1229.674 139.085)" fill="url(#cl)"/><path d="M342.724-49.545a9.914,9.914,0,0,0-9.915,9.915,9.911,9.911,0,0,0,9.915,9.915,9.914,9.914,0,0,0,9.915-9.915A9.917,9.917,0,0,0,342.724-49.545Z" transform="translate(-225.887 483.656)" fill="url(#cm)"/><circle cx="6.24" cy="6.24" r="6.24" transform="translate(2.811 375.558)" fill="url(#cn)"/><path d="M316.378-77.513a4.737,4.737,0,0,0,4.737-4.737,4.736,4.736,0,0,0-4.737-4.732,4.732,4.732,0,0,0-4.732,4.732A4.733,4.733,0,0,0,316.378-77.513Z" transform="translate(-307.327 339.59)" fill="url(#co)"/><circle cx="14.494" cy="14.494" r="14.494" transform="translate(102.34 180.618)" fill="url(#cp)"/><path d="M366.756-38.481a12.183,12.183,0,0,0,12.183-12.184,12.183,12.183,0,0,0-12.183-12.184,12.183,12.183,0,0,0-12.184,12.184A12.183,12.183,0,0,0,366.756-38.481Z" transform="translate(-142.138 432.463)" fill="url(#cq)"/><path d="M543.856-40.168A11.242,11.242,0,0,0,555.1-51.411a11.242,11.242,0,0,0-11.243-11.243,11.241,11.241,0,0,0-11.238,11.243A11.241,11.241,0,0,0,543.856-40.168Z" transform="translate(543.026 433.21)" fill="url(#cr)"/><path d="M583.959-87.191a5.745,5.745,0,0,0-5.745,5.745,5.746,5.746,0,0,0,5.745,5.75,5.75,5.75,0,0,0,5.75-5.75A5.749,5.749,0,0,0,583.959-87.191Z" transform="translate(718.49 338.785)" fill="url(#cs)"/><path d="M587.861-41.2a10.666,10.666,0,0,0,10.666-10.666,10.666,10.666,0,0,0-10.666-10.666A10.662,10.662,0,0,0,577.2-51.869,10.662,10.662,0,0,0,587.861-41.2Z" transform="translate(714.588 433.668)" fill="url(#ct)"/><circle cx="6.731" cy="6.731" r="6.731" transform="translate(1403.501 437.295)" fill="url(#cu)"/><path d="M636.365-89.255A15.754,15.754,0,0,0,620.613-73.5a15.751,15.751,0,0,0,15.752,15.752A15.751,15.751,0,0,0,652.117-73.5,15.754,15.754,0,0,0,636.365-89.255Z" transform="translate(881.651 330.843)" fill="url(#cv)"/><path d="M677.6-65.051a11.68,11.68,0,0,0,11.68-11.684A11.679,11.679,0,0,0,677.6-88.415a11.684,11.684,0,0,0-11.685,11.679A11.685,11.685,0,0,0,677.6-65.051Z" transform="translate(1055.984 334.075)" fill="url(#cw)"/><path d="M699.8-26.615A11.643,11.643,0,0,0,711.441-38.26,11.642,11.642,0,0,0,699.8-49.9,11.641,11.641,0,0,0,688.155-38.26,11.642,11.642,0,0,0,699.8-26.615Z" transform="translate(1141.569 482.286)" fill="url(#cx)"/><path d="M679.219-35.715a13.726,13.726,0,0,0,13.725-13.725,13.726,13.726,0,0,0-13.725-13.725,13.722,13.722,0,0,0-13.725,13.725A13.722,13.722,0,0,0,679.219-35.715Z" transform="translate(1054.364 431.239)" fill="url(#cy)"/><path d="M722.7-63.613A12.482,12.482,0,0,0,735.181-76.1,12.485,12.485,0,0,0,722.7-88.581,12.482,12.482,0,0,0,710.213-76.1,12.479,12.479,0,0,0,722.7-63.613Z" transform="translate(1226.453 333.436)" fill="url(#cz)"/><path d="M573.226-40.4a8.947,8.947,0,0,0-8.95-8.95,8.951,8.951,0,0,0-8.955,8.95,8.955,8.955,0,0,0,8.955,8.955A8.951,8.951,0,0,0,573.226-40.4Z" transform="translate(630.392 484.422)" fill="url(#da)"/><circle cx="7.219" cy="7.219" r="7.219" transform="translate(1510.797 374.58)" fill="url(#db)"/><path d="M652.231-33.624a7.741,7.741,0,0,0,7.738-7.738,7.737,7.737,0,0,0-7.738-7.733,7.732,7.732,0,0,0-7.733,7.733A7.736,7.736,0,0,0,652.231-33.624Z" transform="translate(973.566 485.388)" fill="url(#dc)"/><circle cx="7.661" cy="7.661" r="7.661" transform="translate(1941.488 623.052)" fill="url(#dd)"/><path d="M698.472-23.886a9.973,9.973,0,0,0-9.973,9.973,9.973,9.973,0,0,0,9.973,9.973,9.977,9.977,0,0,0,9.977-9.973A9.977,9.977,0,0,0,698.472-23.886Z" transform="translate(1142.893 582.398)" fill="url(#de)"/><circle cx="9.538" cy="9.538" r="9.538" transform="translate(1939.61 372.26)" fill="url(#df)"/><path d="M343.867,27.17a11.355,11.355,0,1,0,11.35,11.355A11.354,11.354,0,0,0,343.867,27.17Z" transform="translate(-227.03 778.874)" fill="url(#dg)"/><circle cx="0.997" cy="0.997" r="0.997" transform="translate(8.055 754.173)" fill="url(#dh)"/><circle cx="9.052" cy="9.052" r="9.052" transform="translate(0 621.661)" fill="url(#di)"/><path d="M341.05-23.439a7.807,7.807,0,0,0-7.806,7.806,7.8,7.8,0,0,0,7.806,7.8,7.8,7.8,0,0,0,7.8-7.8A7.806,7.806,0,0,0,341.05-23.439Z" transform="translate(-224.213 584.118)" fill="url(#dj)"/><path d="M377.86,35.115a7.062,7.062,0,1,0,7.059-7.059A7.06,7.06,0,0,0,377.86,35.115Z" transform="translate(-52.52 782.283)" fill="url(#dk)"/><path d="M610.778-24.205a11.522,11.522,0,0,0-11.524,11.519A11.522,11.522,0,0,0,610.778-1.166,11.521,11.521,0,0,0,622.3-12.686,11.521,11.521,0,0,0,610.778-24.205Z" transform="translate(799.457 581.17)" fill="url(#dl)"/><path d="M621.394.5a11.966,11.966,0,1,0,11.965-11.961A11.966,11.966,0,0,0,621.394.5Z" transform="translate(884.657 630.212)" fill="url(#dm)"/><circle cx="7.23" cy="7.23" r="7.23" transform="translate(1618.569 810.169)" fill="url(#dn)"/><circle cx="9.415" cy="9.415" r="9.415" transform="translate(1508.601 745.755)" fill="url(#do)"/><circle cx="10.046" cy="10.046" r="10.046" transform="translate(1615.753 558.439)" fill="url(#dp)"/><circle cx="14.269" cy="14.269" r="14.269" transform="translate(1719.313 740.901)" fill="url(#dq)"/><path d="M696.952,43.97a8.06,8.06,0,1,0-8.058-8.063A8.065,8.065,0,0,0,696.952,43.97Z" transform="translate(1144.413 781.49)" fill="url(#dr)"/><path d="M679.531,16.33A14.118,14.118,0,1,0,665.413,2.212,14.116,14.116,0,0,0,679.531,16.33Z" transform="translate(1054.053 628.5)" fill="url(#ds)"/><circle cx="6.404" cy="6.404" r="6.404" transform="translate(1942.745 748.766)" fill="url(#dt)"/><path d="M367.995,41.331A13.745,13.745,0,1,0,354.25,27.587,13.743,13.743,0,0,0,367.995,41.331Z" transform="translate(-143.377 727.584)" fill="url(#du)"/><path d="M388.583,76.128a11.677,11.677,0,1,0-11.675-11.675A11.675,11.675,0,0,0,388.583,76.128Z" transform="translate(-56.183 877.404)" fill="url(#dv)"/><path d="M433.728,59.585a5.546,5.546,0,1,0-5.546,5.546A5.545,5.545,0,0,0,433.728,59.585Z" transform="translate(119.785 882.272)" fill="url(#dw)"/><path d="M454.531,87.272A10.734,10.734,0,1,0,443.8,76.538,10.732,10.732,0,0,0,454.531,87.272Z" transform="translate(201.222 927.546)" fill="url(#dx)"/><path d="M486.835,63.411a10.366,10.366,0,1,0-10.366,10.366A10.364,10.364,0,0,0,486.835,63.411Z" transform="translate(287.064 878.447)" fill="url(#dy)"/><path d="M500.1,89.785a12.135,12.135,0,1,0-12.13-12.135A12.134,12.134,0,0,0,500.1,89.785Z" transform="translate(371.214 926.434)" fill="url(#dz)"/><circle cx="6.994" cy="6.994" r="6.994" transform="translate(109.841 1183.777)" fill="url(#ea)"/><circle cx="5.584" cy="5.584" r="5.584" transform="translate(3.468 1122.958)" fill="url(#eb)"/><path d="M312.076,70.119a2.647,2.647,0,1,0,2.647-2.647A2.648,2.648,0,0,0,312.076,70.119Z" transform="translate(-305.672 933.965)" fill="url(#ec)"/><circle cx="10.959" cy="10.959" r="10.959" transform="translate(105.875 930.896)" fill="url(#ed)"/><path d="M355.222,100.858a9.032,9.032,0,1,0,9.032-9.032A9.032,9.032,0,0,0,355.222,100.858Z" transform="translate(-139.636 1027.685)" fill="url(#ee)"/><path d="M368.2,72.936a6.2,6.2,0,1,0-6.2,6.2A6.2,6.2,0,0,0,368.2,72.936Z" transform="translate(-137.385 931.148)" fill="url(#ef)"/><path d="M405.577,66.972a5.071,5.071,0,1,0,5.071,5.071A5.074,5.074,0,0,0,405.577,66.972Z" transform="translate(34.608 932.041)" fill="url(#eg)"/><path d="M422.019,113.3a8.535,8.535,0,1,0,8.533-8.538A8.537,8.537,0,0,0,422.019,113.3Z" transform="translate(117.415 1077.47)" fill="url(#eh)"/><path d="M411.307,91.152a12.3,12.3,0,1,0,12.3,12.3A12.3,12.3,0,0,0,411.307,91.152Z" transform="translate(28.878 1025.091)" fill="url(#ei)"/><path d="M501,117.486a13.267,13.267,0,1,0-13.265-13.265A13.266,13.266,0,0,0,501,117.486Z" transform="translate(370.313 1024.322)" fill="url(#ej)"/><path d="M651.369,105.153a6.647,6.647,0,1,0,6.647,6.647A6.648,6.648,0,0,0,651.369,105.153Z" transform="translate(974.428 1078.971)" fill="url(#ek)"/><path d="M652.25,69.106a7.762,7.762,0,1,0-7.757-7.762A7.763,7.763,0,0,0,652.25,69.106Z" transform="translate(973.547 880.513)" fill="url(#el)"/><path d="M680.355,64.892A15.156,15.156,0,1,0,695.51,80.048,15.156,15.156,0,0,0,680.355,64.892Z" transform="translate(1053.229 924.037)" fill="url(#em)"/><path d="M697.1,69.967a8.242,8.242,0,1,0-8.242-8.242A8.241,8.241,0,0,0,697.1,69.967Z" transform="translate(1144.266 880.132)" fill="url(#en)"/><path d="M722.586,90.159a12.344,12.344,0,1,0-12.344-12.344A12.344,12.344,0,0,0,722.586,90.159Z" transform="translate(1226.565 926.269)" fill="url(#eo)"/><path d="M725.856,90.293a16.465,16.465,0,1,0,16.465,16.465A16.462,16.462,0,0,0,725.856,90.293Z" transform="translate(1223.294 1021.786)" fill="url(#ep)"/><path d="M377.631,113.008a8.169,8.169,0,1,0,8.169-8.169A8.17,8.17,0,0,0,377.631,113.008Z" transform="translate(-53.401 1077.762)" fill="url(#eq)"/><path d="M389.926,156.175a13.369,13.369,0,1,0-13.367-13.367A13.369,13.369,0,0,0,389.926,156.175Z" transform="translate(-57.526 1172.421)" fill="url(#er)"/><circle cx="13.964" cy="13.964" r="13.964" transform="translate(641.786 1114.578)" fill="url(#es)"/><circle cx="5.136" cy="5.136" r="5.136" transform="translate(758.397 1185.634)" fill="url(#et)"/><path d="M498.647,163.51a10.3,10.3,0,1,0-10.3-10.3A10.3,10.3,0,0,0,498.647,163.51Z" transform="translate(372.668 1224.249)" fill="url(#eu)"/><circle cx="15.749" cy="15.749" r="15.749" transform="translate(747.785 1299.479)" fill="url(#ev)"/><path d="M662.138,139.3a8.945,8.945,0,1,0-8.945,8.945A8.945,8.945,0,0,0,662.138,139.3Z" transform="translate(972.604 1175.935)" fill="url(#ew)"/><path d="M699.807,127.43a11.655,11.655,0,1,0-11.656-11.655A11.653,11.653,0,0,0,699.807,127.43Z" transform="translate(1141.557 1074.995)" fill="url(#ex)"/><path d="M699.8,129.794a11.638,11.638,0,1,0,11.64,11.641A11.641,11.641,0,0,0,699.8,129.794Z" transform="translate(1141.569 1173.795)" fill="url(#ey)"/><path d="M316.323,146.669a2.063,2.063,0,1,0-2.065,2.061A2.067,2.067,0,0,0,316.323,146.669Z" transform="translate(-305.207 1230.787)" fill="url(#ez)"/><path d="M340.188,130.809a6.717,6.717,0,1,0,6.715,6.72A6.716,6.716,0,0,0,340.188,130.809Z" transform="translate(-223.351 1177.701)" fill="url(#fa)"/><path d="M370.7,141.492a17.153,17.153,0,1,0,17.153,17.153A17.153,17.153,0,0,0,370.7,141.492Z" transform="translate(-146.082 1218.812)" fill="url(#fb)"/><path d="M409.768,142.894a10.356,10.356,0,1,0,10.356,10.356A10.354,10.354,0,0,0,409.768,142.894Z" transform="translate(30.417 1224.207)" fill="url(#fc)"/><path d="M433.138,153.345a11.791,11.791,0,1,0-11.791-11.791A11.792,11.792,0,0,0,433.138,153.345Z" transform="translate(114.829 1173.676)" fill="url(#fd)"/><path d="M470.2,155.732a13.485,13.485,0,1,0-13.483,13.483A13.482,13.482,0,0,0,470.2,155.732Z" transform="translate(199.036 1221.725)" fill="url(#fe)"/><path d="M631.212,161.64a9.26,9.26,0,1,0-9.26-9.26A9.259,9.259,0,0,0,631.212,161.64Z" transform="translate(886.804 1225.077)" fill="url(#ff)"/><path d="M676.456,163.406a10.244,10.244,0,1,0-10.245-10.244A10.244,10.244,0,0,0,676.456,163.406Z" transform="translate(1057.127 1224.295)" fill="url(#fg)"/></g></g><g transform="translate(-97.575 -168.146)" opacity="0.2" style="mix-blend-mode:multiply;isolation:isolate"><g transform="translate(0.001)"><path d="M302.689-178.721V-47.041L284.8-36.712v1.32l18.747-10.823.286-.165V-178.721Z" transform="translate(-284.799 178.721)" fill="url(#fh)"/><g transform="translate(1070.318)"><path d="M768.672-178.721V-47.041L637.689,28.581,506.706-47.041V-178.721h-1.142V-46.381L637.4,29.737l.286.165L769.528-46.215l.287-.165V-178.721Z" transform="translate(-505.564 178.721)" fill="url(#fi)"/></g><g transform="translate(1333.426)"><path d="M822.941-178.721V-47.041L691.959,28.581,560.976-47.041V-178.721h-1.144V-46.381L691.672,29.737l.287.165L823.8-46.215l.285-.165V-178.721Z" transform="translate(-559.832 178.721)" fill="url(#fj)"/></g><g transform="translate(1596.535)"><path d="M877.21-178.721V-47.041L746.227,28.581,615.244-47.041V-178.721H614.1V-46.381l131.84,76.117.286.165,131.84-76.117.285-.165V-178.721Z" transform="translate(-614.101 178.721)" fill="url(#fk)"/></g><g transform="translate(1859.643)"><path d="M669.513-47.041V-178.721H668.37V-46.381L800.205,29.737l.285.165L883.772-18.18V-19.5L800.49,28.581Z" transform="translate(-668.37 178.721)" fill="url(#fl)"/></g><g transform="translate(1464.98 131.35)"><path d="M719.091,153.5l-.286-.165L586.967,77.217V-75.347l.286-.165,131.838-76.117.286.165L851.22-75.347V77.217l-.286.17ZM588.111,76.558l130.98,75.623L850.076,76.558V-74.687L719.091-150.305,588.111-74.687Z" transform="translate(-586.967 151.629)" fill="url(#fm)"/></g><g transform="translate(1728.089 131.35)"><path d="M773.36,153.5l-.286-.165L641.236,77.217V-75.347l.286-.165L773.36-151.629l.286.165L905.479-75.347V77.217l-.281.17ZM642.38,76.558l130.98,75.623L904.34,76.558V-74.687L773.36-150.305,642.38-74.687Z" transform="translate(-641.236 151.629)" fill="url(#fn)"/></g><g transform="translate(1991.193 159.22)"><path d="M779.356,102.189l-82.71-47.752V-96.808l82.71-47.752v-1.321L695.789-97.634l-.285.165V55.1l83.852,48.412Z" transform="translate(-695.504 145.88)" fill="url(#fo)"/></g><g transform="translate(1596.533 359.208)"><path d="M746.23,200.5l-.286-.17L614.1,124.22V-28.349l.286-.165L746.23-104.631l.286.165L878.354-28.349V124.22l-.286.165ZM615.245,123.556,746.23,199.179l130.98-75.623V-27.689L746.23-103.307,615.245-27.689Z" transform="translate(-614.101 104.631)" fill="url(#fp)"/></g><g transform="translate(1859.643 359.208)"><path d="M883.772,151.1,800.49,199.178,669.513,123.557V-27.688L800.49-103.31l83.282,48.081v-1.32l-83-47.918-.286-.165L668.656-28.514l-.286.165V124.217l131.835,76.117.285.165,83.282-48.082Z" transform="translate(-668.37 104.631)" fill="url(#fq)"/></g><g transform="translate(0 587.066)"><path d="M303.546-57.468l-.286-.165L284.8-46.974v1.321L303.26-56.312,434.239,19.31V170.556L303.26,246.177,284.8,235.519v1.321l18.176,10.494.285.165L435.1,171.381l.286-.165V18.649Z" transform="translate(-284.799 57.633)" fill="url(#fr)"/></g><g transform="translate(1728.089 587.065)"><path d="M773.36,247.5l-.286-.165L641.236,171.218V18.649l.286-.165L773.36-57.633l.286.165L905.479,18.649V171.218l-.281.165ZM642.38,170.554l130.98,75.623,130.98-75.623V19.309L773.36-56.309,642.38,19.309Z" transform="translate(-641.236 57.633)" fill="url(#v)"/></g><g transform="translate(1991.193 614.936)"><path d="M779.356,196.186l-82.71-47.752V-2.812l82.71-47.752v-1.321L695.789-3.637l-.285.165V149.094l83.852,48.412Z" transform="translate(-695.504 51.884)" fill="url(#ft)"/></g><g transform="translate(0 880.217)"><path d="M284.8,2.833V4.153l17.889,10.328V165.727L284.8,176.056v1.321l18.747-10.824.286-.165V13.821Z" transform="translate(-284.799 -2.833)" fill="url(#fu)"/></g><g transform="translate(17.889 814.923)"><path d="M420.613,294.5l-.286-.165L288.489,218.216V65.647l.286-.165L420.613-10.635l.286.165L552.737,65.647V218.216l-.286.165Zm-130.98-76.946,130.98,75.623,130.98-75.623V66.311L420.613-9.311,289.633,66.311Z" transform="translate(-288.489 10.635)" fill="url(#fv)"/></g><g transform="translate(280.992 814.923)"><path d="M474.886,294.5l-.286-.165L342.757,218.216V65.647l.286-.165L474.886-10.635l.281.165L607.01,65.647V218.216l-.286.165ZM343.9,217.552l130.985,75.623,130.98-75.623V66.311L474.886-9.311,343.9,66.311Z" transform="translate(-342.757 10.635)" fill="url(#fw)"/></g><g transform="translate(544.102 814.923)"><path d="M529.15,294.5l-.286-.165L397.026,218.216V65.647l.286-.165L529.15-10.635l.286.165L661.279,65.647V218.216l-.286.165ZM398.17,217.552l130.98,75.623,130.985-75.623V66.311L529.15-9.311,398.17,66.311Z" transform="translate(-397.026 10.635)" fill="url(#aa)"/></g><g transform="translate(0 1042.781)"><path d="M303.546,36.528l-.286-.165L284.8,47.022v1.321L303.26,37.684l130.979,75.621V264.551L303.26,340.173,284.8,329.515v1.321l18.176,10.494.285.165L435.1,265.377l.286-.165V112.645Z" transform="translate(-284.799 -36.363)" fill="url(#fy)"/></g><g transform="translate(149.44 1042.78)"><path d="M447.747,341.5l-.286-.165L315.623,265.214V112.645l.286-.165L447.747,36.363l.286.165,131.838,76.117V265.214l-.286.165ZM316.762,264.555l130.985,75.618,130.985-75.618V113.309L447.747,37.687,316.762,113.309Z" transform="translate(-315.623 -36.363)" fill="url(#fz)"/></g><g transform="translate(412.549 1042.78)"><path d="M502.016,341.5l-.286-.165L369.892,265.214V112.645l.286-.165L502.016,36.363l.286.165L634.14,112.645V265.214l-.286.165ZM371.031,264.555l130.985,75.618L633,264.555V113.309L502.016,37.687,371.031,113.309Z" transform="translate(-369.892 -36.363)" fill="url(#ga)"/></g><g transform="translate(0 1335.933)"><path d="M284.8,96.829V98.15l17.889,10.328V259.723L284.8,270.052v1.321l18.747-10.824.286-.165V107.817Z" transform="translate(-284.799 -96.829)" fill="url(#gb)"/></g><g transform="translate(17.889 1270.637)"><path d="M420.613,388.494l-.286-.165L288.489,312.212V159.643l.286-.165L420.613,83.361l.286.17,131.838,76.112V312.212l-.286.165Zm-130.98-76.942,130.98,75.618,130.98-75.618V160.307L420.613,84.685l-130.98,75.623Z" transform="translate(-288.489 -83.361)" fill="url(#gc)"/></g><g transform="translate(280.992 1270.637)"><path d="M474.886,388.494l-.286-.165L342.757,312.212V159.643l.286-.165L474.886,83.361l.281.17L607.01,159.643V312.212l-.286.165ZM343.9,311.553l130.985,75.618,130.98-75.618V160.307L474.886,84.685,343.9,160.307Z" transform="translate(-342.757 -83.361)" fill="url(#gd)"/></g><g transform="translate(544.102 1270.637)"><path d="M529.15,388.494l-.286-.165L397.026,312.212V159.643l.286-.165L529.15,83.361l.286.17,131.843,76.112V312.212l-.286.165ZM398.17,311.553l130.98,75.618,130.985-75.618V160.307L529.15,84.685,398.17,160.307Z" transform="translate(-397.026 -83.361)" fill="url(#ge)"/></g><g transform="translate(1596.533 1270.637)"><path d="M746.23,388.494l-.286-.165L614.1,312.212V159.643l.286-.165L746.23,83.361l.286.17,131.838,76.112V312.212l-.286.165ZM615.245,311.553,746.23,387.171l130.98-75.618V160.307L746.23,84.685,615.245,160.307Z" transform="translate(-614.101 -83.361)" fill="url(#gf)"/></g><g transform="translate(1859.643 1270.639)"><path d="M883.772,339.089,800.49,387.171,669.513,311.549V160.3L800.49,84.683l83.282,48.081v-1.32l-83-47.917-.286-.165L668.656,159.479l-.286.165V312.21l131.835,76.117.285.165,83.282-48.082Z" transform="translate(-668.37 -83.361)" fill="url(#gg)"/></g><g transform="translate(0 1498.497)"><path d="M303.546,130.525l-.286-.165L284.8,141.018v1.321l18.461-10.658L434.239,207.3v43.871h1.142V206.642Z" transform="translate(-284.799 -130.359)" fill="url(#gh)"/></g><g transform="translate(149.44 1498.497)"><path d="M316.765,251.173V207.3l130.983-75.622L578.731,207.3v43.871h1.143V206.642l-131.84-76.117-.286-.165-131.84,76.117-.285.165v44.532Z" transform="translate(-315.623 -130.359)" fill="url(#gi)"/></g><g transform="translate(412.548 1498.497)"><path d="M371.035,251.173V207.3l130.983-75.622L633,207.3v43.871h1.142V206.642L502.3,130.525l-.285-.165-131.84,76.117-.286.165v44.532Z" transform="translate(-369.892 -130.359)" fill="url(#gj)"/></g><g transform="translate(675.657 1498.497)"><path d="M425.3,251.173V207.3l130.983-75.622L687.269,207.3v43.871h1.142V206.642l-131.84-76.117-.285-.165-131.84,76.117-.285.165v44.532Z" transform="translate(-424.161 -130.359)" fill="url(#gk)"/></g><g transform="translate(1728.089 1498.497)"><path d="M642.379,251.173V207.3l130.983-75.622L904.34,207.3v43.871h1.142V206.642L773.647,130.525l-.286-.165-131.84,76.117-.286.165v44.532Z" transform="translate(-641.236 -130.359)" fill="url(#gl)"/></g><g transform="translate(1991.193 1526.367)"><path d="M779.356,136.108l-83.567,48.247-.285.165v44.532h1.142V185.181l82.71-47.752Z" transform="translate(-695.504 -136.108)" fill="url(#gm)"/></g></g><g transform="translate(0.001)"><g transform="translate(1556.831)"><path d="M948.815-178.721v154.81L780.341,73.356,611.868-23.911v-154.81h-5.956V-20.473l174.429,100.7,174.428-100.7V-178.721Z" transform="translate(-605.912 178.721)" fill="url(#gn)"/></g><g transform="translate(1899.733)"><path d="M682.594-23.911v-154.81H676.64V-20.473l174.422,100.7.89-.513V72.843l-.89.513Z" transform="translate(-676.64 178.721)" fill="url(#go)"/></g><g transform="translate(0 242.406)"><path d="M284.8-128.723v6.876l13.773,7.952V80.643L284.8,88.595V95.47l19.729-11.39V-117.332Z" transform="translate(-284.799 128.723)" fill="url(#gp)"/></g><g transform="translate(13.772 153.09)"><path d="M462.07,255.68,287.64,154.973V-46.437L462.07-147.145,636.5-46.437v201.41ZM293.6,151.535l168.471,97.27,168.471-97.27V-43L462.07-140.27,293.6-43Z" transform="translate(-287.64 147.145)" fill="url(#av)"/></g><g transform="translate(2071.178 251.564)"><path d="M715.869-126.834,712-124.6V76.811l3.867,2.233Z" transform="translate(-712.002 126.834)" fill="url(#gr)"/></g><g transform="translate(0 450.053)"><path d="M301.551-85.893,284.8-76.222v6.875l16.751-9.671L470.024,18.249V212.786L301.551,310.054,284.8,300.383v6.874l16.751,9.671,174.428-100.7V14.811Z" transform="translate(-284.799 85.893)" fill="url(#gs)"/></g><g transform="translate(185.225 450.054)"><path d="M497.434,316.928,323,216.225V14.81l174.43-100.7L671.859,14.81V216.225ZM328.957,212.787l168.476,97.265,168.471-97.265V18.247L497.434-79.018,328.957,18.247Z" transform="translate(-323.004 85.893)" fill="url(#az)"/></g><g transform="translate(0 836.328)"><path d="M284.8-6.22V.656l13.773,7.952V203.145L284.8,211.1v6.876l19.729-11.39V5.17Z" transform="translate(-284.799 6.22)" fill="url(#gu)"/></g><g transform="translate(13.772 747.013)"><path d="M462.07,378.179l-174.43-100.7V76.061l174.43-100.7L636.5,76.061V277.476ZM293.6,274.038,462.07,371.3l168.471-97.265V79.5L462.07-17.767,293.6,79.5Z" transform="translate(-287.64 24.642)" fill="url(#gv)"/></g><g transform="translate(1728.283 747.013)"><path d="M988.036,74.858,815.7-24.642,641.276,76.061V277.476L815.7,378.179l172.336-99.5ZM815.7,371.3,647.23,274.038V79.5L815.7-17.767,984.172,79.5v194.54Z" transform="translate(-641.276 24.642)" fill="url(#gw)"/></g><g transform="translate(0 1043.974)"><path d="M301.551,36.609,284.8,46.281v6.875l16.751-9.671,168.474,97.267V335.289L301.551,432.557,284.8,422.885v6.874l16.751,9.671,174.428-100.7V137.314Z" transform="translate(-284.799 -36.609)" fill="url(#gx)"/></g><g transform="translate(185.225 1043.973)"><path d="M497.434,439.434,323,338.727V137.317L497.434,36.609,671.859,137.317v201.41ZM328.957,335.289l168.476,97.27,168.471-97.27V140.754L497.434,43.484l-168.476,97.27Z" transform="translate(-323.004 -36.609)" fill="url(#gy)"/></g><g transform="translate(1556.83 1043.973)"><path d="M780.342,439.434,605.912,338.727V137.317L780.342,36.609l174.43,100.708v201.41ZM611.87,335.289l168.471,97.27,168.471-97.27V140.754L780.342,43.484,611.87,140.754Z" transform="translate(-605.912 -36.609)" fill="url(#gz)"/></g><g transform="translate(1899.733 1043.974)"><path d="M851.951,432.043l-.89.514L682.594,335.289V140.751L851.061,43.484l.89.514V37.123l-.89-.513L676.64,137.314V338.726l174.422,100.7.89-.513Z" transform="translate(-676.64 -36.609)" fill="url(#ha)"/></g><g transform="translate(0 1430.25)"><path d="M284.8,116.283v6.876l13.773,7.952V305.344h5.956V127.673Z" transform="translate(-284.799 -116.283)" fill="url(#hb)"/></g><g transform="translate(13.773 1340.935)"><path d="M293.6,376.236V202l168.473-97.267L630.543,202V376.236H636.5V198.565L462.069,97.861,287.64,198.565V376.236Z" transform="translate(-287.64 -97.861)" fill="url(#hc)"/></g><g transform="translate(356.676 1340.935)"><path d="M364.322,376.236V202L532.8,104.735,701.268,202V376.236h5.955V198.565L532.8,97.861l-174.429,100.7V376.236Z" transform="translate(-358.367 -97.861)" fill="url(#hd)"/></g><g transform="translate(699.577 1340.935)"><path d="M435.049,376.236V202l168.474-97.267L772,202V376.236h5.956V198.565L603.523,97.861l-174.429,100.7V376.236Z" transform="translate(-429.094 -97.861)" fill="url(#he)"/></g><g transform="translate(1042.479 1340.935)"><path d="M505.777,376.236V202L674.25,104.735,842.722,202V376.236h5.957V198.565L674.25,97.861l-174.429,100.7V376.236Z" transform="translate(-499.821 -97.861)" fill="url(#hf)"/></g><g transform="translate(1385.38 1340.935)"><path d="M576.505,376.236V202l168.472-97.267L913.451,202V376.236h5.955V198.565L744.977,97.861l-174.429,100.7V376.236Z" transform="translate(-570.548 -97.861)" fill="url(#hg)"/></g><g transform="translate(1728.282 1340.935)"><path d="M988.039,376.236V197.36L815.7,97.861l-174.428,100.7V376.236h5.955V202L815.7,104.735,984.172,202V376.236Z" transform="translate(-641.276 -97.861)" fill="url(#hh)"/></g><g transform="translate(2071.178 1439.407)"><path d="M715.869,118.172,712,120.4V298.075h3.867Z" transform="translate(-712.002 -118.172)" fill="url(#hi)"/></g></g><g transform="translate(0 115.257)"><path d="M300.413-124.816a14.873,14.873,0,0,0,14.87-14.874,14.869,14.869,0,0,0-14.87-14.87,14.873,14.873,0,0,0-14.874,14.87A14.877,14.877,0,0,0,300.413-124.816Z" transform="translate(-281.951 156.443)" fill="url(#hj)"/><circle cx="13.721" cy="13.721" r="13.721" transform="translate(1057.17 3.033)" fill="url(#hk)"/><path d="M570.279-128.147A13.017,13.017,0,0,0,583.3-141.164a13.016,13.016,0,0,0-13.017-13.013,13.015,13.015,0,0,0-13.013,13.013A13.016,13.016,0,0,0,570.279-128.147Z" transform="translate(763.719 157.917)" fill="url(#hl)"/><circle cx="8.216" cy="8.216" r="8.216" transform="translate(1457.336 84.491)" fill="url(#hm)"/><path d="M706.9-110.338a14.208,14.208,0,0,0,14.21-14.21,14.208,14.208,0,0,0-14.21-14.21,14.209,14.209,0,0,0-14.211,14.21A14.209,14.209,0,0,0,706.9-110.338Z" transform="translate(1284.866 217.253)" fill="url(#hn)"/><circle cx="16.754" cy="16.754" r="16.754" transform="translate(1843.46)" fill="url(#ho)"/><path d="M552.418-127.153a10.927,10.927,0,0,0-10.928-10.928,10.927,10.927,0,0,0-10.928,10.928,10.927,10.927,0,0,0,10.928,10.928A10.927,10.927,0,0,0,552.418-127.153Z" transform="translate(660.955 219.859)" fill="url(#hp)"/><circle cx="8.811" cy="8.811" r="8.811" transform="translate(1588.295 7.943)" fill="url(#hq)"/><circle cx="9.44" cy="9.44" r="9.44" transform="translate(1719.22 83.266)" fill="url(#hr)"/><path d="M705.285-107.006a12.172,12.172,0,0,0-12.174,12.174,12.172,12.172,0,0,0,12.174,12.174,12.173,12.173,0,0,0,12.174-12.174A12.173,12.173,0,0,0,705.285-107.006Z" transform="translate(1286.482 339.443)" fill="url(#hs)"/><path d="M313.964-34.993a8.616,8.616,0,0,0,8.615,8.62,8.616,8.616,0,0,0,8.615-8.62,8.615,8.615,0,0,0-8.615-8.615A8.615,8.615,0,0,0,313.964-34.993Z" transform="translate(-172.565 583.413)" fill="url(#ht)"/><circle cx="14.061" cy="14.061" r="14.061" transform="translate(1451.491 230.551)" fill="url(#hu)"/><path d="M611.207-77.242a14.6,14.6,0,0,0,14.6,14.6,14.6,14.6,0,0,0,14.6-14.6,14.6,14.6,0,0,0-14.6-14.6A14.6,14.6,0,0,0,611.207-77.242Z" transform="translate(971.296 397.805)" fill="url(#hv)"/><circle cx="8.824" cy="8.824" r="8.824" transform="translate(1719.835 539.598)" fill="url(#hw)"/><path d="M623.339-59.867a11.49,11.49,0,0,0-11.49,11.49,11.494,11.494,0,0,0,11.49,11.5,11.494,11.494,0,0,0,11.49-11.5A11.49,11.49,0,0,0,623.339-59.867Z" transform="translate(973.767 520.844)" fill="url(#hx)"/><circle cx="12.261" cy="12.261" r="12.261" transform="translate(1716.398 232.351)" fill="url(#hy)"/><circle cx="17.416" cy="17.416" r="17.416" transform="translate(1842.798 455.054)" fill="url(#hz)"/><path d="M703.43-24.181a9.839,9.839,0,0,0,9.837-9.842,9.838,9.838,0,0,0-9.837-9.837,9.841,9.841,0,0,0-9.837,9.837A9.842,9.842,0,0,0,703.43-24.181Z" transform="translate(1288.337 582.443)" fill="url(#ia)"/><path d="M682.168-57.917A17.234,17.234,0,0,0,699.4-75.152a17.23,17.23,0,0,0-17.231-17.231,17.234,17.234,0,0,0-17.236,17.231A17.238,17.238,0,0,0,682.168-57.917Z" transform="translate(1178.047 395.715)" fill="url(#ib)"/><path d="M301.922-27.4A16.778,16.778,0,0,0,318.7-44.182a16.774,16.774,0,0,0-16.775-16.775,16.774,16.774,0,0,0-16.775,16.775A16.778,16.778,0,0,0,301.922-27.4Z" transform="translate(-283.46 516.65)" fill="url(#ic)"/><path d="M327.055,15.065A14.251,14.251,0,1,0,312.8.816,14.251,14.251,0,0,0,327.055,15.065Z" transform="translate(-177.041 699.514)" fill="url(#id)"/><path d="M382.15-5.127a6.768,6.768,0,0,0-6.768-6.768,6.768,6.768,0,0,0-6.768,6.768,6.769,6.769,0,0,0,6.768,6.773A6.769,6.769,0,0,0,382.15-5.127Z" transform="translate(37.741 705.452)" fill="url(#ie)"/><circle cx="13.1" cy="13.1" r="13.1" transform="translate(531.576 763.18)" fill="url(#if)"/><path d="M446.972-.454a12.649,12.649,0,0,0-12.649-12.654A12.65,12.65,0,0,0,421.669-.454a12.649,12.649,0,0,0,12.654,12.649A12.648,12.648,0,0,0,446.972-.454Z" transform="translate(241.909 700.784)" fill="url(#ig)"/><circle cx="14.809" cy="14.809" r="14.809" transform="translate(792.974 761.471)" fill="url(#ih)"/><path d="M286.333,45.251a11.025,11.025,0,1,0,11.025-11.025A11.023,11.023,0,0,0,286.333,45.251Z" transform="translate(-278.896 882.937)" fill="url(#ii)"/><path d="M302.169,11.171a7.561,7.561,0,1,0-7.558,7.558A7.56,7.56,0,0,0,302.169,11.171Z" transform="translate(-276.148 765.111)" fill="url(#ij)"/><circle cx="6.192" cy="6.192" r="6.192" transform="translate(275.377 770.088)" fill="url(#ik)"/><path d="M367.861,60.436A10.419,10.419,0,1,0,378.28,50.017,10.417,10.417,0,0,0,367.861,60.436Z" transform="translate(34.843 943.704)" fill="url(#il)"/><path d="M354.785,33.4a15.008,15.008,0,1,0,15.01,15.01A15.008,15.008,0,0,0,354.785,33.4Z" transform="translate(-73.219 879.773)" fill="url(#im)"/><circle cx="16.194" cy="16.194" r="16.194" transform="translate(791.59 911.992)" fill="url(#in)"/><path d="M647.791,50.492a8.114,8.114,0,1,0,8.116,8.116A8.112,8.112,0,0,0,647.791,50.492Z" transform="translate(1080.867 945.532)" fill="url(#io)"/><circle cx="9.472" cy="9.472" r="9.472" transform="translate(1719.187 690.855)" fill="url(#ip)"/><circle cx="18.497" cy="18.497" r="18.497" transform="translate(1841.717 757.784)" fill="url(#iq)"/><path d="M703.607,7.542a10.059,10.059,0,0,0,10.06-10.055,10.06,10.06,0,0,0-10.06-10.06,10.06,10.06,0,0,0-10.06,10.06A10.059,10.059,0,0,0,703.607,7.542Z" transform="translate(1288.16 702.843)" fill="url(#ir)"/><circle cx="9.971" cy="9.971" r="9.971" transform="translate(140.043 994.167)" fill="url(#is)"/><path d="M328.694,112.77a16.319,16.319,0,1,0-16.319-16.319A16.319,16.319,0,0,0,328.694,112.77Z" transform="translate(-178.68 1059.594)" fill="url(#it)"/><circle cx="17.044" cy="17.044" r="17.044" transform="translate(527.632 911.142)" fill="url(#iu)"/><path d="M422.985,57.142a6.271,6.271,0,1,0,6.274-6.269A6.271,6.271,0,0,0,422.985,57.142Z" transform="translate(246.973 946.998)" fill="url(#iv)"/><circle cx="12.574" cy="12.574" r="12.574" transform="translate(795.209 1219.422)" fill="url(#iw)"/><path d="M439.532,79.533a19.221,19.221,0,1,0,19.223,19.223A19.221,19.221,0,0,0,439.532,79.533Z" transform="translate(236.695 1057.289)" fill="url(#ix)"/><path d="M660.937,92.164a10.918,10.918,0,1,0-10.918,10.918A10.916,10.916,0,0,0,660.937,92.164Z" transform="translate(1078.639 1063.881)" fill="url(#iy)"/><path d="M706.913,77.681a14.225,14.225,0,1,0-14.225-14.225A14.224,14.224,0,0,0,706.913,77.681Z" transform="translate(1284.854 940.683)" fill="url(#iz)"/><path d="M706.9,80.567A14.208,14.208,0,1,0,721.1,94.777,14.208,14.208,0,0,0,706.9,80.567Z" transform="translate(1284.87 1061.268)" fill="url(#ja)"/><path d="M303.261,94.846A20.847,20.847,0,0,0,284.8,106.1v19.354a20.9,20.9,0,1,0,18.462-30.612Z" transform="translate(-284.799 1116.217)" fill="url(#jb)"/><path d="M322.914,162.372a9.037,9.037,0,1,0-9.037-9.037A9.04,9.04,0,0,0,322.914,162.372Z" transform="translate(-172.9 1306.52)" fill="url(#jc)"/><path d="M357.044,162.516a17.851,17.851,0,1,0-17.851-17.851A17.855,17.855,0,0,0,357.044,162.516Z" transform="translate(-75.478 1239.237)" fill="url(#jd)"/><path d="M352.907,96.556A12.642,12.642,0,1,0,365.552,109.2,12.642,12.642,0,0,0,352.907,96.556Z" transform="translate(-71.341 1122.797)" fill="url(#je)"/><path d="M381.432,109.313a14.392,14.392,0,1,0-14.39-14.39A14.391,14.391,0,0,0,381.432,109.313Z" transform="translate(31.691 1061.121)" fill="url(#jf)"/><path d="M426.669,112.229a16.46,16.46,0,1,0-16.46,16.46A16.46,16.46,0,0,0,426.669,112.229Z" transform="translate(134.466 1119.769)" fill="url(#jg)"/><path d="M434.545,169.368a12.938,12.938,0,1,0-12.935-12.935A12.936,12.936,0,0,0,434.545,169.368Z" transform="translate(241.682 1303.422)" fill="url(#jh)"/><circle cx="13.661" cy="13.661" r="13.661" transform="translate(794.122 1370.24)" fill="url(#ji)"/><path d="M623.189,119.435a11.3,11.3,0,1,0-11.3-11.3A11.3,11.3,0,0,0,623.189,119.435Z" transform="translate(973.917 1123.863)" fill="url(#jj)"/><circle cx="12.503" cy="12.503" r="12.503" transform="translate(1847.71 1219.493)" fill="url(#jk)"/><path d="M293.991,129.1a6.778,6.778,0,1,0,6.778,6.778A6.779,6.779,0,0,0,293.991,129.1Z" transform="translate(-275.529 1248.027)" fill="url(#jl)"/><path d="M383.548,142.644A17.056,17.056,0,1,0,400.6,159.7,17.056,17.056,0,0,0,383.548,142.644Z" transform="translate(29.575 1300.155)" fill="url(#jm)"/><circle cx="7.635" cy="7.635" r="7.635" transform="translate(537.041 1376.266)" fill="url(#jn)"/><circle cx="10.095" cy="10.095" r="10.095" transform="translate(929.243 1449.759)" fill="url(#jo)"/><path d="M624.263,127.886a12.654,12.654,0,1,0,12.654,12.654A12.651,12.651,0,0,0,624.263,127.886Z" transform="translate(972.843 1243.362)" fill="url(#jp)"/><path d="M639.9,151.765a7.057,7.057,0,1,0,7.054-7.059A7.058,7.058,0,0,0,639.9,151.765Z" transform="translate(1081.706 1308.09)" fill="url(#jq)"/><path d="M678.924,127.784a13.146,13.146,0,1,0,13.144,13.148A13.147,13.147,0,0,0,678.924,127.784Z" transform="translate(1181.291 1242.97)" fill="url(#jr)"/><path d="M707.975,142.952a15.563,15.563,0,1,0,15.562,15.563A15.562,15.562,0,0,0,707.975,142.952Z" transform="translate(1283.792 1301.34)" fill="url(#js)"/></g></g></g></g></g><path d="M-414.3-123.079l-.079,958.961,1450.223.03q-9.7-2.306-19.287-4.835-22.043-5.816-43.574-12.54-21.542-6.748-42.612-14.229-29.2-10.391-57.533-21.862Q845,771.175,817.8,759.181c-32.367-14.266-64.305-29.034-94.92-45.063-15.268-7.994-30.284-16.24-44.806-24.9-14.449-8.617-28.529-17.55-41.957-26.935-13.4-9.37-26.3-19.089-38.364-29.3A412.383,412.383,0,0,1,564.91,602.19c-5.505-5.817-10.821-11.716-15.792-17.763-4.886-5.938-9.576-11.958-13.958-18.089-4.886-6.845-9.563-13.784-13.837-20.831-3.58-5.892-7-11.819-10.153-17.827-3.635-6.92-7.054-13.907-10.139-20.954-2.8-6.438-5.45-12.913-7.84-19.433-2.564-7.023-4.942-14.073-7.064-21.159-1.952-6.52-3.77-13.07-5.4-19.637-3.259-13.208-5.97-26.48-8.24-39.8-2.391-13.952-4.382-27.929-6.2-41.92-1.831-14.218-3.517-28.448-5.306-42.675q-1.4-11.274-2.925-22.533c-.894-6.54-1.762-13.079-2.967-19.6.013.059.026.1.043.159-1.11-5.808-2.433-11.585-4.1-17.327-1.5-5.176-3.18-10.325-5.158-15.426-2.122-5.483-4.448-10.936-7.133-16.306-1.323-2.654-2.686-5.308-4.143-7.93q-1.818-3.271-3.75-6.5l.079.139c-2.859-4.7-5.892-9.367-9.193-13.932-3.295-4.535-6.743-9.026-10.483-13.4-3.714-4.36-7.588-8.662-11.731-12.847-1.88-1.9-3.776-3.791-5.741-5.649s-3.966-3.709-6-5.538c.036.048.092.084.134.132-4.516-4.009-9.193-7.941-14.092-11.735-4.932-3.812-10.009-7.532-15.311-11.1-5.342-3.609-10.821-7.123-16.5-10.473-3.124-1.847-6.278-3.664-9.5-5.428q-4.043-2.224-8.188-4.366c.069.027.118.055.187.084-7.854-4.034-15.9-7.894-24.189-11.475q-13.21-5.69-26.957-10.723-14.61-5.342-29.629-10.111c-5.371-1.69-10.768-3.359-16.2-4.953-4.647-1.374-9.324-2.718-14-4.034-15.563-4.341-31.273-8.414-47.062-12.326-15.884-3.934-31.8-7.746-47.714-11.626C98.875,52.407,78.986,47.481,59.4,42.046c-9.5-2.633-19.38-3.838-28.73-6.733h0C-20.215,15.185-189.141,21.94-278.239-51.332c-73.014-60.045-81.429-193.059-81.334-193.7.141-1.03-54.9,1.026-54.727,0Z" transform="translate(414.379 244.079)" fill="#005b85"/><path d="M1162.011-156.757c-5.231,0-10.406.417-15.217.869-2.523.236-5.041.524-7.557.815-4.182.475-8.5.973-12.759,1.206l.02,0c-1.029.039-2.061.052-3.092.052l-2.529-.016-1.728-.013-6.414-.055-6.416-.052q-12.337-.116-24.667-.265-24.667-.291-49.336-.724-24.667-.417-49.325-.9l-2.224-.042c-7.41-.146-14.819-.291-22.225-.33l-2.5,0c-6.573,0-13.7.084-21.791.259-26.352.575-53.125,2.146-79.019,3.665q-8.964.524-17.932,1.038-3.787.228-7.582.43l-3.652.2c-.239.013-.357.013-.473.013-.511.039-.993.065-1.476.081q-6.339.335-12.676.643c-18.027.85-33.948,1.332-48.669,1.477q-3.858.039-7.713.039c-17.141,0-33-.527-48.488-1.606h-.011a1.784,1.784,0,0,0-1.648,1.16,1.754,1.754,0,0,0-1.212.989,3.162,3.162,0,0,0-.359,1.787,219.106,219.106,0,0,0,3.992,25.427,213.488,213.488,0,0,0,7.055,24.839,230.528,230.528,0,0,0,21.285,44.911A211.619,211.619,0,0,0,763.9-14.212,173.672,173.672,0,0,0,779.48.013,120.437,120.437,0,0,0,796.7,11.736c11.748,6.49,24.18,9.082,35.91,11.183l3.422.608c4.74.837,9.642,1.7,14.442,2.767a94.3,94.3,0,0,1,17.746,5.521,63.762,63.762,0,0,1,8.4,4.706,67.048,67.048,0,0,1,8.238,6.535,99.158,99.158,0,0,1,10.279,11.4,160.215,160.215,0,0,1,9.522,13.814l-.275-.533c4.166,6.8,8.171,14,11.6,20.227l2.132,3.892c3.3,6.009,6.7,12.227,10.149,18.22a363.421,363.421,0,0,0,27.975,42.37,185.583,185.583,0,0,0,33.351,33.6,122.586,122.586,0,0,0,36.437,19.328,104.158,104.158,0,0,0,32.322,5.016q2.375,0,4.744-.1a121.868,121.868,0,0,0,36.747-7.767,165.406,165.406,0,0,0,35.773-18.879,234.582,234.582,0,0,0,33.246-27.913,301.558,301.558,0,0,0,26.292-30.272,3.11,3.11,0,0,0,.737-1.681l.167-.427.014.026a3.239,3.239,0,0,0,.638-1.736c3.092-22.712,3.983-45.5,4.443-64.782.183-7.589.279-15.185.373-22.787q.066-5.12.138-10.239.2-13.333.5-26.659l.185-8.856c.44-22.557.833-46.621.344-71.017q-.063-3.311-.109-6.632c-.185-12.505-.378-25.44-2.543-37.765a56.634,56.634,0,0,0-3.963-13.772,26.324,26.324,0,0,0-2.963-5.042,22,22,0,0,0-3.666-3.723,26.792,26.792,0,0,0-8.472-4.512,48.2,48.2,0,0,0-10.823-2.227c-2.6-.255-5.34-.385-8.14-.385M739.489-52.316l-.058-.061-.1-.259c.33.549.668,1.1,1.007,1.645-.243-.381-.489-.763-.728-1.144l-.016.023.016-.023c-.031-.048-.06-.094-.089-.142l0-.01-.007-.006-.051-.081Z" transform="translate(746.891 141.075)" fill="#25bcd7" opacity="0.5"/></g></svg>