<svg xmlns="http://www.w3.org/2000/svg" width="1450.223" height="1081.241" viewBox="0 0 1450.223 1081.241"><path d="M-414.3-123.079l-.079,958.961,1450.223.03q-9.7-2.306-19.287-4.835-22.043-5.816-43.574-12.54-21.542-6.748-42.612-14.229-29.2-10.391-57.533-21.862Q845,771.175,817.8,759.181c-32.367-14.266-64.305-29.034-94.92-45.063-15.268-7.994-30.284-16.24-44.806-24.9-14.449-8.617-28.529-17.55-41.957-26.935-13.4-9.37-26.3-19.089-38.364-29.3A412.383,412.383,0,0,1,564.91,602.19c-5.505-5.817-10.821-11.716-15.792-17.763-4.886-5.938-9.576-11.958-13.958-18.089-4.886-6.845-9.563-13.784-13.837-20.831-3.58-5.892-7-11.819-10.153-17.827-3.635-6.92-7.054-13.907-10.139-20.954-2.8-6.438-5.45-12.913-7.84-19.433-2.564-7.023-4.942-14.073-7.064-21.159-1.952-6.52-3.77-13.07-5.4-19.637-3.259-13.208-5.97-26.48-8.24-39.8-2.391-13.952-4.382-27.929-6.2-41.92-1.831-14.218-3.517-28.448-5.306-42.675q-1.4-11.274-2.925-22.533c-.894-6.54-1.762-13.079-2.967-19.6.013.059.026.1.043.159-1.11-5.808-2.433-11.585-4.1-17.327-1.5-5.176-3.18-10.325-5.158-15.426-2.122-5.483-4.448-10.936-7.133-16.306-1.323-2.654-2.686-5.308-4.143-7.93q-1.818-3.271-3.75-6.5l.079.139c-2.859-4.7-5.892-9.367-9.193-13.932-3.295-4.535-6.743-9.026-10.483-13.4-3.714-4.36-7.588-8.662-11.731-12.847-1.88-1.9-3.776-3.791-5.741-5.649s-3.966-3.709-6-5.538c.036.048.092.084.134.132-4.516-4.009-9.193-7.941-14.092-11.735-4.932-3.812-10.009-7.532-15.311-11.1-5.342-3.609-10.821-7.123-16.5-10.473-3.124-1.847-6.278-3.664-9.5-5.428q-4.043-2.224-8.188-4.366c.069.027.118.055.187.084-7.854-4.034-15.9-7.894-24.189-11.475q-13.21-5.69-26.957-10.723-14.61-5.342-29.629-10.111c-5.371-1.69-10.768-3.359-16.2-4.953-4.647-1.374-9.324-2.718-14-4.034-15.563-4.341-31.273-8.414-47.062-12.326-15.884-3.934-31.8-7.746-47.714-11.626C98.875,52.407,78.986,47.481,59.4,42.046c-9.5-2.633-19.38-3.838-28.73-6.733h0C-20.215,15.185-189.141,21.94-278.239-51.332c-73.014-60.045-81.429-193.059-81.334-193.7.141-1.03-54.9,1.026-54.727,0Z" transform="translate(414.379 245.33)" fill="#005b85"/></svg>