<svg xmlns="http://www.w3.org/2000/svg" width="499.583" height="367.145" viewBox="0 0 499.583 367.145"><path d="M1162.011-156.757c-5.231,0-10.406.417-15.217.869-2.523.236-5.041.524-7.557.815-4.182.475-8.5.973-12.759,1.206l.02,0c-1.029.039-2.061.052-3.092.052l-2.529-.016-1.728-.013-6.414-.055-6.416-.052q-12.337-.116-24.667-.265-24.667-.291-49.336-.724-24.667-.417-49.325-.9l-2.224-.042c-7.41-.146-14.819-.291-22.225-.33l-2.5,0c-6.573,0-13.7.084-21.791.259-26.352.575-53.125,2.146-79.019,3.665q-8.964.524-17.932,1.038-3.787.228-7.582.43l-3.652.2c-.239.013-.357.013-.473.013-.511.039-.993.065-1.476.081q-6.339.335-12.676.643c-18.027.85-33.948,1.332-48.669,1.477q-3.858.039-7.713.039c-17.141,0-33-.527-48.488-1.606h-.011a1.784,1.784,0,0,0-1.648,1.16,1.754,1.754,0,0,0-1.212.989,3.162,3.162,0,0,0-.359,1.787,219.106,219.106,0,0,0,3.992,25.427,213.488,213.488,0,0,0,7.055,24.839,230.528,230.528,0,0,0,21.285,44.911A211.619,211.619,0,0,0,763.9-14.212,173.672,173.672,0,0,0,779.48.013,120.437,120.437,0,0,0,796.7,11.736c11.748,6.49,24.18,9.082,35.91,11.183l3.422.608c4.74.837,9.642,1.7,14.442,2.767a94.3,94.3,0,0,1,17.746,5.521,63.762,63.762,0,0,1,8.4,4.706,67.048,67.048,0,0,1,8.238,6.535,99.158,99.158,0,0,1,10.279,11.4,160.215,160.215,0,0,1,9.522,13.814l-.275-.533c4.166,6.8,8.171,14,11.6,20.227l2.132,3.892c3.3,6.009,6.7,12.227,10.149,18.22a363.421,363.421,0,0,0,27.975,42.37,185.583,185.583,0,0,0,33.351,33.6,122.586,122.586,0,0,0,36.437,19.328,104.158,104.158,0,0,0,32.322,5.016q2.375,0,4.744-.1a121.868,121.868,0,0,0,36.747-7.767,165.406,165.406,0,0,0,35.773-18.879,234.582,234.582,0,0,0,33.246-27.913,301.558,301.558,0,0,0,26.292-30.272,3.11,3.11,0,0,0,.737-1.681l.167-.427.014.026a3.239,3.239,0,0,0,.638-1.736c3.092-22.712,3.983-45.5,4.443-64.782.183-7.589.279-15.185.373-22.787q.066-5.12.138-10.239.2-13.333.5-26.659l.185-8.856c.44-22.557.833-46.621.344-71.017q-.063-3.311-.109-6.632c-.185-12.505-.378-25.44-2.543-37.765a56.634,56.634,0,0,0-3.963-13.772,26.324,26.324,0,0,0-2.963-5.042,22,22,0,0,0-3.666-3.723,26.792,26.792,0,0,0-8.472-4.512,48.2,48.2,0,0,0-10.823-2.227c-2.6-.255-5.34-.385-8.14-.385M739.489-52.316l-.058-.061-.1-.259c.33.549.668,1.1,1.007,1.645-.243-.381-.489-.763-.728-1.144l-.016.023.016-.023c-.031-.048-.06-.094-.089-.142l0-.01-.007-.006-.051-.081Z" transform="translate(-703.332 156.757)" fill="#25bcd7" opacity="0.5"/></svg>