<svg xmlns="http://www.w3.org/2000/svg" width="84" height="69.73" viewBox="0 0 84 69.73"><g transform="translate(0 -43.488)"><g transform="translate(0 51.534)"><path d="M19.612,92.529V145.5H0v-3.352Z" transform="translate(0 -92.529)" fill="#005b85"/></g><path d="M173.656,99.879V87.609l24.473-24.545V49.02H186.9V43.488h-5.029V49.02h-5.532V43.488h-5.029V49.02h-5.532V43.488h-5.029V49.02h-10.56v64.2h47.94V87.142l-12.7,12.737ZM159.408,62.932h16.93v5.029h-16.93Zm10.728,15.086H159.408V72.989h10.728Z" transform="translate(-125.549)" fill="#005b85"/><path d="M342.368,212.026l-18.492,18.549v5.163h4.655l18.747-18.8Z" transform="translate(-270.74 -140.887)" fill="#005b85"/><path d="M467.059,171.267l-3.911,3.922-4.91-4.91,3.921-3.932Z" transform="translate(-383.059 -102.702)" fill="#005b85"/></g></svg>