<svg xmlns="http://www.w3.org/2000/svg" width="64.336" height="64.336" viewBox="0 0 64.336 64.336"><g transform="translate(-0.001)"><g transform="translate(0.001)"><g transform="translate(16.799 5.655)"><path d="M156.724,45a18.848,18.848,0,1,0,18.848,18.848A18.871,18.871,0,0,0,156.724,45ZM139.4,78.509l-5.158,5.156a1.885,1.885,0,0,0,2.665,2.665l5.158-5.156a1.885,1.885,0,0,0-2.665-2.665Z" transform="translate(-133.69 -45)" fill="#005b86"/></g><path d="M39.834,0a24.5,24.5,0,1,0,24.5,24.5A24.55,24.55,0,0,0,39.834,0Zm-8.1,28.838a1.866,1.866,0,0,1-2.639,2.639l-5.655-5.655a1.822,1.822,0,0,1,0-2.639l5.655-5.655a1.866,1.866,0,0,1,2.639,2.639l-4.3,4.335ZM45.375,13.8,37.836,36.415a1.871,1.871,0,1,1-3.543-1.206l7.539-22.618A1.871,1.871,0,0,1,45.375,13.8ZM56.232,25.822l-5.655,5.655a1.866,1.866,0,0,1-2.639-2.639l4.3-4.335-4.3-4.335a1.866,1.866,0,0,1,2.639-2.639l5.655,5.655A1.822,1.822,0,0,1,56.232,25.822ZM17.352,41.654a1.884,1.884,0,0,0-2.665,0L.553,55.788a1.884,1.884,0,0,0,0,2.665l5.331,5.331a1.884,1.884,0,0,0,2.665,0L22.682,49.65a1.884,1.884,0,0,0,0-2.665Z" transform="translate(-0.001)" fill="#005b86"/></g><path d="M382.323,141.65a5.371,5.371,0,0,0-5.366,5.366v2.676a5.366,5.366,0,1,0,10.731,0v-2.676A5.371,5.371,0,0,0,382.323,141.65Zm2.664,8.042a2.676,2.676,0,0,1-5.353,0v-2.676a2.676,2.676,0,0,1,5.353,0Z" transform="translate(-329.589 -123.851)" fill="#fff"/><path d="M190.274,144.426c1.583,0,2.626.754,2.689,1.294a1.323,1.323,0,0,0,1.458,1.206,1.337,1.337,0,0,0,1.206-1.458c-.2-2.124-2.5-3.719-5.353-3.719-3,0-5.366,1.772-5.366,4.021,0,2.086,1.659,3.43,4.951,3.958l.4.063c2.224.364,2.689.93,2.689,1.332,0,.528-1.068,1.345-2.689,1.345-1.583,0-2.626-.754-2.689-1.294a1.338,1.338,0,0,0-2.664.251c.2,2.124,2.5,3.719,5.353,3.719,3,0,5.366-1.772,5.366-4.021,0-2.1-1.659-3.43-4.938-3.971l-.4-.063c-2.35-.39-2.7-.993-2.7-1.319C187.585,145.243,188.653,144.426,190.274,144.426Z" transform="translate(-161.667 -123.938)" fill="#fff"/><path d="M299.7,144.339a1.345,1.345,0,0,0,0-2.689H293a1.346,1.346,0,0,0-1.345,1.345v10.718a1.327,1.327,0,0,0,1.332,1.345h6.7a1.345,1.345,0,0,0,0-2.689h-5.353v-2.676h4.021a1.345,1.345,0,0,0,0-2.689h-4.021v-2.664Z" transform="translate(-255.008 -123.851)" fill="#fff"/></g></svg>