<svg xmlns="http://www.w3.org/2000/svg" width="55.226" height="69.73" viewBox="0 0 55.226 69.73"><g transform="translate(-31)"><path d="M316,390h11.045v3.682H316Z" transform="translate(-250.023 -336.558)"/><g transform="translate(31)"><path d="M84.385,0H32.841A1.95,1.95,0,0,0,31,2.043V67.688a1.95,1.95,0,0,0,1.841,2.043H84.385a1.95,1.95,0,0,0,1.841-2.043V2.043A1.95,1.95,0,0,0,84.385,0ZM53.09,61.287H38.364a2.054,2.054,0,0,1,0-4.086H53.09a2.054,2.054,0,0,1,0,4.086Zm0-8.172H38.364a2.054,2.054,0,0,1,0-4.086H53.09a2.054,2.054,0,0,1,0,4.086Zm0-8.172H38.364a2.054,2.054,0,0,1,0-4.086H53.09a2.054,2.054,0,0,1,0,4.086Zm0-8.172H38.364a2.054,2.054,0,0,1,0-4.086H53.09a2.054,2.054,0,0,1,0,4.086Zm1.841-10.214A1.95,1.95,0,0,1,53.09,28.6H38.364a1.95,1.95,0,0,1-1.841-2.043V10.214a1.95,1.95,0,0,1,1.841-2.043H53.09a1.95,1.95,0,0,1,1.841,2.043Zm7.36-16.343a1.95,1.95,0,0,1,1.841-2.043H78.859A1.95,1.95,0,0,1,80.7,10.214V26.558A1.95,1.95,0,0,1,78.859,28.6H64.132a1.95,1.95,0,0,1-1.841-2.043ZM80.7,59.244a1.95,1.95,0,0,1-1.841,2.043H64.136a1.95,1.95,0,0,1-1.841-2.043V51.072a1.95,1.95,0,0,1,1.841-2.043H78.863A1.95,1.95,0,0,1,80.7,51.072Zm-1.841-14.3H64.136a2.054,2.054,0,0,1,0-4.086H78.863a2.054,2.054,0,0,1,0,4.086Zm0-8.172H64.136a2.054,2.054,0,0,1,0-4.086H78.863a2.054,2.054,0,0,1,0,4.086Z" transform="translate(-31)" fill="#005b85"/><path d="M106,90h11.045v11.045H106Z" transform="translate(-96.796 -77.484)" fill="#005b85"/><path d="M315.969,90h11.045v11.045H315.969Z" transform="translate(-280.996 -77.484)" fill="#005b85"/></g></g></svg>