<svg xmlns="http://www.w3.org/2000/svg" width="809.899" height="529.46" viewBox="0 0 809.899 529.46"><g transform="translate(-2.823 -29.835)"><g transform="translate(23.355 90.582)"><g transform="translate(0.335 0.335)"><rect width="186.951" height="125.175" fill="#fff"/></g><path d="M211.109,204.832s-.02-.783-.029-2.277-.017-3.716-.029-6.6c-.016-5.794-.039-14.294-.069-25.176-.033-21.747-.081-53.008-.14-91.118l.268.268-186.936.068h-.015l.335-.335c-.01,44.594-.02,87-.028,125.175l-.307-.307,134.686.151,38.48.082,10.235.037,2.643.018c.6.006.907.018.907.018s-.288.012-.872.018l-2.609.017-10.174.038-38.41.082-134.887.151h-.307v-.307c-.009-38.175-.018-80.581-.028-125.175v-.335h.35l186.936.066h.268v.268c-.059,38.18-.107,69.5-.141,91.285-.029,10.856-.052,19.335-.068,25.116-.014,2.866-.023,5.061-.031,6.554C211.128,204.088,211.109,204.832,211.109,204.832Z" transform="translate(-23.823 -79.322)" fill="#e0e0e0"/><g transform="translate(0.335 11.171)"><path d="M24.1,88.757c0-.185,41.819-.335,93.394-.335,51.592,0,93.4.15,93.4.335s-41.81.335-93.4.335C65.915,89.092,24.1,88.941,24.1,88.757Z" transform="translate(-24.096 -88.422)" fill="#e0e0e0"/></g><g transform="translate(4.714 4.371)"><g opacity="0.3"><path d="M30.659,84.382a1.5,1.5,0,1,1-1.5-1.5A1.5,1.5,0,0,1,30.659,84.382Z" transform="translate(-27.663 -82.883)" fill="#e0e0e0"/></g><g transform="translate(5.135)" opacity="0.3"><path d="M34.842,84.382a1.5,1.5,0,1,1-1.5-1.5A1.5,1.5,0,0,1,34.842,84.382Z" transform="translate(-31.846 -82.883)" fill="#e0e0e0"/></g><g transform="translate(10.195)" opacity="0.3"><path d="M38.964,84.382a1.5,1.5,0,1,1-1.5-1.5A1.5,1.5,0,0,1,38.964,84.382Z" transform="translate(-35.968 -82.883)" fill="#e0e0e0"/></g></g><g transform="translate(16.407 24.559)"><rect width="49.869" height="49.869" fill="#e0e0e0"/></g><g transform="translate(74.772 38.32)"><path d="M171.612,110.874c0,.184-19.45.335-43.437.335s-43.44-.151-43.44-.335,19.445-.335,43.44-.335S171.612,110.689,171.612,110.874Z" transform="translate(-84.735 -110.539)" fill="#e0e0e0"/></g><g transform="translate(74.772 47.587)"><path d="M171.612,118.423c0,.185-19.45.335-43.437.335s-43.44-.15-43.44-.335,19.445-.335,43.44-.335S171.612,118.238,171.612,118.423Z" transform="translate(-84.735 -118.088)" fill="#e0e0e0"/></g><g transform="translate(74.772 56.854)"><path d="M171.612,125.972c0,.185-19.45.335-43.437.335s-43.44-.15-43.44-.335,19.445-.335,43.44-.335S171.612,125.787,171.612,125.972Z" transform="translate(-84.735 -125.637)" fill="#e0e0e0"/></g><g transform="translate(74.772 66.122)"><path d="M136.081,133.521a11.619,11.619,0,0,1-2.018.131l-5.5.107c-4.646.06-11.064.1-18.152.1s-13.509-.038-18.155-.1l-5.5-.107a11.594,11.594,0,0,1-2.017-.131,11.851,11.851,0,0,1,2.017-.13l5.5-.106c4.646-.061,11.064-.1,18.155-.1s13.505.037,18.152.1l5.5.106A11.877,11.877,0,0,1,136.081,133.521Z" transform="translate(-84.735 -133.187)" fill="#e0e0e0"/></g><g transform="translate(19.528 91.242)"><rect width="23.436" height="23.436" fill="#e0e0e0"/></g><g transform="translate(62.03 91.242)"><rect width="23.436" height="23.436" fill="#e0e0e0"/></g><g transform="translate(104.532 91.242)"><rect width="23.436" height="23.436" fill="#e0e0e0"/></g><g transform="translate(147.034 91.242)"><rect width="23.436" height="23.436" fill="#e0e0e0"/></g></g><g transform="translate(215.895 29.835)"><g transform="translate(0.255 0.255)"><rect width="161.04" height="65.412" fill="#fff"/></g><path d="M359.953,95.5s-.012-.4-.018-1.169-.011-1.909-.018-3.394c-.011-2.984-.026-7.369-.045-13.017-.022-11.29-.055-27.621-.1-47.832l.179.179-161.029.076h-.011l.255-.255c0,22.906-.007,45.018-.011,65.412l-.244-.244,115.463.115,33.495.068,8.965.031,2.321.015c.523.006.8.016.8.016s-.254.01-.767.015l-2.292.016-8.913.031c-7.8.015-19.166.038-33.439.068l-115.628.115h-.244V95.5c0-20.394-.007-42.506-.011-65.412v-.255h.266l161.029.076h.18v.179c-.04,20.257-.074,36.625-.1,47.94-.018,5.631-.034,10-.044,12.978-.009,1.471-.015,2.594-.02,3.361S359.953,95.5,359.953,95.5Z" transform="translate(-198.658 -29.835)" fill="#e0e0e0"/><g transform="translate(0.416 8.821)"><path d="M199,37.276c0-.141,36-.255,80.389-.255s80.4.114,80.4.255-35.988.255-80.4.255S199,37.417,199,37.276Z" transform="translate(-198.997 -37.021)" fill="#e0e0e0"/></g><g transform="translate(4.821 3.962)"><g transform="translate(0 0)" opacity="0.3"><path d="M204.922,34.232a1.169,1.169,0,1,1-1.169-1.169A1.168,1.168,0,0,1,204.922,34.232Z" transform="translate(-202.585 -33.063)" fill="#ebebeb"/></g><g transform="translate(4.004 0)" opacity="0.3"><path d="M208.185,34.232a1.169,1.169,0,1,1-1.169-1.169A1.169,1.169,0,0,1,208.185,34.232Z" transform="translate(-205.847 -33.063)" fill="#ebebeb"/></g><g transform="translate(7.952)" opacity="0.3"><circle cx="1.169" cy="1.169" r="1.169" fill="#ebebeb"/></g></g><g transform="translate(13.941 19.708)"><rect width="38.898" height="38.897" fill="#e0e0e0"/></g><g transform="translate(60.745 29.877)"><path d="M337.551,54.429c0,.14-20.016.254-44.7.254s-44.706-.114-44.706-.254,20.013-.255,44.706-.255S337.551,54.288,337.551,54.429Z" transform="translate(-248.143 -54.174)" fill="#e0e0e0"/><g transform="translate(0 7.924)"><path d="M337.551,60.884c0,.141-20.016.255-44.7.255s-44.706-.114-44.706-.255,20.013-.255,44.706-.255S337.551,60.743,337.551,60.884Z" transform="translate(-248.143 -60.629)" fill="#e0e0e0"/></g><g transform="translate(0 15.849)"><path d="M305.7,67.339a2.433,2.433,0,0,1-.584.052l-1.677.048-6.167.081-20.348.075-20.351-.075-6.167-.081-1.677-.048a2.434,2.434,0,0,1-.584-.052,2.606,2.606,0,0,1,.584-.052l1.677-.048,6.167-.08,20.351-.075,20.348.075,6.167.08,1.677.048A2.606,2.606,0,0,1,305.7,67.339Z" transform="translate(-248.143 -67.085)" fill="#e0e0e0"/></g></g></g><g transform="translate(703.926 67.829)"><g transform="translate(57.851 25.57)"><path d="M684.02,105.6a5.918,5.918,0,0,1,.912-1.036l2.647-2.66c2.254-2.226,5.4-5.27,8.891-8.605l.08-.075,0,.449c-3.523-3.273-6.685-6.256-8.953-8.437l-2.663-2.606a5.79,5.79,0,0,1-.918-1.016,5.964,5.964,0,0,1,1.08.841l2.8,2.462c2.342,2.1,5.551,5.032,9.074,8.3l.241.223-.237.227-.08.076c-3.5,3.334-6.685,6.328-9.015,8.474q-1.648,1.49-2.782,2.518A5.93,5.93,0,0,1,684.02,105.6Z" transform="translate(-684.019 -81.616)" fill="#e0e0e0"/></g><g transform="translate(17.473 25.57)"><path d="M664.315,81.618a5.92,5.92,0,0,1-.912,1.036l-2.647,2.66c-2.254,2.226-5.4,5.27-8.891,8.605l-.08.075,0-.449c3.523,3.273,6.685,6.256,8.953,8.437l2.663,2.606a5.8,5.8,0,0,1,.918,1.016,5.962,5.962,0,0,1-1.08-.841l-2.8-2.462c-2.342-2.1-5.551-5.032-9.074-8.3l-.241-.223.237-.227.08-.076c3.5-3.334,6.685-6.328,9.015-8.474l2.782-2.516A5.959,5.959,0,0,1,664.315,81.618Z" transform="translate(-651.125 -81.616)" fill="#e0e0e0"/></g><g transform="translate(37.636 19.59)"><path d="M667.557,112.362c-.16-.059,2.694-8.082,6.373-17.916s6.79-17.76,6.949-17.7-2.695,8.081-6.375,17.918S667.716,112.422,667.557,112.362Z" transform="translate(-667.551 -76.745)" fill="#e0e0e0"/></g><path d="M725.641,133.159s-.018-.466-.028-1.342c-.006-.894-.016-2.183-.028-3.859-.016-3.389-.038-8.325-.066-14.616-.032-12.584-.077-30.566-.133-52.248l.255.257-88.436.052H637.2l.307-.308c-.011,26.052-.023,50.653-.032,72.065l-.275-.276,63.864.139,18.1.072,4.8.033c.535.006.945.011,1.242.016.281,0,.431.016.431.016s-.129.01-.4.015c-.291,0-.691.01-1.212.016l-4.752.033-18.04.074-64.041.137h-.274v-.275c-.01-21.412-.021-46.013-.033-72.065v-.308h.314l88.436.052h.257v.257c-.055,21.75-.1,39.787-.133,52.41-.028,6.265-.05,11.183-.066,14.557-.012,1.656-.022,2.929-.029,3.81C725.661,132.731,725.641,133.159,725.641,133.159Z" transform="translate(-636.891 -60.786)" fill="#e0e0e0"/><g transform="translate(0.268 10.692)"><path d="M726.285,69.805c0,.169-19.965.308-44.586.308s-44.59-.139-44.59-.308,19.96-.309,44.59-.309S726.285,69.635,726.285,69.805Z" transform="translate(-637.109 -69.496)" fill="#e0e0e0"/></g><g transform="translate(5.143 4.547)"><path d="M643.462,65.684a1.191,1.191,0,1,1-1.191-1.194A1.193,1.193,0,0,1,643.462,65.684Z" transform="translate(-641.081 -64.49)" fill="#e0e0e0"/><g transform="translate(4.341)"><path d="M647,65.684a1.191,1.191,0,1,1-1.191-1.194A1.193,1.193,0,0,1,647,65.684Z" transform="translate(-644.617 -64.49)" fill="#e0e0e0"/></g><g transform="translate(8.681)"><path d="M650.534,65.684a1.191,1.191,0,1,1-1.191-1.194A1.193,1.193,0,0,1,650.534,65.684Z" transform="translate(-648.153 -64.49)" fill="#e0e0e0"/></g></g></g><g transform="translate(716.018 388.142)"><g transform="translate(50.153 66.442)"><path d="M693.726,378.366c5.112-2.637,11.129-2.979,16.8-2.041,3.048.5,6.226,1.415,8.3,3.706s2.466,6.318.085,8.286c-1.418,1.171-3.394,1.349-5.233,1.327-4.441-.052-9.37-.833-12.919,1.839-2.024,1.525-3.372,4.059-5.793,4.81-2.368.734-5.04-.664-6.3-2.8a9.783,9.783,0,0,1-.712-7.217A11.02,11.02,0,0,1,693.726,378.366Z" transform="translate(-687.598 -375.851)" fill="#ebebeb"/></g><g transform="translate(41.621)"><path d="M683.6,368.079c3.125,4.463,9.2,2.985,12.015.262s4.007-6.673,5.089-10.439c2.476-8.6,4.971-17.628,3.131-26.388a14.666,14.666,0,0,0-3.371-7.175,7.66,7.66,0,0,0-7.258-2.416c-3.063.809-4.965,3.809-6.341,6.662a62.916,62.916,0,0,0-6.216,27c-.015,4.348.5,8.908,2.951,12.5" transform="translate(-680.648 -321.725)" fill="#ebebeb"/></g><g transform="translate(0 14.361)"><path d="M682.732,371.822c3.393-4.026,4.036-9.9,2.528-14.945s-4.921-9.337-8.853-12.84a47.636,47.636,0,0,0-15.85-9.353,16.9,16.9,0,0,0-7.13-1.212,7.482,7.482,0,0,0-5.982,3.62c-1.668,3.182-.069,7.04,1.661,10.189a120.674,120.674,0,0,0,10.411,15.854c3.12,4.024,6.7,7.993,11.452,9.811s9.695,1.6,12.216-1.694" transform="translate(-646.742 -333.424)" fill="#ebebeb"/></g><g transform="translate(44.304 72.64)"><path d="M682.89,421.944a9.751,9.751,0,0,0,.284-2.028c.144-1.477.324-3.33.539-5.536a79.914,79.914,0,0,1,1.245-8.118,62.6,62.6,0,0,1,2.951-9.582,35.28,35.28,0,0,1,4.893-8.67,18.265,18.265,0,0,1,6.186-5.143,17.288,17.288,0,0,1,5.21-1.622,9.812,9.812,0,0,0,2.019-.292,9.485,9.485,0,0,0-2.055-.032,15.765,15.765,0,0,0-5.432,1.413,18.239,18.239,0,0,0-6.526,5.188,34.5,34.5,0,0,0-5.072,8.844,58.657,58.657,0,0,0-2.929,9.739,68.559,68.559,0,0,0-1.08,8.221c-.176,2.351-.242,4.253-.274,5.569A9.6,9.6,0,0,0,682.89,421.944Z" transform="translate(-682.833 -380.9)" fill="#e0e0e0"/></g><g transform="translate(44.303 17.933)"><path d="M683.271,427.825a4,4,0,0,0,.055-.941c0-.707,0-1.6-.007-2.691-.007-2.335-.006-5.715.119-9.888.207-8.347.926-17.33,2.314-30,1.315-11.908,3.079-25.767,4.941-34.779.4-2.049.8-3.894,1.18-5.508.361-1.619.669-3.015.967-4.143.255-1.063.463-1.928.629-2.616a3.967,3.967,0,0,0,.164-.929,3.949,3.949,0,0,0-.327.883c-.206.678-.464,1.531-.782,2.579-.346,1.118-.7,2.505-1.107,4.117-.422,1.608-.865,3.448-1.3,5.494a305.711,305.711,0,0,0-5.194,32.271c-1.391,12.692-2.018,24.246-2.073,32.615-.049,4.185.039,7.571.146,9.909.068,1.093.122,1.983.164,2.69A4.006,4.006,0,0,0,683.271,427.825Z" transform="translate(-682.833 -336.334)" fill="#e0e0e0"/></g><g transform="translate(14.984 24.748)"><path d="M688.763,404.275a18,18,0,0,0-.02-2.811c-.1-1.807-.352-4.418-.862-7.617a100.227,100.227,0,0,0-2.477-11.1,90.7,90.7,0,0,0-4.64-13.13A69.938,69.938,0,0,0,667.137,348.4a34.475,34.475,0,0,0-3.206-2.98c-.491-.416-.926-.83-1.369-1.159l-1.243-.857a18.187,18.187,0,0,0-2.367-1.516c-.135.183,3.354,2.235,7.757,6.921A73.684,73.684,0,0,1,680,369.953a103.606,103.606,0,0,1,4.667,13.009,112.762,112.762,0,0,1,2.636,10.987c.581,3.166.917,5.751,1.12,7.541A18.018,18.018,0,0,0,688.763,404.275Z" transform="translate(-658.948 -341.886)" fill="#e0e0e0"/></g><g transform="translate(23.256 126.453)"><path d="M665.686,424.738l2.233,30.6h39.307l2.233-30.6Z" transform="translate(-665.686 -424.738)" fill="#e0e0e0"/></g><g transform="translate(19.459 114.393)"><rect width="52.26" height="12.06" fill="#e0e0e0"/></g><g transform="translate(19.459 155.878)"><path d="M662.594,448.709v3.343h51.4v-3.343Z" transform="translate(-662.594 -448.709)" fill="#ebebeb"/></g><g transform="translate(21.915 159.221)"><path d="M667,457.316l-2.407-5.884h47.068l-2.808,5.884Z" transform="translate(-664.594 -451.432)" fill="#e0e0e0"/></g><g transform="translate(23.918 132.154)"><path d="M708.607,433.681a1.321,1.321,0,0,1-.183.281l-.588.778c-.557.714-1.324,1.7-2.289,2.93l-.1.13-.1-.135-5.626-7.781h.324l-5.539,7.843-.174.246-.194-.231c-2.044-2.432-4.263-5.073-6.569-7.815l.379,0-.362.454-5.873,7.363-.2.246-.18-.255c-1.993-2.822-3.857-5.458-5.541-7.842l.322.016c-2.73,3.112-5.046,5.75-6.824,7.775l-.122.138-.092-.155-2.137-3.591-.547-.955a1.543,1.543,0,0,1-.168-.341,1.5,1.5,0,0,1,.23.3l.606.919,2.243,3.524-.214-.017c1.749-2.05,4.029-4.72,6.716-7.87l.169-.2.152.215c1.7,2.372,3.58,5,5.591,7.8l-.377-.011,5.86-7.374c.123-.156.247-.311.361-.454l.187-.234.192.23,6.551,7.83-.368.015c2.022-2.818,3.9-5.445,5.594-7.8l.163-.23.161.23,5.507,7.865-.2-.006,2.381-2.857.638-.738C708.518,433.754,708.6,433.673,708.607,433.681Z" transform="translate(-666.226 -429.382)" fill="#f5f5f5"/></g><g transform="translate(23.583 126.006)"><path d="M709.946,424.618c0,.135-9.849.246-22,.246s-22-.111-22-.246,9.847-.244,22-.244S709.946,424.483,709.946,424.618Z" transform="translate(-665.953 -424.374)" fill="#f5f5f5"/></g><g transform="translate(21.75 159.306)"><path d="M712.272,451.746c0,.135-10.7.244-23.905.244s-23.906-.109-23.906-.244,10.7-.245,23.906-.245S712.272,451.611,712.272,451.746Z" transform="translate(-664.46 -451.501)" fill="#f5f5f5"/></g></g><g transform="translate(91.604 120.992)"><g transform="translate(26.97)"><path d="M7.751,0H566.188a6.74,6.74,0,0,1,6.74,6.74V411.913a14.567,14.567,0,0,1-14.567,14.567H14.567A14.567,14.567,0,0,1,0,411.913V7.751A7.751,7.751,0,0,1,7.751,0Z" fill="#455a64"/></g><g transform="translate(0 394.939)"><path d="M0,0H626.729a0,0,0,0,1,0,0V23.595a13.721,13.721,0,0,1-13.721,13.721H13.721A13.721,13.721,0,0,1,0,23.595V0A0,0,0,0,1,0,0Z" fill="#455a64"/></g><g transform="translate(44.281 16.945)"><rect width="536.501" height="360.155" fill="#e0e0e0"/></g><g transform="translate(249.104 394.939)"><path d="M312.289,425.826l8.67,13.791H442.965l8.052-13.791Z" transform="translate(-312.289 -425.826)" fill="#263238"/></g><g transform="translate(62.336 37.811)"><rect width="501.86" height="339.29" fill="#263238"/><g transform="translate(43.49 6.553)"><path d="M166.169,463.015c-.3,0-.538-72.263-.538-161.383,0-89.15.241-161.4.538-161.4s.539,72.247.539,161.4C166.708,390.752,166.466,463.015,166.169,463.015Z" transform="translate(-165.631 -140.235)" fill="#e0e0e0"/></g><g transform="translate(13.81 35.273)"><path d="M160.095,164.169c0,.3-4.174.539-9.321.539s-9.322-.241-9.322-.539,4.172-.538,9.322-.538S160.095,163.872,160.095,164.169Z" transform="translate(-141.452 -163.631)" fill="#e0e0e0"/></g><g transform="translate(14.526 16.958)"><path d="M160.68,149.249c0,.3-4.174.539-9.321.539s-9.323-.242-9.323-.539,4.174-.538,9.323-.538S160.68,148.952,160.68,149.249Z" transform="translate(-142.036 -148.711)" fill="#e0e0e0"/></g><g transform="translate(13.81 55.014)"><path d="M160.095,180.252c0,.3-4.174.538-9.321.538s-9.322-.241-9.322-.538,4.172-.539,9.322-.539S160.095,179.954,160.095,180.252Z" transform="translate(-141.452 -179.713)" fill="#e0e0e0"/></g><g transform="translate(13.81 74.757)"><path d="M160.095,196.334c0,.3-4.174.539-9.321.539s-9.322-.242-9.322-.539,4.172-.538,9.322-.538S160.095,196.037,160.095,196.334Z" transform="translate(-141.452 -195.796)" fill="#e0e0e0"/></g><g transform="translate(13.81 94.498)"><path d="M160.095,212.416c0,.3-4.174.539-9.321.539s-9.322-.241-9.322-.539,4.172-.538,9.322-.538S160.095,212.119,160.095,212.416Z" transform="translate(-141.452 -211.878)" fill="#e0e0e0"/></g><g transform="translate(13.81 114.239)"><path d="M160.095,228.5c0,.3-4.174.539-9.321.539s-9.322-.242-9.322-.539,4.172-.539,9.322-.539S160.095,228.2,160.095,228.5Z" transform="translate(-141.452 -227.96)" fill="#e0e0e0"/></g><g transform="translate(13.81 133.982)"><path d="M160.095,244.581c0,.3-4.174.539-9.321.539s-9.322-.241-9.322-.539,4.172-.538,9.322-.538S160.095,244.284,160.095,244.581Z" transform="translate(-141.452 -244.043)" fill="#e0e0e0"/></g><g transform="translate(13.81 153.723)"><path d="M160.095,260.664c0,.3-4.174.538-9.321.538s-9.322-.241-9.322-.538,4.172-.539,9.322-.539S160.095,260.367,160.095,260.664Z" transform="translate(-141.452 -260.125)" fill="#e0e0e0"/></g><g transform="translate(13.81 173.466)"><path d="M160.095,276.746c0,.3-4.174.539-9.321.539s-9.322-.241-9.322-.539,4.172-.538,9.322-.538S160.095,276.449,160.095,276.746Z" transform="translate(-141.452 -276.208)" fill="#e0e0e0"/></g><g transform="translate(13.81 193.207)"><path d="M160.095,292.829c0,.3-4.174.538-9.321.538s-9.322-.241-9.322-.538,4.172-.539,9.322-.539S160.095,292.532,160.095,292.829Z" transform="translate(-141.452 -292.29)" fill="#e0e0e0"/></g><g transform="translate(13.81 212.949)"><path d="M160.095,308.911c0,.3-4.174.538-9.321.538s-9.322-.241-9.322-.538,4.172-.539,9.322-.539S160.095,308.614,160.095,308.911Z" transform="translate(-141.452 -308.372)" fill="#e0e0e0"/></g><g transform="translate(13.81 232.691)"><path d="M160.095,324.994c0,.3-4.174.538-9.321.538s-9.322-.241-9.322-.538,4.172-.539,9.322-.539S160.095,324.7,160.095,324.994Z" transform="translate(-141.452 -324.455)" fill="#e0e0e0"/></g><g transform="translate(13.81 252.432)"><path d="M160.095,341.076c0,.3-4.174.539-9.321.539s-9.322-.242-9.322-.539,4.172-.539,9.322-.539S160.095,340.779,160.095,341.076Z" transform="translate(-141.452 -340.537)" fill="#e0e0e0"/></g><g transform="translate(13.81 272.175)"><path d="M160.095,357.158c0,.3-4.174.539-9.321.539s-9.322-.241-9.322-.539,4.172-.538,9.322-.538S160.095,356.861,160.095,357.158Z" transform="translate(-141.452 -356.62)" fill="#e0e0e0"/></g><g transform="translate(13.81 291.916)"><path d="M160.095,373.241c0,.3-4.174.538-9.321.538s-9.322-.241-9.322-.538,4.172-.539,9.322-.539S160.095,372.944,160.095,373.241Z" transform="translate(-141.452 -372.702)" fill="#e0e0e0"/></g><g transform="translate(13.81 311.659)"><path d="M160.095,389.323c0,.3-4.174.539-9.321.539s-9.322-.241-9.322-.539,4.172-.538,9.322-.538S160.095,389.026,160.095,389.323Z" transform="translate(-141.452 -388.785)" fill="#e0e0e0"/></g><g transform="translate(58.794 34.108)"><path d="M226.482,163.221c0,.3-10.832.539-24.19.539s-24.194-.242-24.194-.539,10.831-.539,24.194-.539S226.482,162.924,226.482,163.221Z" transform="translate(-178.098 -162.682)" fill="#005b85"/></g><g transform="translate(58.794 311.659)"><path d="M226.482,389.323c0,.3-10.832.539-24.19.539s-24.194-.241-24.194-.539,10.831-.538,24.194-.538S226.482,389.026,226.482,389.323Z" transform="translate(-178.098 -388.785)" fill="#005b85"/></g><g transform="translate(86.577 74.757)"><path d="M289.184,196.334c0,.3-20.267.539-45.261.539s-45.266-.242-45.266-.539,20.262-.538,45.266-.538S289.184,196.037,289.184,196.334Z" transform="translate(-198.658 -195.796)" fill="#005b85"/></g><g transform="translate(160.599 74.757)"><path d="M374.456,196.334c0,.3-20.267.539-45.261.539s-45.264-.242-45.264-.539,20.262-.538,45.264-.538S374.456,196.037,374.456,196.334Z" transform="translate(-283.931 -195.796)" fill="#e0e0e0"/></g><g transform="translate(88.521 94.498)"><path d="M349.816,212.416c0,.3-29.867.539-66.7.539s-66.708-.241-66.708-.539,29.861-.538,66.708-.538S349.816,212.119,349.816,212.416Z" transform="translate(-216.405 -211.878)" fill="#e0e0e0"/></g><g transform="translate(88.521 114.239)"><path d="M349.816,228.5c0,.3-29.867.539-66.7.539s-66.708-.242-66.708-.539,29.861-.539,66.708-.539S349.816,228.2,349.816,228.5Z" transform="translate(-216.405 -227.96)" fill="#e0e0e0"/></g><g transform="translate(165.342 173.466)"><path d="M424.624,276.746c0,.3-29.866.539-66.7.539s-66.708-.241-66.708-.539,29.86-.538,66.708-.538S424.624,276.449,424.624,276.746Z" transform="translate(-291.215 -276.208)" fill="#e0e0e0"/></g><g transform="translate(132.192 133.982)"><path d="M392.344,244.581c0,.3-29.867.539-66.7.539s-66.708-.241-66.708-.539,29.861-.538,66.708-.538S392.344,244.284,392.344,244.581Z" transform="translate(-258.933 -244.043)" fill="#e0e0e0"/></g><g transform="translate(268.573 133.982)"><path d="M525.152,244.581c0,.3-29.867.539-66.7.539s-66.707-.241-66.707-.539,29.86-.538,66.707-.538S525.152,244.284,525.152,244.581Z" transform="translate(-391.743 -244.043)" fill="#e0e0e0"/></g><g transform="translate(221.143 94.498)"><path d="M478.966,212.416c0,.3-29.867.539-66.7.539s-66.708-.241-66.708-.539,29.861-.538,66.708-.538S478.966,212.119,478.966,212.416Z" transform="translate(-345.555 -211.878)" fill="#fafafa"/></g><g transform="translate(281.666 173.466)"><path d="M554.037,276.746c0,.3-29.867.539-66.7.539s-66.708-.241-66.708-.539,29.861-.538,66.708-.538S554.037,276.449,554.037,276.746Z" transform="translate(-420.627 -276.208)" fill="#fafafa"/></g><g transform="translate(212.452 114.239)"><path d="M552.717,228.5c0,.3-46.379.539-103.576.539-57.217,0-103.586-.242-103.586-.539s46.369-.539,103.586-.539C506.338,227.96,552.717,228.2,552.717,228.5Z" transform="translate(-345.555 -227.96)" fill="#455a64"/></g><g transform="translate(58.794 55.014)"><path d="M226.482,180.252c0,.3-10.832.538-24.19.538s-24.194-.241-24.194-.538,10.831-.539,24.194-.539S226.482,179.954,226.482,180.252Z" transform="translate(-178.098 -179.713)" fill="#fafafa"/></g><g transform="translate(58.794 291.916)"><path d="M226.482,373.241c0,.3-10.832.538-24.19.538s-24.194-.241-24.194-.538,10.831-.539,24.194-.539S226.482,372.944,226.482,373.241Z" transform="translate(-178.098 -372.702)" fill="#fafafa"/></g><g transform="translate(85.031 133.982)"><path d="M246.009,244.581c0,.3-10.833.539-24.191.539s-24.192-.241-24.192-.539,10.829-.538,24.192-.538S246.009,244.284,246.009,244.581Z" transform="translate(-197.625 -244.043)" fill="#fafafa"/></g><g transform="translate(398.542 133.982)"><path d="M561.9,244.581c0,.3-10.832.539-24.191.539s-24.193-.241-24.193-.539,10.829-.538,24.193-.538S561.9,244.284,561.9,244.581Z" transform="translate(-513.519 -244.043)" fill="#ff725e"/></g><g transform="translate(86.577 212.833)"><path d="M289.184,308.817c0,.3-20.267.538-45.261.538s-45.266-.241-45.266-.538,20.262-.539,45.266-.539S289.184,308.519,289.184,308.817Z" transform="translate(-198.658 -308.278)" fill="#005b85"/></g><g transform="translate(160.599 212.833)"><path d="M374.456,308.817c0,.3-20.267.538-45.261.538s-45.264-.241-45.264-.538,20.262-.539,45.264-.539S374.456,308.519,374.456,308.817Z" transform="translate(-283.931 -308.278)" fill="#e0e0e0"/></g><g transform="translate(88.521 232.574)"><path d="M349.816,324.9c0,.3-29.867.539-66.7.539s-66.708-.242-66.708-.539,29.861-.539,66.708-.539S349.816,324.6,349.816,324.9Z" transform="translate(-216.405 -324.36)" fill="#e0e0e0"/></g><g transform="translate(88.521 252.317)"><path d="M349.816,340.981c0,.3-29.867.539-66.7.539s-66.708-.242-66.708-.539,29.861-.538,66.708-.538S349.816,340.684,349.816,340.981Z" transform="translate(-216.405 -340.443)" fill="#e0e0e0"/></g><g transform="translate(132.192 272.058)"><path d="M392.344,357.064c0,.3-29.867.538-66.7.538s-66.708-.241-66.708-.538,29.861-.539,66.708-.539S392.344,356.767,392.344,357.064Z" transform="translate(-258.933 -356.525)" fill="#e0e0e0"/></g><g transform="translate(268.573 272.058)"><path d="M525.152,357.064c0,.3-29.867.538-66.7.538s-66.707-.241-66.707-.538,29.86-.539,66.707-.539S525.152,356.767,525.152,357.064Z" transform="translate(-391.743 -356.525)" fill="#e0e0e0"/></g><g transform="translate(221.143 232.574)"><path d="M478.966,324.9c0,.3-29.867.539-66.7.539s-66.708-.242-66.708-.539,29.861-.539,66.708-.539S478.966,324.6,478.966,324.9Z" transform="translate(-345.555 -324.36)" fill="#fafafa"/></g><g transform="translate(212.452 252.317)"><path d="M552.717,340.981c0,.3-46.379.539-103.576.539-57.217,0-103.586-.242-103.586-.539s46.369-.538,103.586-.538C506.338,340.443,552.717,340.684,552.717,340.981Z" transform="translate(-345.555 -340.443)" fill="#455a64"/></g><g transform="translate(85.031 272.058)"><path d="M246.009,357.064c0,.3-10.833.538-24.191.538s-24.192-.241-24.192-.538,10.829-.539,24.192-.539S246.009,356.767,246.009,357.064Z" transform="translate(-197.625 -356.525)" fill="#fafafa"/></g><g transform="translate(398.542 272.058)"><path d="M561.9,357.064c0,.3-10.832.538-24.191.538s-24.193-.241-24.193-.538,10.829-.539,24.193-.539S561.9,356.767,561.9,357.064Z" transform="translate(-513.519 -356.525)" fill="#ff725e"/></g></g><g transform="translate(42.326 407.082)"><path d="M581.642,436.038c0,.177-104.716.319-233.859.319-129.188,0-233.881-.142-233.881-.319s104.693-.32,233.881-.32C476.926,435.718,581.642,435.862,581.642,436.038Z" transform="translate(-113.902 -435.718)" fill="#263238"/></g></g><g transform="translate(2.823 289.597)"><g transform="translate(22.712 115.892)"><path d="M109.462,351.636c-16.925-17.322-43.444-24.6-66.84-18.344a121.734,121.734,0,0,0,67.63,21.131" transform="translate(-42.622 -331.078)" fill="#54b948"/></g><g transform="translate(47.245)"><path d="M82.244,292.838c2.785-19.7-4.87-41.853-19.616-56.17-.487,19.52,7.753,41.487,19.616,56.17" transform="translate(-62.607 -236.668)" fill="#54b948"/></g><g transform="translate(30.371 47.215)"><path d="M97.164,321.293a105.178,105.178,0,0,0-48.3-46.162c6.157,22.679,25.554,41.231,48.484,46.372" transform="translate(-48.861 -275.131)" fill="#54b948"/></g><g transform="translate(15.496 79.42)"><path d="M102.363,322.5c-11.9.334-23.936-.085-35.44-3.129S44.4,310.478,36.744,301.366a118.427,118.427,0,0,1,65.442,19.978" transform="translate(-36.744 -301.366)" fill="#54b948"/></g><g transform="translate(75.078 25.939)"><path d="M85.281,308.769c6.038-22.632,16-38.287,33.789-50.97a47.071,47.071,0,0,1-33.789,50.97" transform="translate(-85.281 -257.799)" fill="#54b948"/></g><g transform="translate(99.631 84.91)"><path d="M125.634,336.868a33.508,33.508,0,0,0-20.351-31.029c.988,11.687,10.169,25.206,20.351,31.029" transform="translate(-105.283 -305.839)" fill="#54b948"/></g><g transform="translate(125.666 54.277)"><path d="M126.492,323.464c1.352-18.9,14.785-36.4,32.7-42.58-4.109,18.913-15.044,34.656-32.7,42.58" transform="translate(-126.492 -280.884)" fill="#54b948"/></g><g transform="translate(117.101 116.963)"><path d="M119.515,345.707c4.195-6,11.041-9.733,18.125-11.587s14.485-2.017,21.806-2.17a50.979,50.979,0,0,1-39.375,16.4" transform="translate(-119.515 -331.95)" fill="#54b948"/></g><g transform="translate(108.598 176.515)"><path d="M112.588,382.908A55.857,55.857,0,0,1,180.8,415.22c-24.778-4.7-49.228-15.706-68.21-32.311" transform="translate(-112.588 -380.463)" fill="#54b948"/></g><g transform="translate(73.801 162.194)"><path d="M91.844,368.8c4.116,12.167,3.325,26.873-5.823,37.359A44.639,44.639,0,0,1,91.844,368.8" transform="translate(-84.241 -368.797)" fill="#54b948"/></g><g transform="translate(36.69 155.436)"><path d="M82.652,363.292a45.77,45.77,0,0,1-25.281,37.141,2.843,2.843,0,0,1-2.235.367c-1.115-.454-1.216-1.975-1.079-3.172,1.792-15.587,13.341-30.663,28.6-34.336" transform="translate(-54.009 -363.292)" fill="#54b948"/></g><g transform="translate(0 152.147)"><path d="M78.954,362.321a37.535,37.535,0,0,1-54.834.28c17.43-1.908,37.541-3.179,54.834-.28" transform="translate(-24.12 -360.613)" fill="#54b948"/></g><g transform="translate(49.627 14.517)"><g transform="translate(2.596)"><path d="M66.664,248.494a3.092,3.092,0,0,0,.16.511l.532,1.474,2.1,5.643c.938,2.442,2.019,5.453,3.273,8.949l2.019,5.6q1.033,2.988,2.178,6.3c3.087,8.826,6.516,19.42,10.218,31.214C90.779,320,94.6,333.047,98.353,346.809c3.7,13.782,6.99,26.974,9.785,39.017,2.717,12.061,5.053,22.949,6.74,32.146q.65,3.443,1.236,6.553.528,3.114,1,5.865c.631,3.659,1.171,6.813,1.534,9.4.393,2.558.7,4.557.915,5.952.108.654.191,1.166.254,1.546a3.272,3.272,0,0,0,.109.524,3.154,3.154,0,0,0-.042-.533c-.047-.382-.109-.9-.189-1.555-.185-1.4-.451-3.405-.791-5.972-.324-2.6-.827-5.757-1.424-9.425-.3-1.835-.611-3.8-.946-5.876q-.563-3.112-1.191-6.566c-1.629-9.215-3.92-20.119-6.6-32.2-2.764-12.059-6.033-25.265-9.741-39.055C95.238,332.864,91.4,319.817,87.731,308,84,296.212,80.518,285.627,77.372,276.817q-1.167-3.307-2.223-6.292l-2.067-5.582c-1.288-3.486-2.406-6.485-3.382-8.913l-2.219-5.6c-.252-.614-.448-1.095-.593-1.45A3.061,3.061,0,0,0,66.664,248.494Z" transform="translate(-66.663 -248.494)" fill="#263238"/></g><g transform="translate(50.544 49.856)"><path d="M153.515,289.109a1.9,1.9,0,0,0-.3.284l-.834.876c-.728.775-1.782,1.935-3.1,3.467a121.974,121.974,0,0,0-10.262,13.683,91.87,91.87,0,0,0-10.731,22.956c-2.875,9.139-4.659,19.526-6.436,30.383-3.544,21.734-7.892,41.2-11.041,55.279-1.586,7.006-2.874,12.688-3.775,16.668-.43,1.937-.766,3.457-1.005,4.537-.1.491-.182.881-.246,1.183a1.854,1.854,0,0,0-.06.409,1.925,1.925,0,0,0,.128-.393c.079-.3.18-.684.309-1.169.268-1.073.646-2.584,1.127-4.509l3.981-16.621c3.266-14.055,7.692-33.521,11.239-55.275,1.776-10.859,3.538-21.213,6.365-30.31a92.929,92.929,0,0,1,10.542-22.885A131.579,131.579,0,0,1,149.48,293.9c1.283-1.554,2.307-2.741,3-3.544l.783-.921A1.9,1.9,0,0,0,153.515,289.109Z" transform="translate(-105.723 -289.109)" fill="#263238"/></g><g transform="translate(0 138.575)"><path d="M64.548,361.405a2.276,2.276,0,0,0,.627.115l1.8.2,1.3.129,1.542.231c1.106.164,2.368.327,3.742.632l2.164.43,2.318.587c1.613.365,3.28.955,5.057,1.491a74.326,74.326,0,0,1,11.036,4.864,62.378,62.378,0,0,1,9.9,6.873,49.669,49.669,0,0,1,3.8,3.645,39.453,39.453,0,0,1,3,3.467,36.015,36.015,0,0,1,2.224,3.065,22.624,22.624,0,0,1,1.523,2.423l.924,1.561a2.427,2.427,0,0,0,.363.525,2.274,2.274,0,0,0-.243-.587l-.819-1.626a20.026,20.026,0,0,0-1.436-2.5,33.527,33.527,0,0,0-2.163-3.15,37.8,37.8,0,0,0-2.974-3.556,47.961,47.961,0,0,0-3.8-3.731,60.22,60.22,0,0,0-9.976-6.993A70.958,70.958,0,0,0,83.3,364.637c-1.8-.525-3.485-1.1-5.116-1.445l-2.345-.554-2.187-.392c-1.388-.277-2.664-.408-3.78-.538l-1.555-.178L67,361.462l-1.819-.075A2.278,2.278,0,0,0,64.548,361.405Z" transform="translate(-64.548 -361.382)" fill="#263238"/></g></g><g transform="translate(44.661 64.789)"><path d="M60.5,289.449a8.684,8.684,0,0,0,1.256,1.209c.945.821,2.148,1.865,3.587,3.112,3.048,2.606,7.289,6.17,12,10.076s9,7.414,12.126,9.926l3.722,2.949a8.76,8.76,0,0,0,1.42,1.01,8.77,8.77,0,0,0-1.258-1.213l-3.588-3.112c-3.048-2.606-7.287-6.168-12-10.073s-8.994-7.408-12.118-9.921l-3.724-2.95A8.911,8.911,0,0,0,60.5,289.449Z" transform="translate(-60.503 -289.447)" fill="#263238"/></g><g transform="translate(40.377 87.839)"><path d="M57.013,308.234c-.053.177,9.1,3.036,20.439,6.386s20.577,5.924,20.63,5.747-9.1-3.034-20.441-6.386S57.065,308.057,57.013,308.234Z" transform="translate(-57.013 -308.225)" fill="#263238"/></g><g transform="translate(74.167 46.084)"><path d="M84.543,306.794a7.558,7.558,0,0,0,.945-1.315c.643-.981,1.451-2.212,2.412-3.675,2.046-3.1,4.951-7.319,8.385-11.815s6.75-8.411,9.189-11.207l2.9-3.308a7.527,7.527,0,0,0,1.013-1.262,7.548,7.548,0,0,0-1.2,1.085c-.744.725-1.791,1.808-3.058,3.169-2.535,2.723-5.916,6.6-9.369,11.118s-6.3,8.8-8.253,11.966c-.976,1.585-1.738,2.882-2.238,3.8A7.573,7.573,0,0,0,84.543,306.794Z" transform="translate(-84.539 -274.21)" fill="#263238"/></g><g transform="translate(105.948 91.464)"><path d="M110.434,311.179a30.323,30.323,0,0,0,2.147,3.53c1.369,2.149,3.224,5.139,5.145,8.513s3.541,6.5,4.689,8.772a30.306,30.306,0,0,0,1.938,3.649,21.926,21.926,0,0,0-1.512-3.852c-1.043-2.334-2.607-5.506-4.536-8.9s-3.859-6.355-5.331-8.444A21.917,21.917,0,0,0,110.434,311.179Z" transform="translate(-110.429 -311.178)" fill="#263238"/></g><g transform="translate(116.827 119.911)"><path d="M119.292,345.791c.047.09,1.792-.763,4.65-2.049s6.847-2.968,11.356-4.549,8.68-2.751,11.716-3.527,4.932-1.2,4.913-1.3a5.387,5.387,0,0,0-1.363.142c-.869.13-2.121.366-3.658.7a102.216,102.216,0,0,0-23.164,8.107c-1.409.7-2.535,1.3-3.3,1.737A5.3,5.3,0,0,0,119.292,345.791Z" transform="translate(-119.291 -334.352)" fill="#263238"/></g><g transform="translate(108.267 179.023)"><path d="M112.318,382.516a1.954,1.954,0,0,0,.563.191l1.649.42,6.086,1.406a200.275,200.275,0,0,1,19.881,5.246,88.18,88.18,0,0,1,18.547,8.714c2.217,1.412,3.945,2.658,5.11,3.557A17.82,17.82,0,0,0,166,403.412c.016-.017-.125-.166-.409-.432s-.7-.664-1.272-1.132a53.6,53.6,0,0,0-5.015-3.75,81.42,81.42,0,0,0-18.589-8.95,166.551,166.551,0,0,0-20-5.077l-6.132-1.2A15.371,15.371,0,0,0,112.318,382.516Z" transform="translate(-112.318 -382.507)" fill="#263238"/></g><g transform="translate(77.284 162.015)"><path d="M87.1,397.422c.183.026,1.273-6.393,2.434-14.336s1.957-14.408,1.775-14.435-1.272,6.392-2.434,14.338S86.922,397.4,87.1,397.422Z" transform="translate(-87.078 -368.651)" fill="#263238"/></g><g transform="translate(45.076 155.544)"><path d="M60.845,386.918a33.55,33.55,0,0,0,2.9-3.449c1.742-2.168,4.155-5.156,6.883-8.4s5.258-6.139,7.094-8.228a33.732,33.732,0,0,0,2.9-3.454,4.317,4.317,0,0,0-.923.791c-.563.538-1.358,1.339-2.321,2.346-1.928,2.011-4.519,4.862-7.256,8.118s-5.1,6.3-6.747,8.545c-.826,1.123-1.478,2.043-1.911,2.691A4.307,4.307,0,0,0,60.845,386.918Z" transform="translate(-60.841 -363.38)" fill="#263238"/></g><g transform="translate(61.822 208.975)"><path d="M143.034,406.906v15.926h-3.981L124.9,467.511H93.5L79.791,423.274l-5.308-.442V406.906Z" transform="translate(-74.482 -406.906)" fill="#ff725e"/></g><g transform="translate(61.822 208.975)" opacity="0.3"><path d="M143.034,406.906v15.926h-3.981L124.9,467.511H93.5L79.791,423.274l-5.308-.442V406.906Z" transform="translate(-74.482 -406.906)"/></g><g transform="translate(64.475 225.01)"><path d="M76.644,420.3c0,.184,13.861.334,30.957.334s30.959-.15,30.959-.334-13.858-.333-30.959-.333S76.644,420.118,76.644,420.3Z" transform="translate(-76.644 -419.969)" fill="#263238"/></g><g transform="translate(41.898 122.894)"><path d="M58.252,336.792a12.405,12.405,0,0,0,2.012.544l5.51,1.328c4.643,1.15,11.02,2.9,17.938,5.22s13.054,4.792,17.448,6.683l5.192,2.271a12.549,12.549,0,0,0,1.931.783,12.237,12.237,0,0,0-1.819-1.016c-1.188-.621-2.934-1.468-5.113-2.469a181.051,181.051,0,0,0-35.47-11.929c-2.341-.519-4.244-.9-5.567-1.124A12.744,12.744,0,0,0,58.252,336.792Z" transform="translate(-58.252 -336.782)" fill="#263238"/></g><g transform="translate(74.898 249.821)"><path d="M85.135,440.514c0,.184,9.725.334,21.719.334s21.72-.15,21.72-.334-9.722-.333-21.72-.333S85.135,440.33,85.135,440.514Z" transform="translate(-85.135 -440.181)" fill="#fafafa"/></g><g transform="translate(73.677 246.127)"><path d="M84.14,437.5c0,.184,10.306.334,23.016.334s23.019-.15,23.019-.334-10.3-.333-23.019-.333S84.14,437.321,84.14,437.5Z" transform="translate(-84.14 -437.172)" fill="#fafafa"/></g></g><g transform="translate(370.253 86.366)"><path d="M677.015,76.125H348.051V279.856H624.984L642.128,319.3l15.2-39.445h19.686Z" transform="translate(-347.732 -75.833)" fill="#fafafa"/><path d="M677.073,76.179c0,1.975.1,78.514.247,203.73v.245h-.247l-19.685.009.237-.163c-4.758,12.364-9.888,25.691-15.185,39.451l-.237.619-.265-.609c-5.375-12.358-11.189-25.719-17.157-39.439l.261.172-250.437.034H347.791v-.319c.01-72.607.02-141.514.028-203.73v-.292h.291l328.963.291L348.11,76.47l.291-.291c.009,62.217.018,131.124.028,203.73l-.319-.319h26.5l250.437.034h.188l.075.172c5.958,13.723,11.764,27.088,17.132,39.449l-.5.011c5.307-13.756,10.446-27.08,15.215-39.438l.063-.163h.176l19.685.009-.246.246C676.979,154.693,677.071,78.153,677.073,76.179Z" transform="translate(-347.791 -75.887)" fill="#263238"/><g transform="translate(0.815 8.477)"><g transform="translate(0 11.246)"><path d="M676.751,92.4c0,.248-73.5.449-164.141.449-90.674,0-164.156-.2-164.156-.449s73.482-.449,164.156-.449C603.255,91.954,676.751,92.155,676.751,92.4Z" transform="translate(-348.455 -91.954)" fill="#263238"/></g><g transform="translate(11.595)"><path d="M363.294,85.489a2.7,2.7,0,1,1-2.7-2.7A2.7,2.7,0,0,1,363.294,85.489Z" transform="translate(-357.901 -82.793)" fill="#263238"/><g transform="translate(9.758)"><path d="M371.241,85.489a2.7,2.7,0,1,1-2.7-2.7A2.7,2.7,0,0,1,371.241,85.489Z" transform="translate(-365.85 -82.793)" fill="#263238"/></g><g transform="translate(19.514)"><path d="M379.191,85.489a2.7,2.7,0,1,1-2.7-2.7A2.7,2.7,0,0,1,379.191,85.489Z" transform="translate(-373.798 -82.793)" fill="#263238"/></g></g><g transform="translate(25.524 40.327)"><path d="M379.108,122.349l-7.812,3.015,7.812,3.015V130.2l-9.86-3.895v-1.892l9.86-3.9Z" transform="translate(-369.248 -114.535)" fill="#263238"/><path d="M385.249,115.645h1.914L379.9,136.377h-1.916Z" transform="translate(-367.26 -115.645)" fill="#263238"/><path d="M395.862,124.418v1.892L386,130.2v-1.827l7.834-3.015L386,122.349v-1.827Z" transform="translate(-365.436 -114.535)" fill="#263238"/><path d="M396.064,129.888a1.471,1.471,0,0,1,1.5-1.5,1.449,1.449,0,0,1,1.452,1.5,1.468,1.468,0,0,1-1.452,1.521A1.491,1.491,0,0,1,396.064,129.888Z" transform="translate(-363.146 -112.745)" fill="#263238"/><path d="M400.137,129.888a1.47,1.47,0,0,1,1.5-1.5,1.449,1.449,0,0,1,1.453,1.5,1.469,1.469,0,0,1-1.453,1.521A1.49,1.49,0,0,1,400.137,129.888Z" transform="translate(-362.219 -112.745)" fill="#263238"/><path d="M404.208,129.888a1.471,1.471,0,0,1,1.5-1.5,1.45,1.45,0,0,1,1.453,1.5,1.469,1.469,0,0,1-1.453,1.521A1.49,1.49,0,0,1,404.208,129.888Z" transform="translate(-361.293 -112.745)" fill="#263238"/></g><g transform="translate(25.896 76.78)"><path d="M586.769,145.79c0,.248-48.63.449-108.6.449-59.995,0-108.614-.2-108.614-.449s48.619-.449,108.614-.449C538.139,145.341,586.769,145.542,586.769,145.79Z" transform="translate(-369.551 -145.341)" fill="#455a64"/></g><g transform="translate(257.718 77.424)"><path d="M579.272,146.313c0,.249-4.672.451-10.435.451s-10.435-.2-10.435-.451,4.672-.448,10.435-.448S579.272,146.065,579.272,146.313Z" transform="translate(-558.401 -145.865)" fill="#263238"/></g><g transform="translate(286.294 77.424)"><path d="M604.478,146.313c0,.249-5.1.451-11.4.451s-11.4-.2-11.4-.451,5.1-.448,11.4-.448S604.478,146.065,604.478,146.313Z" transform="translate(-581.68 -145.865)" fill="#263238"/></g><g transform="translate(26.147 95.083)"><path d="M507.82,160.7c0,.248-30.91.449-69.03.449s-69.036-.2-69.036-.449,30.9-.449,69.036-.449S507.82,160.451,507.82,160.7Z" transform="translate(-369.755 -160.251)" fill="#455a64"/></g><g transform="translate(25.16 163.374)"><path d="M507.016,216.332c0,.248-30.91.449-69.03.449s-69.036-.2-69.036-.449,30.9-.449,69.036-.449S507.016,216.084,507.016,216.332Z" transform="translate(-368.951 -215.883)" fill="#455a64"/></g><g transform="translate(176.805 95.083)"><path d="M530.053,160.7c0,.248-8.41.449-18.783.449s-18.784-.2-18.784-.449,8.407-.449,18.784-.449S530.053,160.451,530.053,160.7Z" transform="translate(-492.487 -160.251)" fill="#263238"/></g><g transform="translate(176.411 163.374)"><path d="M529.734,216.332c0,.248-8.411.449-18.783.449s-18.785-.2-18.785-.449,8.409-.449,18.785-.449S529.734,216.084,529.734,216.332Z" transform="translate(-492.166 -215.883)" fill="#263238"/></g><g transform="translate(25.896 104.394)"><path d="M378.862,168.285c0,.248-2.084.449-4.655.449s-4.656-.2-4.656-.449,2.084-.449,4.656-.449S378.862,168.037,378.862,168.285Z" transform="translate(-369.551 -167.836)" fill="#005b85"/></g><g transform="translate(47.087 104.587)"><path d="M407.043,168.442c0,.248-4.528.449-10.114.449s-10.115-.2-10.115-.449,4.528-.449,10.115-.449S407.043,168.194,407.043,168.442Z" transform="translate(-386.814 -167.993)" fill="#263238"/></g><g transform="translate(70.527 104.587)"><path d="M423.247,168.442c0,.248-3.882.449-8.669.449s-8.669-.2-8.669-.449,3.88-.449,8.669-.449S423.247,168.194,423.247,168.442Z" transform="translate(-405.909 -167.993)" fill="#263238"/></g><g transform="translate(96.214 104.587)"><path d="M444.493,168.442c0,.248-3.954.449-8.83.449s-8.83-.2-8.83-.449,3.953-.449,8.83-.449S444.493,168.194,444.493,168.442Z" transform="translate(-426.834 -167.993)" fill="#263238"/></g><g transform="translate(120.616 104.587)"><path d="M462.767,168.442c0,.248-3.594.449-8.027.449s-8.027-.2-8.027-.449,3.593-.449,8.027-.449S462.767,168.194,462.767,168.442Z" transform="translate(-446.713 -167.993)" fill="#263238"/></g><g transform="translate(141.485 104.587)"><path d="M534.353,168.442c0,.248-15.814.449-35.318.449s-35.321-.2-35.321-.449,15.811-.449,35.321-.449S534.353,168.194,534.353,168.442Z" transform="translate(-463.714 -167.993)" fill="#263238"/></g><g transform="translate(25.896 116.274)"><path d="M377.578,177.963c0,.248-1.8.449-4.013.449s-4.014-.2-4.014-.449,1.8-.449,4.014-.449S377.578,177.715,377.578,177.963Z" transform="translate(-369.551 -177.514)" fill="#005b85"/></g><g transform="translate(25.896 128.475)"><path d="M377.9,187.9c0,.249-1.87.449-4.174.449s-4.175-.2-4.175-.449,1.868-.449,4.175-.449S377.9,187.654,377.9,187.9Z" transform="translate(-369.551 -187.453)" fill="#005b85"/></g><g transform="translate(25.896 142.281)"><path d="M377.9,199.149c0,.249-1.87.449-4.174.449s-4.175-.2-4.175-.449,1.868-.449,4.175-.449S377.9,198.9,377.9,199.149Z" transform="translate(-369.551 -198.7)" fill="#005b85"/></g><g transform="translate(48.051 141.639)"><path d="M449.889,198.626c0,.249-13.945.449-31.144.449s-31.146-.2-31.146-.449,13.942-.449,31.146-.449S449.889,198.378,449.889,198.626Z" transform="translate(-387.599 -198.177)" fill="#263238"/></g><g transform="translate(45.483 128.475)"><path d="M444.907,187.9c0,.249-13.3.449-29.7.449s-29.7-.2-29.7-.449,13.294-.449,29.7-.449S444.907,187.654,444.907,187.9Z" transform="translate(-385.507 -187.453)" fill="#263238"/></g><g transform="translate(46.125 115.632)"><path d="M588.312,177.44c0,.248-45.286.449-101.136.449-55.87,0-101.146-.2-101.146-.449s45.275-.449,101.146-.449C543.025,176.991,588.312,177.192,588.312,177.44Z" transform="translate(-386.03 -176.991)" fill="#263238"/></g></g></g><g transform="translate(670.801 169.732)"><path d="M637.493,144V317.13l-26.919,22.461H751.356V144Z" transform="translate(-609.754 -143.755)" fill="#fafafa"/><path d="M637.645,144.041s.667-.016,1.99-.025l5.887-.027,22.669-.06,83.317-.129h.241v.242c.021,52.258.048,120.512.079,195.594v.319H731.765l-121.039-.022h-.82l.63-.525,26.929-22.448-.1.215c.059-51.763.108-95.073.142-125.456.032-15.154.056-27.081.074-35.233.015-4.055.026-7.168.033-9.28q.011-1.558.016-2.372c0-.532.016-.793.016-.793s.011.284.016.824.009,1.352.016,2.4c.007,2.125.018,5.256.033,9.334.017,8.167.042,20.116.074,35.3.034,30.339.083,73.586.142,125.274v.131l-.1.085q-12.946,10.812-26.909,22.474l-.19-.525,121.039-.023h19.743l-.319.319c.029-75.083.058-143.336.079-195.594l.241.241-83.168-.129-22.723-.06-5.932-.027C638.344,144.058,637.645,144.041,637.645,144.041Z" transform="translate(-609.906 -143.8)" fill="#263238"/><g transform="translate(28.852 6.548)"><g transform="translate(4.613)"><path d="M641.782,151.442a2.307,2.307,0,1,1-2.307-2.308A2.306,2.306,0,0,1,641.782,151.442Z" transform="translate(-637.168 -149.134)" fill="#263238"/><path d="M648.584,151.442a2.307,2.307,0,1,1-2.308-2.308A2.307,2.307,0,0,1,648.584,151.442Z" transform="translate(-635.62 -149.134)" fill="#263238"/><path d="M655.385,151.442a2.307,2.307,0,1,1-2.307-2.308A2.306,2.306,0,0,1,655.385,151.442Z" transform="translate(-634.073 -149.134)" fill="#263238"/></g><g transform="translate(0 10.978)"><g transform="translate(16.973 44.304)"><path d="M711.716,194.538c0,.2-14.435.369-32.238.369s-32.242-.166-32.242-.369,14.432-.369,32.242-.369S711.716,194.335,711.716,194.538Z" transform="translate(-647.237 -194.169)" fill="#005b85"/></g><g transform="translate(16.428 59.965)"><path d="M725.262,207.3c0,.2-17.567.37-39.233.37s-39.236-.166-39.236-.37,17.564-.37,39.236-.37S725.262,207.093,725.262,207.3Z" transform="translate(-646.793 -206.927)" fill="#005b85"/></g><g transform="translate(14.425 118.403)"><path d="M728.828,254.9c0,.2-18.731.369-41.832.369s-41.835-.166-41.835-.369,18.726-.368,41.835-.368S728.828,254.7,728.828,254.9Z" transform="translate(-645.161 -254.532)" fill="#005b85"/></g><g transform="translate(15.055 67.933)"><path d="M653.642,213.787c0,.2-1.784.368-3.985.368s-3.983-.164-3.983-.368,1.784-.37,3.983-.37S653.642,213.584,653.642,213.787Z" transform="translate(-645.674 -213.418)" fill="#005b85"/></g><g transform="translate(33.188 68.098)"><path d="M677.756,213.921c0,.2-3.875.37-8.654.37s-8.655-.166-8.655-.37,3.874-.37,8.655-.37S677.756,213.718,677.756,213.921Z" transform="translate(-660.446 -213.552)" fill="#005b85"/></g><g transform="translate(53.245 68.098)"><path d="M691.621,213.921c0,.2-3.322.37-7.418.37s-7.418-.166-7.418-.37,3.321-.37,7.418-.37S691.621,213.718,691.621,213.921Z" transform="translate(-676.785 -213.552)" fill="#005b85"/></g><g transform="translate(15.055 78.1)"><path d="M652.542,222.068c0,.2-1.537.369-3.433.369s-3.435-.166-3.435-.369,1.537-.368,3.435-.368S652.542,221.864,652.542,222.068Z" transform="translate(-645.674 -221.7)" fill="#005b85"/></g><g transform="translate(15.055 88.54)"><path d="M652.817,230.573c0,.2-1.6.369-3.571.369s-3.572-.166-3.572-.369,1.6-.368,3.572-.368S652.817,230.37,652.817,230.573Z" transform="translate(-645.674 -230.205)" fill="#005b85"/></g><g transform="translate(15.055 100.354)"><path d="M652.817,240.2c0,.2-1.6.368-3.571.368s-3.572-.164-3.572-.368,1.6-.369,3.572-.369S652.817,239.994,652.817,240.2Z" transform="translate(-645.674 -239.829)" fill="#005b85"/></g><g transform="translate(34.012 99.804)"><path d="M714.419,239.75c0,.2-11.933.37-26.65.37s-26.652-.166-26.652-.37,11.93-.37,26.652-.37S714.419,239.547,714.419,239.75Z" transform="translate(-661.117 -239.381)" fill="#005b85"/></g><g transform="translate(31.814 88.54)"><path d="M710.156,230.573c0,.2-11.379.369-25.414.369s-25.415-.166-25.415-.369,11.377-.368,25.415-.368S710.156,230.37,710.156,230.573Z" transform="translate(-659.327 -230.205)" fill="#005b85"/></g><g transform="translate(20.257 134.002)"><path d="M657.055,267.609c0,.2-1.6.37-3.571.37s-3.572-.166-3.572-.37,1.6-.369,3.572-.369S657.055,267.406,657.055,267.609Z" transform="translate(-649.912 -267.24)" fill="#005b85"/></g><g transform="translate(20.257 145.817)"><path d="M657.055,277.233c0,.2-1.6.37-3.571.37s-3.572-.166-3.572-.37,1.6-.368,3.572-.368S657.055,277.029,657.055,277.233Z" transform="translate(-649.912 -276.865)" fill="#005b85"/></g><g transform="translate(39.214 145.267)"><path d="M718.657,276.786c0,.2-11.933.368-26.65.368s-26.652-.164-26.652-.368,11.93-.369,26.652-.369S718.657,276.583,718.657,276.786Z" transform="translate(-665.355 -276.417)" fill="#005b85"/></g><g transform="translate(37.017 134.002)"><path d="M714.394,267.609c0,.2-11.379.37-25.414.37s-25.415-.166-25.415-.37,11.377-.369,25.415-.369S714.394,267.406,714.394,267.609Z" transform="translate(-663.565 -267.24)" fill="#005b85"/></g><g transform="translate(32.364 77.55)"><path d="M728.952,221.62c0,.2-15.488.37-34.587.37s-34.59-.166-34.59-.37,15.483-.368,34.59-.368S728.952,221.418,728.952,221.62Z" transform="translate(-659.775 -221.252)" fill="#005b85"/></g><path d="M745.089,158.445c0,.205-25,.369-55.837.369s-55.842-.164-55.842-.369,25-.368,55.842-.368S745.089,158.243,745.089,158.445Z" transform="translate(-633.41 -158.077)" fill="#263238"/><g transform="translate(16.943 34.86)"><path d="M670.8,186.844c0,.2-5.28.369-11.793.369s-11.793-.166-11.793-.369,5.279-.369,11.793-.369S670.8,186.641,670.8,186.844Z" transform="translate(-647.212 -186.475)" fill="#005b85"/></g><g transform="translate(16.053 13.499)"><path d="M657.612,169.442c0,.2-2.491.369-5.562.369s-5.563-.166-5.563-.369,2.49-.368,5.563-.368S657.612,169.238,657.612,169.442Z" transform="translate(-646.487 -169.074)" fill="#005b85"/></g></g></g></g><g transform="translate(488.827 231.484)"><g transform="translate(0 97.059)"><g transform="translate(11.25)"><path d="M599.037,397.877l24.724-24.445-44.092-75.5a42.562,42.562,0,0,0-16.922-11.77l-15.528-5.9-38.6-7.082-27.407,10.793a16.387,16.387,0,0,0-10.267,17.181l7.169,60.348,4.223,78.579,99.59-17.274L571.9,393.735l.338-45.314Z" transform="translate(-470.828 -273.173)" fill="#005b85"/><g transform="translate(101.194 48.521)"><path d="M554.061,382.812c.233,0,.293-15.7.135-35.057s-.476-35.056-.708-35.055-.293,15.7-.135,35.061S553.829,382.815,554.061,382.812Z" transform="translate(-553.264 -312.7)" fill="#263238"/></g></g><g transform="translate(0 10.793)"><path d="M571.257,401.324,511.08,377.1a13.752,13.752,0,0,1-8.576-11.708L498.1,307.7s.52-24.537-14.805-25.732l-8.719,3.435c-11.268,5.984-14.06,22.39-12.526,35.057,2.179,18,3.087,43.47,5.526,59.091,2,12.777,9.669,22.886,21.822,27.31L563.516,422.9Z" transform="translate(-461.663 -281.965)" fill="#005b85"/></g><g transform="translate(37.285 45.326)"><path d="M492.053,310.1a8.359,8.359,0,0,1,.189,1.321q.144,1.41.387,3.8c.308,3.381.74,8.142,1.273,13.992.509,5.933,1.113,12.962,1.784,20.758q.247,2.931.5,6a45.244,45.244,0,0,0,.768,6.173,10.247,10.247,0,0,0,2.99,5.407A20.305,20.305,0,0,0,505.5,371c16.593,7.18,31.885,13.109,42.986,17.267l13.179,4.855,3.584,1.321a8.305,8.305,0,0,1,1.232.512,8.438,8.438,0,0,1-1.285-.357l-3.635-1.18c-3.15-1.043-7.689-2.607-13.272-4.617-11.166-4.026-26.482-9.867-43.125-17.068a21.012,21.012,0,0,1-5.768-3.607,11.04,11.04,0,0,1-3.209-5.809,45.251,45.251,0,0,1-.766-6.284q-.245-3.069-.478-6.005c-.605-7.8-1.151-14.837-1.613-20.776-.425-5.859-.771-10.627-1.016-14.014q-.149-2.4-.237-3.813A8.231,8.231,0,0,1,492.053,310.1Z" transform="translate(-492.037 -310.097)" fill="#263238"/></g><g transform="translate(2.781 76.689)"><path d="M463.972,335.647a2.949,2.949,0,0,1,.119.775c.054.6.119,1.337.2,2.227.179,2.056.42,4.823.713,8.188.33,3.452.749,7.562,1.349,12.1a115.672,115.672,0,0,0,2.717,14.615,21.823,21.823,0,0,0,2.938,6.968,40.016,40.016,0,0,0,4.5,5.523,38.464,38.464,0,0,0,9.629,7.224c6.157,3.2,10.632,3.247,10.569,3.46a2.821,2.821,0,0,1-.783-.018,16.392,16.392,0,0,1-2.226-.287,29.433,29.433,0,0,1-7.819-2.647,37.739,37.739,0,0,1-9.9-7.212,39.807,39.807,0,0,1-4.62-5.6,22.405,22.405,0,0,1-3.059-7.2,108.825,108.825,0,0,1-2.677-14.733c-.561-4.564-.922-8.687-1.18-12.153s-.388-6.274-.459-8.216c-.018-.894-.034-1.633-.048-2.237A2.809,2.809,0,0,1,463.972,335.647Z" transform="translate(-463.929 -335.647)" fill="#263238"/></g><g transform="translate(28.541 102.816)"><path d="M484.929,371.176a8.842,8.842,0,0,1,1.095-3.206,20.707,20.707,0,0,1,12.209-10.427,8.827,8.827,0,0,1,3.339-.581c.025.135-1.239.385-3.151,1.118a23.4,23.4,0,0,0-11.895,10.158C485.5,370.012,485.058,371.221,484.929,371.176Z" transform="translate(-484.914 -356.93)" fill="#263238"/></g><g transform="translate(39.261 62.479)" opacity="0.3"><path d="M546.685,384.866c-6.435-3.635-12.73-6.427-19.458-9.485s-13.318-6.982-17.722-12.917c-8.3-11.193-7.358-27.347-15.859-38.393q.832,11.14,1.666,22.281c.508,6.808-.535,13.54,3.85,18.165,3.694,3.9,10.9,6.885,15.995,8.567,10.247,3.381,21.282,8.4,31.528,11.782" transform="translate(-493.647 -324.071)"/></g><path d="M553.454,316.162l5.205,32.109-4.928-9.1Z" transform="translate(-440.777 -263.391)" opacity="0.3"/><g transform="translate(0.174 32.706)"><path d="M497.117,300.071a5.833,5.833,0,0,1-1.393.108l-3.8.1c-3.2.08-7.625.242-12.5.589s-9.275.822-12.457,1.2l-3.77.446a5.908,5.908,0,0,1-1.4.093,5.94,5.94,0,0,1,1.358-.339c.88-.179,2.16-.4,3.746-.648,3.174-.493,7.583-1.036,12.473-1.388s9.331-.439,12.542-.4c1.606.016,2.9.054,3.8.107A5.868,5.868,0,0,1,497.117,300.071Z" transform="translate(-461.805 -299.816)" fill="#455a64"/></g><g transform="translate(1.912 63.654)"><path d="M498.507,325.062c.013.177-7.873.972-17.616,1.777s-17.655,1.316-17.669,1.14,7.871-.972,17.616-1.778S498.492,324.887,498.507,325.062Z" transform="translate(-463.221 -325.028)" fill="#455a64"/></g><g transform="translate(4.839 95.986)"><path d="M500.865,351.372a6.222,6.222,0,0,1-1.248.713c-.819.428-2.034.992-3.557,1.634a73.846,73.846,0,0,1-25.107,5.621c-1.652.069-2.99.077-3.915.039a6.219,6.219,0,0,1-1.433-.114,6.256,6.256,0,0,1,1.43-.135c.921-.038,2.25-.115,3.889-.241a87.923,87.923,0,0,0,24.968-5.589c1.536-.587,2.772-1.083,3.621-1.441A6.165,6.165,0,0,1,500.865,351.372Z" transform="translate(-465.605 -351.366)" fill="#455a64"/></g><g transform="translate(51.357 112.547)"><path d="M513.637,364.869c.1.179-3.135,1.614-5.963,4.79-2.872,3.139-3.969,6.506-4.158,6.423a5.91,5.91,0,0,1,.663-2.2,17.55,17.55,0,0,1,7.339-8.131A5.93,5.93,0,0,1,513.637,364.869Z" transform="translate(-503.5 -364.858)" fill="#455a64"/></g><g transform="translate(83.236 122.085)"><path d="M529.492,384.371c-.156-.036.544-3.035,2.363-6.335,1.8-3.312,3.951-5.517,4.067-5.4.147.123-1.743,2.469-3.506,5.711C530.633,381.572,529.676,384.428,529.492,384.371Z" transform="translate(-529.471 -372.628)" fill="#455a64"/></g><g transform="translate(31.826 14.858)"><path d="M504.724,285.309c.032.174-3.778,1.008-8.509,1.863s-8.593,1.408-8.625,1.234,3.778-1.008,8.511-1.862S504.692,285.136,504.724,285.309Z" transform="translate(-487.59 -285.277)" fill="#455a64"/></g><g transform="translate(83.042 14.685)"><path d="M552.837,287.963c-.021.176-5.3-.308-11.8-1.079s-11.746-1.538-11.725-1.712,5.3.307,11.8,1.078S552.857,287.788,552.837,287.963Z" transform="translate(-529.312 -285.136)" fill="#455a64"/></g><g transform="translate(37.437 43.824)"><path d="M566.21,309.354a3.394,3.394,0,0,1-.754.049l-2.16.016-7.939-.01c-6.7-.006-15.963.05-26.185.312S509.7,310.4,503,310.755l-7.927.419-2.158.093a3.358,3.358,0,0,1-.755-.01,3.308,3.308,0,0,1,.746-.118l2.148-.215c1.868-.174,4.574-.388,7.919-.62,6.69-.466,15.947-.958,26.181-1.223s19.5-.246,26.206-.124c3.352.059,6.065.134,7.94.214l2.158.1A3.35,3.35,0,0,1,566.21,309.354Z" transform="translate(-492.161 -308.873)" fill="#455a64"/></g><g transform="translate(41.632 78.212)"><path d="M566.137,336.909c.012.177-15.775,1.359-35.256,2.642s-35.292,2.18-35.3,2,15.772-1.359,35.26-2.642S566.126,336.734,566.137,336.909Z" transform="translate(-495.578 -336.887)" fill="#455a64"/></g><g transform="translate(74.954 108.116)"><path d="M558.283,361.257a6.3,6.3,0,0,1-1.328.568c-.868.328-2.136.767-3.713,1.283-3.152,1.03-7.554,2.322-12.477,3.507s-9.434,2.033-12.71,2.547c-1.639.258-2.968.443-3.89.545a6.252,6.252,0,0,1-1.441.1,6.383,6.383,0,0,1,1.4-.344l3.85-.745c3.25-.627,7.729-1.544,12.639-2.723s9.313-2.4,12.494-3.319l3.768-1.086A6.293,6.293,0,0,1,558.283,361.257Z" transform="translate(-522.724 -361.248)" fill="#455a64"/></g><g transform="translate(112.677 53.926)"><path d="M576.54,317.119c.044.171-5.088,1.646-11.463,3.294s-11.579,2.847-11.624,2.676,5.087-1.646,11.464-3.295S576.5,316.948,576.54,317.119Z" transform="translate(-553.454 -317.103)" fill="#455a64"/></g><g transform="translate(113.45 30.954)"><path d="M564.357,298.442c.032.174-2.243.729-5.08,1.24s-5.162.783-5.194.609,2.243-.728,5.081-1.239S564.327,298.269,564.357,298.442Z" transform="translate(-554.084 -298.39)" fill="#455a64"/></g><g transform="translate(12.555 15.666)"><path d="M496.816,308.4c-.124.022-.312-2.039-1.435-5.125a25.831,25.831,0,0,0-18.243-16.391c-3.188-.788-5.256-.755-5.248-.881a5.444,5.444,0,0,1,1.442-.054,22.141,22.141,0,0,1,3.908.495,25,25,0,0,1,18.567,16.684,22.078,22.078,0,0,1,.908,3.832A5.458,5.458,0,0,1,496.816,308.4Z" transform="translate(-471.891 -285.935)" fill="#263238"/></g><g transform="translate(109.151 21.758)"><path d="M550.609,290.9c.174-.028,1.123,5,2.12,11.223s1.662,11.3,1.488,11.325-1.123-5-2.12-11.225S550.435,290.926,550.609,290.9Z" transform="translate(-550.581 -290.898)" fill="#263238"/></g></g><g transform="translate(165.59 297.272)"><g transform="translate(0 2.471)"><path d="M607.217,438.287s46.252,12.8,48.107,13.454c2.786.981,2.319,11.189-2.017,11.031-2.051-.075-35.528,1.246-39.758.982s-16.99-5.293-16.99-5.293Z" transform="translate(-596.559 -438.287)" fill="#005b85"/></g><g transform="translate(29.832 10.88)"><path d="M620.954,454.377c.232.032.545-2.415,2.038-4.967,1.457-2.573,3.415-4.072,3.27-4.257-.08-.179-2.378,1.124-3.94,3.872C620.732,451.754,620.759,454.4,620.954,454.377Z" transform="translate(-620.861 -445.137)" fill="#263238"/></g><g transform="translate(25.029 9.093)"><path d="M617.022,452.52c.227.039.7-2.147,1.927-4.563,1.208-2.429,2.686-4.107,2.519-4.266-.128-.152-1.935,1.36-3.21,3.917C616.964,450.156,616.824,452.508,617.022,452.52Z" transform="translate(-616.949 -443.681)" fill="#263238"/></g><g transform="translate(20.273 7.495)"><path d="M613.381,451.605c.232-.013.055-2.325,1.082-4.886.982-2.58,2.681-4.158,2.519-4.326-.093-.176-2.167,1.255-3.241,4.044C612.638,449.214,613.193,451.671,613.381,451.605Z" transform="translate(-613.074 -442.379)" fill="#263238"/></g><g transform="translate(17.731)"><path d="M614.672,447.021a8.212,8.212,0,0,0,.5-3.442,16.216,16.216,0,0,0-1.156-5.919,2.582,2.582,0,0,0-.741-1.133,1.234,1.234,0,0,0-1.588.079,2.047,2.047,0,0,0-.616,1.307,9.05,9.05,0,0,0-.06,1.223,10.254,10.254,0,0,0,.286,2.264,13.673,13.673,0,0,0,1.424,3.535,9.352,9.352,0,0,0,2.077,2.785c.106-.074-.669-1.151-1.592-3.038a15.162,15.162,0,0,1-1.213-3.438,10.232,10.232,0,0,1-.223-2.113c.021-.711.011-1.6.426-1.941a.449.449,0,0,1,.613-.052,1.963,1.963,0,0,1,.507.808,16.993,16.993,0,0,1,.7,2.041,18.557,18.557,0,0,1,.612,3.611C614.757,445.693,614.546,447,614.672,447.021Z" transform="translate(-611.003 -436.274)" fill="#263238"/></g><g transform="translate(12.088 9.795)"><path d="M615.66,444.734a6.457,6.457,0,0,0-2.983-.481,13.432,13.432,0,0,0-3.282.4,7.188,7.188,0,0,0-1.889.7,1.951,1.951,0,0,0-1.045,2.114,2.31,2.31,0,0,0,1.666,1.651,4.243,4.243,0,0,0,2.075-.006,7.943,7.943,0,0,0,3-1.478,8.162,8.162,0,0,0,2.151-2.116,20.189,20.189,0,0,0-2.464,1.668,8.225,8.225,0,0,1-2.837,1.228,3.652,3.652,0,0,1-1.716-.023,1.567,1.567,0,0,1-1.126-1.1A1.191,1.191,0,0,1,607.9,446a7.062,7.062,0,0,1,1.678-.654,15.515,15.515,0,0,1,3.117-.544C614.506,444.673,615.641,444.858,615.66,444.734Z" transform="translate(-606.406 -444.253)" fill="#263238"/></g><g transform="translate(36.672 12.801)"><path d="M626.794,454.515c.228-.026,0-2,.911-4.171.867-2.187,2.411-3.442,2.265-3.621-.076-.189-2.011.907-2.982,3.329C625.99,452.46,626.606,454.6,626.794,454.515Z" transform="translate(-626.433 -446.702)" fill="#263238"/></g><g transform="translate(4.757 22.737)"><path d="M600.435,454.808a9.6,9.6,0,0,0,1.79.842,39.5,39.5,0,0,0,5.147,1.595,73.338,73.338,0,0,0,17.658,1.674c6.932-.076,13.178-.392,17.707-.573l5.359-.284a9.721,9.721,0,0,0,1.962-.21,9.586,9.586,0,0,0-1.97-.092l-5.368.038-17.694.346a82.787,82.787,0,0,1-17.534-1.433C603.071,455.8,600.489,454.666,600.435,454.808Z" transform="translate(-600.435 -454.796)" fill="#263238"/></g><g transform="translate(3.389 19.871)"><path d="M599.321,456.394c.063.107,1.328-.633,3.465-1.57a16.113,16.113,0,0,1,8.752-1.455c3.486.534,5.956,2.875,7.565,4.5a27.322,27.322,0,0,0,2.665,2.723,14.256,14.256,0,0,0-2.262-3.093,18.341,18.341,0,0,0-3.068-2.868,10.99,10.99,0,0,0-4.779-2.027,15.3,15.3,0,0,0-9.1,1.723A12.283,12.283,0,0,0,599.321,456.394Z" transform="translate(-599.32 -452.461)" fill="#263238"/></g></g><g transform="translate(75.292 289.006)"><path d="M569.212,429.54s-43.768,28.656-45.337,29.842c-2.357,1.781.346,10.262,4.429,8.794,1.932-.695,38.658-10.912,42.608-12.449s14.581-10.2,14.581-10.2Z" transform="translate(-522.999 -429.54)" fill="#005b85"/><g transform="translate(25.355 15.454)"><path d="M551.515,449.342c.191-.041-.586-2.566-2.929-4.684-2.323-2.142-4.908-2.686-4.931-2.492-.081.22,2.24,1.053,4.409,3.063C550.262,447.206,551.3,449.443,551.515,449.342Z" transform="translate(-543.653 -442.129)" fill="#263238"/></g><g transform="translate(30.225 12.033)"><path d="M554.543,446.427c.184-.071-.663-2.271-2.669-4.3-1.992-2.049-4.174-2.941-4.249-2.757-.111.2,1.807,1.352,3.695,3.3C553.228,444.593,554.339,446.534,554.543,446.427Z" transform="translate(-547.621 -439.343)" fill="#263238"/></g><g transform="translate(34.857 8.877)"><path d="M557.626,444.485c.2.006-.02-2.5-1.914-4.814-1.869-2.332-4.28-3.065-4.315-2.869-.1.21,1.994,1.2,3.713,3.356C556.868,442.286,557.4,444.541,557.626,444.485Z" transform="translate(-551.394 -436.771)" fill="#263238"/></g><g transform="translate(36.237 0.197)"><path d="M554.774,440.651c.114-.056-.484-1.24-.992-3.276a18.583,18.583,0,0,1-.513-3.626,16.864,16.864,0,0,1,.048-2.157,1.943,1.943,0,0,1,.237-.924.45.45,0,0,1,.6-.138c.5.2.76,1.05,1,1.72a10.183,10.183,0,0,1,.428,2.082,15.168,15.168,0,0,1-.11,3.645c-.307,2.077-.718,3.339-.6,3.377a9.333,9.333,0,0,0,1.134-3.284,13.741,13.741,0,0,0,.282-3.8,10.128,10.128,0,0,0-.416-2.243,8.844,8.844,0,0,0-.428-1.147,2.04,2.04,0,0,0-.983-1.059,1.234,1.234,0,0,0-1.538.409,2.581,2.581,0,0,0-.361,1.3,15.886,15.886,0,0,0,0,2.254,16.21,16.21,0,0,0,.7,3.735A8.2,8.2,0,0,0,554.774,440.651Z" transform="translate(-552.518 -429.7)" fill="#263238"/></g><g transform="translate(38.403 8.675)"><path d="M554.284,438.613c.056.113,1.081-.408,2.844-.837a15.616,15.616,0,0,1,3.135-.428,7.06,7.06,0,0,1,1.8.114,1.194,1.194,0,0,1,1.047,1.021,1.568,1.568,0,0,1-.739,1.388,3.639,3.639,0,0,1-1.628.544,8.191,8.191,0,0,1-3.076-.308,20.206,20.206,0,0,0-2.854-.841,8.138,8.138,0,0,0,2.692,1.364,7.988,7.988,0,0,0,3.312.5,4.241,4.241,0,0,0,1.979-.626,2.311,2.311,0,0,0,1.085-2.078,1.951,1.951,0,0,0-1.638-1.7,7.228,7.228,0,0,0-2.012-.09,13.437,13.437,0,0,0-3.249.614A6.485,6.485,0,0,0,554.284,438.613Z" transform="translate(-554.283 -436.607)" fill="#263238"/></g><g transform="translate(6.236 26.224)"><path d="M532.725,461.715c.05.069.736-.443,1.072-1.7a6.464,6.464,0,0,0-.82-4.749,17.359,17.359,0,0,0-1.467-2.185,8.06,8.06,0,0,0-1.485-1.595,2.6,2.6,0,0,0-1.4-.586c-.367-.015-.554.075-.548.119a4.159,4.159,0,0,1,1.592.885,9.852,9.852,0,0,1,1.262,1.6,25,25,0,0,1,1.365,2.137,6.772,6.772,0,0,1,.962,4.267C533.1,461.043,532.622,461.64,532.725,461.715Z" transform="translate(-528.079 -450.903)" fill="#263238"/></g><g transform="translate(21.2 18.793)"><path d="M545.664,451.352c.2.022.141-2.2-1.542-4.193-1.66-2.012-3.836-2.469-3.851-2.266-.085.215,1.768.941,3.257,2.762C545.054,449.445,545.438,451.4,545.664,451.352Z" transform="translate(-540.269 -444.849)" fill="#263238"/></g><g transform="translate(2.711 17.526)"><path d="M580.489,443.821a15.517,15.517,0,0,0-1.924,1.32,54.821,54.821,0,0,1-5.4,3.307,70.991,70.991,0,0,1-8.572,3.815c-3.314,1.236-7.031,2.4-10.962,3.541-7.875,2.267-15,4.339-20.146,5.887-2.466.757-4.514,1.385-6.081,1.867a13.41,13.41,0,0,0-2.2.786,13.44,13.44,0,0,0,2.283-.5l6.15-1.631c5.183-1.413,12.329-3.4,20.211-5.67,3.939-1.142,7.672-2.335,11-3.618a64.444,64.444,0,0,0,8.583-4,42.921,42.921,0,0,0,5.312-3.544A11.97,11.97,0,0,0,580.489,443.821Z" transform="translate(-525.207 -443.818)" fill="#263238"/></g><g transform="translate(39.491 16.886)"><path d="M575.294,444.529a12.245,12.245,0,0,0-3.71-.987,15.3,15.3,0,0,0-9.2,1.124,10.972,10.972,0,0,0-3.937,3.381,18.323,18.323,0,0,0-2.051,3.663,14.3,14.3,0,0,0-1.218,3.636,27,27,0,0,0,1.712-3.4c1.04-2.038,2.683-5.018,5.842-6.585a16.11,16.11,0,0,1,8.781-1.273C573.836,444.328,575.267,444.649,575.294,444.529Z" transform="translate(-555.17 -443.296)" fill="#263238"/></g></g><g transform="translate(87.965 214.992)"><path d="M657.849,371.593s13.13,4.688,13.185,19.411c.106,28.2-56.981,59.287-56.981,59.287l-75.968-50.335-4.762-1.926S635.874,359.507,657.849,371.593Z" transform="translate(-533.323 -369.246)" fill="#263238"/><g transform="translate(43.243 16.591)"><path d="M568.551,422.3a14.048,14.048,0,0,0,1.979-1.342c1.245-.9,3.021-2.241,5.195-3.923,4.35-3.362,10.268-8.128,16.634-13.591s11.971-10.6,15.952-14.389c1.991-1.9,3.584-3.448,4.665-4.542a14.226,14.226,0,0,0,1.625-1.753,14.041,14.041,0,0,0-1.833,1.534l-4.829,4.359c-4.072,3.685-9.727,8.743-16.085,14.2s-12.212,10.281-16.47,13.75l-5.04,4.113A14.117,14.117,0,0,0,568.551,422.3Z" transform="translate(-568.55 -382.761)" fill="#455a64"/></g><g transform="translate(89.247 12.697)"><path d="M619.859,379.78c.029-.189-3.36-.52-7.32.664-3.97,1.155-6.636,3.274-6.508,3.417.125.2,2.895-1.564,6.728-2.675C616.579,380.039,619.863,380.017,619.859,379.78Z" transform="translate(-606.026 -379.589)" fill="#455a64"/></g><g transform="translate(89.631 8.423)"><path d="M613.245,376.128c-.069-.183-2.5.887-4.5,3.388-2.024,2.482-2.557,5.088-2.364,5.116.221.076,1.052-2.291,2.966-4.63C611.227,377.639,613.366,376.328,613.245,376.128Z" transform="translate(-606.34 -376.108)" fill="#455a64"/></g><g transform="translate(124.459 97.659)"><path d="M638.956,448.882c.041-.088-.906-.271-1.958.594a7.1,7.1,0,0,0-2.2,4.409,8.668,8.668,0,0,0,.694,4.862c.538,1.154,1.128,1.7,1.194,1.641.1-.072-.312-.713-.687-1.845a9.856,9.856,0,0,1-.433-4.549,7.624,7.624,0,0,1,1.8-4.112C638.171,449.038,638.972,449,638.956,448.882Z" transform="translate(-634.711 -448.803)" fill="#263238"/></g></g><g transform="translate(58.313 170.409)"><path d="M657.879,339.769l-21.612,58.22a8.391,8.391,0,0,1-7.977,5.47l-118.966-1.566v-9.04l44.145,1.612,18.742-58.114a4.744,4.744,0,0,1,4.528-3.287l76.741.222A4.743,4.743,0,0,1,657.879,339.769Z" transform="translate(-509.131 -332.895)" fill="#e0e0e0"/><path d="M657.914,339.8s.014-.063.05-.183a4.957,4.957,0,0,0,.149-.543,4.666,4.666,0,0,0-.048-2.185,4.75,4.75,0,0,0-2.089-2.814,4.628,4.628,0,0,0-2.161-.682c-.82-.038-1.709-.011-2.642-.02l-32.017-.037-22.431-.042-12.6-.027-6.621-.015a5.207,5.207,0,0,0-3.166.7,4.621,4.621,0,0,0-1.969,2.589c-5.66,17.574-11.956,37.122-18.686,58.014l-.043.135-.141,0-44.145-1.607.2-.192v9.04l-.189-.191,74.811,1,32.52.447,7.5.1,3.645.052a8.7,8.7,0,0,0,3.459-.506,8.236,8.236,0,0,0,4.766-4.59l2.323-6.205c6.03-16.169,10.9-29.227,14.268-38.261,1.684-4.5,2.993-7.985,3.888-10.37.891-2.368,1.377-3.6,1.377-3.6s-.438,1.253-1.307,3.629c-.879,2.392-2.165,5.891-3.821,10.4l-14.155,38.3-2.314,6.219a8.523,8.523,0,0,1-4.924,4.757,8.992,8.992,0,0,1-3.564.528l-3.645-.044-7.5-.093-32.52-.41-74.813-.969-.189,0v-.189c0-2.35,0-4.883,0-7.427v-1.812l.2.006,44.145,1.618-.184.129c6.745-20.887,13.057-40.43,18.732-58a4.946,4.946,0,0,1,2.108-2.76,5.527,5.527,0,0,1,3.336-.74l6.621.023,12.6.047,22.431.088,32.016.147c.937.013,1.816-.009,2.649.034a4.721,4.721,0,0,1,2.2.713,4.805,4.805,0,0,1,2.1,2.88,4.594,4.594,0,0,1,.016,2.21A4.918,4.918,0,0,1,657.914,339.8Z" transform="translate(-509.167 -332.926)" fill="#263238"/><g transform="translate(93.777 28.295)"><path d="M587.778,356.57c1.543-1.046,4.395-.626,5.783.617a4.676,4.676,0,0,1,1.132,5.124,5.067,5.067,0,0,1-4.344,3.034,4.567,4.567,0,0,1-4.592-3.033c-.554-1.9.06-4.74,2.022-5.742" transform="translate(-585.561 -355.977)" fill="#fff"/></g></g><g transform="translate(14.047 220.877)"><g transform="translate(0.491 0.234)"><path d="M640.474,452.327s-107.215-68.675-111.948-71.369c-4.026-2.292-14.8-8.923-25.419-5.994s-20.144,12.453-24.906,26.37c-2.72,7.951-4.005,21.519-4.608,31.691a47.017,47.017,0,0,0,11,33.523c3.62,4.2,8.086,7.854,13.384,9.5,1.117.349,2.277.648,3.468.907,20.294,4.4,41.148-4.71,52.551-22.065l2.5-3.812s70.214,25.8,71.313,25.43Z" transform="translate(-473.506 -374.23)" fill="#263238"/></g><path d="M534.152,384.806a1.156,1.156,0,0,1-.269-.157l-.75-.513c-.657-.453-1.624-1.124-2.9-1.942a56.591,56.591,0,0,0-11.385-5.785,30.579,30.579,0,0,0-8.577-1.808,24.662,24.662,0,0,0-9.862,1.609,31.854,31.854,0,0,0-9.479,5.75,43.62,43.62,0,0,0-4.208,4.133,30.739,30.739,0,0,0-3.481,4.953,50.783,50.783,0,0,0-4.625,11.045c-1.01,3.739-1.819,7.436-2.589,10.925a99.794,99.794,0,0,0-2.469,18.811,68.156,68.156,0,0,0,.975,12.75c.236,1.5.5,2.642.663,3.422l.176.891a1.13,1.13,0,0,1,.038.309,1.06,1.06,0,0,1-.1-.293c-.064-.233-.141-.522-.237-.876-.2-.773-.508-1.914-.782-3.409a63.936,63.936,0,0,1-1.182-12.8,97.365,97.365,0,0,1,2.343-18.925c.76-3.516,1.548-7.18,2.564-10.977a50.909,50.909,0,0,1,4.673-11.192,31.15,31.15,0,0,1,3.556-5.053,43.816,43.816,0,0,1,4.28-4.191,32.252,32.252,0,0,1,9.678-5.825,25.081,25.081,0,0,1,10.1-1.588,30.706,30.706,0,0,1,8.7,1.914,53.8,53.8,0,0,1,11.37,6c1.258.852,2.2,1.558,2.837,2.045l.713.565C534.08,384.726,534.158,384.8,534.152,384.806Z" transform="translate(-473.106 -374.039)" fill="#455a64"/><g transform="translate(34.668 4.944)"><path d="M501.348,432.075s.2.1.589.26l1.757.7,6.8,2.621,25.289,9.526c10.744,4.008,23.609,8.773,38.046,14.027S604.271,470.215,621.357,476l.311.106.152-.291,8.387-16.015c1.463-2.8,2.917-5.574,4.273-8.167l.166-.315-.3-.188-81.875-51.974L527.88,383.644l-6.679-4.169-1.744-1.067c-.4-.237-.608-.341-.608-.341s.185.149.567.405l1.7,1.129,6.605,4.288L552.189,399.6l81.74,52.174-.133-.5-4.275,8.167c-2.871,5.486-5.7,10.892-8.38,16.017l.462-.187c-17.078-5.769-33.085-11.5-47.537-16.709l-38.1-13.866L510.6,435.391l-6.852-2.493-1.781-.631C501.56,432.129,501.348,432.075,501.348,432.075Z" transform="translate(-501.348 -378.067)" fill="#455a64"/></g></g><g transform="translate(43.871)"><path d="M506.884,246.106a55.3,55.3,0,0,1-4.764-11.4,18.567,18.567,0,0,1,.636-12.129c1-2.2,2.567-4.123,3.351-6.405,1.078-3.141.637-6.847,2.581-9.539,3.039-4.207,9.543-3.226,14.242-5.429,3.66-1.716,6.218-5.417,10.066-6.652,3.364-1.078,7.03-.044,10.276,1.345s6.413,3.161,9.915,3.62c2.5.327,5.028-.034,7.545.02s5.191.61,6.963,2.4,2.144,5.091.225,6.72c4.4-.746,8.552,3.649,8.495,8.115s-3.421,8.4-7.484,10.255-8.7,1.979-13.152,1.633c-12.606-.982-25.273-5.774-33.854-15.061" transform="translate(-496.491 -194.105)" fill="#0a0a0a"/><g transform="translate(0 6.91)"><g transform="translate(4.344 2.189)"><path d="M509.708,228.646l-8.589,62.419a18.743,18.743,0,0,0,16.933,21.227h0a18.751,18.751,0,0,0,20.207-16.146c.642-4.7,1.187-8.616,1.285-9.1,0,0,16.1.692,19.406-14.877,1.6-7.524,3.635-23.289,5.31-37.574a29.65,29.65,0,0,0-23.65-32.511l-1.506-.3C522.676,199.491,511.548,212.161,509.708,228.646Z" transform="translate(-500.941 -201.518)" fill="#ffbe9d"/><g transform="translate(19.481 75.464)"><path d="M536,272.842a37.009,37.009,0,0,1-19.192-9.849s2.564,12.194,18.421,13.9Z" transform="translate(-516.811 -262.993)" fill="#eb996e"/></g><g transform="translate(25.98 23.615)"><g transform="translate(0 8.859)"><g transform="translate(23.667 4.263)"><g transform="translate(2.149 7.119)"><path d="M547.658,239.74a2.271,2.271,0,0,1-2.6,1.819,2.173,2.173,0,0,1-1.9-2.469,2.275,2.275,0,0,1,2.6-1.822A2.175,2.175,0,0,1,547.658,239.74Z" transform="translate(-543.137 -237.244)" fill="#263238"/></g><path d="M550.173,234.78c-.334.234-1.773-1.352-4.174-1.825-2.39-.506-4.4.376-4.6.031-.1-.156.284-.625,1.161-1.03a6.251,6.251,0,0,1,3.754-.383,6,6,0,0,1,3.249,1.816C550.19,234.1,550.335,234.677,550.173,234.78Z" transform="translate(-541.386 -231.445)" fill="#263238"/></g><g transform="translate(3.446 7.521)"><path d="M529.435,236.593a2.272,2.272,0,0,1-2.6,1.819,2.173,2.173,0,0,1-1.9-2.469,2.274,2.274,0,0,1,2.6-1.82A2.174,2.174,0,0,1,529.435,236.593Z" transform="translate(-524.914 -234.099)" fill="#263238"/></g><path d="M530.894,231.307c-.335.234-1.776-1.353-4.174-1.825-2.39-.506-4.4.376-4.6.031-.1-.156.281-.625,1.162-1.029a6.236,6.236,0,0,1,3.753-.384,5.993,5.993,0,0,1,3.249,1.816C530.909,230.628,531.056,231.2,530.894,231.307Z" transform="translate(-522.106 -227.972)" fill="#263238"/><g transform="translate(13.939 2.659)"><path d="M533.461,250.341c.016-.139,1.559-.1,4.036.076.625.059,1.229.053,1.415-.345a3.17,3.17,0,0,0-.045-1.9q-.42-2.4-.88-5.026c-1.188-7.143-1.917-12.967-1.63-13.012s1.485,5.707,2.674,12.85q.418,2.637.8,5.038a3.62,3.62,0,0,1-.162,2.467,1.567,1.567,0,0,1-1.186.695,4.186,4.186,0,0,1-1.069-.064C534.954,250.769,533.443,250.48,533.461,250.341Z" transform="translate(-533.461 -230.138)" fill="#263238"/></g><g transform="translate(5.809 23.108)"><path d="M527.578,246.8c.394.055-.122,2.659,1.738,4.952s4.688,2.561,4.635,2.929c0,.171-.719.382-1.9.18a6.606,6.606,0,0,1-3.9-2.3,5.76,5.76,0,0,1-1.291-4.12C526.983,247.335,527.4,246.748,527.578,246.8Z" transform="translate(-526.838 -246.796)" fill="#263238"/></g></g><g transform="translate(0.122)"><path d="M533.37,223.673c-.367.605-2.7-.183-5.582-.405-2.877-.281-5.312.09-5.568-.571-.11-.313.408-.847,1.451-1.3a9.724,9.724,0,0,1,8.495.744C533.115,222.768,533.533,223.384,533.37,223.673Z" transform="translate(-522.205 -220.755)" fill="#262525"/></g><g transform="translate(24.872 5.9)"><path d="M550.455,229c-.531.46-2.071-.435-4.052-.858-1.967-.493-3.742-.367-4.015-1.015-.114-.309.259-.8,1.1-1.171a6,6,0,0,1,6.5,1.509C550.575,228.165,550.695,228.772,550.455,229Z" transform="translate(-542.368 -225.561)" fill="#262525"/></g></g></g><g transform="translate(0 39.75)"><path d="M509.478,233.495c-.243-.168-10.09-5.314-11.881,5.425s9.359,10.321,9.429,10.017S509.478,233.495,509.478,233.495Z" transform="translate(-497.402 -232.116)" fill="#ffbe9d"/><g transform="translate(2.808 3.345)"><path d="M503.9,243.7c-.042-.042-.209.1-.55.193a1.9,1.9,0,0,1-1.4-.2c-1.064-.606-1.72-2.566-1.449-4.51a6.264,6.264,0,0,1,.97-2.591,2.194,2.194,0,0,1,1.647-1.2.967.967,0,0,1,1.019.7c.093.324-.011.528.043.555.026.032.26-.141.248-.6a1.2,1.2,0,0,0-.311-.743,1.428,1.428,0,0,0-.988-.447,2.666,2.666,0,0,0-2.232,1.339,6.431,6.431,0,0,0-1.148,2.885c-.292,2.175.478,4.385,1.955,5.093a2.032,2.032,0,0,0,1.758,0C503.842,243.957,503.938,243.726,503.9,243.7Z" transform="translate(-499.69 -234.841)" fill="#eb996e"/></g></g><g transform="translate(10.833)"><path d="M566.148,220.508c-1.844,3.969-11.318,5.5-18.263,3.405-6.4-1.933-8.725-6-12.8-9.54-2.579-2.243-2.579-2.243-6.783-2.677-3.4-.35-6.129,3.034-8.7,5.287,1.43,8.535-2.364,16.984-6.063,24.807A4.325,4.325,0,0,1,511.8,244c-1.456.718-3.194-.417-4.064-1.789-1.393-2.195-1.556-4.936-1.5-7.536a44.789,44.789,0,0,1,3.561-17.287,30.471,30.471,0,0,1,11.227-13.443,28.869,28.869,0,0,1,21.357-3.538A35.458,35.458,0,0,1,561.1,211.65a20.756,20.756,0,0,1,5.044,8.858" transform="translate(-506.227 -199.735)"/></g></g><g transform="translate(9.005 38.437)"><g transform="translate(39.846 4.447)"><path d="M537.254,239.8c.092,0,.06-.926.489-2.5a10.363,10.363,0,0,1,3.8-5.519,10.1,10.1,0,0,1,9.5-1.367,9.892,9.892,0,0,1,4.622,3.492,9.945,9.945,0,0,1,0,11.779,9.9,9.9,0,0,1-4.623,3.494,10.107,10.107,0,0,1-9.5-1.367,10.374,10.374,0,0,1-3.8-5.52c-.428-1.569-.4-2.5-.489-2.5a1.961,1.961,0,0,0-.054.668,8.035,8.035,0,0,0,.215,1.91,10.345,10.345,0,0,0,3.756,5.925,10.7,10.7,0,0,0,15.185-2.11,10.722,10.722,0,0,0,0-12.786,10.7,10.7,0,0,0-15.182-2.11,10.355,10.355,0,0,0-3.757,5.925,8.035,8.035,0,0,0-.215,1.91A1.954,1.954,0,0,0,537.254,239.8Z" transform="translate(-537.198 -229.04)" fill="#263238"/></g><g transform="translate(14.375)"><path d="M516.5,236.175c.092,0,.06-.926.489-2.5a10.362,10.362,0,0,1,3.8-5.519,10.1,10.1,0,0,1,9.5-1.369,9.9,9.9,0,0,1,4.622,3.494,9.945,9.945,0,0,1,0,11.78,9.9,9.9,0,0,1-4.623,3.494,10.1,10.1,0,0,1-9.5-1.369,10.362,10.362,0,0,1-3.8-5.519c-.428-1.57-.4-2.5-.489-2.5a1.96,1.96,0,0,0-.054.668,8.031,8.031,0,0,0,.215,1.91,10.348,10.348,0,0,0,3.756,5.925,10.7,10.7,0,0,0,15.185-2.11,10.724,10.724,0,0,0,0-12.787,10.7,10.7,0,0,0-15.182-2.109,10.338,10.338,0,0,0-3.756,5.925,7.982,7.982,0,0,0-.216,1.91A1.96,1.96,0,0,0,516.5,236.175Z" transform="translate(-516.448 -225.417)" fill="#263238"/></g><g transform="translate(35.408 10.19)"><path d="M533.59,234.647c.108.217,1.473-.421,3.062.065,1.592.47,2.379,1.757,2.589,1.635.1-.048.05-.455-.308-1a3.818,3.818,0,0,0-4.536-1.364C533.8,234.24,533.533,234.553,533.59,234.647Z" transform="translate(-533.583 -233.718)" fill="#263238"/></g><g transform="translate(0 7.452)"><path d="M504.738,232.043c0,.239,3.427.385,7.648.327s7.64-.3,7.637-.541-3.427-.387-7.649-.327S504.734,231.8,504.738,232.043Z" transform="translate(-504.738 -231.488)" fill="#263238"/></g></g><g transform="translate(52.203 17.434)"><path d="M563.493,208.308a3.056,3.056,0,0,1-.166,1.024,5.033,5.033,0,0,1-1.609,2.31,7.111,7.111,0,0,1-3.862,1.581,19.439,19.439,0,0,1-5.123-.266,87.872,87.872,0,0,1-9.112-1.84c-1.151-.3-2.077-.565-2.713-.76l-.73-.232a1.067,1.067,0,0,1-.249-.1,1.052,1.052,0,0,1,.264.049l.743.185,2.729.68c2.309.554,5.521,1.235,9.107,1.762a19.768,19.768,0,0,0,5.057.287A7.038,7.038,0,0,0,561.6,211.5a5.117,5.117,0,0,0,1.631-2.2C563.454,208.679,563.464,208.3,563.493,208.308Z" transform="translate(-539.929 -208.308)" fill="#fff"/></g><g transform="translate(62.097 19.871)"><path d="M564.04,210.293a9.814,9.814,0,0,1-.919,2.938,12.565,12.565,0,0,1-12.11,7.24,9.808,9.808,0,0,1-3.022-.581,6.651,6.651,0,0,1,.809.153,13.5,13.5,0,0,0,2.221.246,12.748,12.748,0,0,0,11.939-7.138,13.553,13.553,0,0,0,.835-2.072A6.7,6.7,0,0,1,564.04,210.293Z" transform="translate(-547.989 -210.293)" fill="#fff"/></g></g></g></g></svg>